NunitoSans-XminSemiBold.ufo
<glyph name="asterisk" format="2">
  <advance width="450.8433734939759"/>
  <unicode hex="002A"/>
  <outline>
    <contour>
      <point x="159.50602409638554" y="346.3855421686747" type="line"/>
      <point x="231.97590361445782" y="490.2530120481928" type="line"/>
      <point x="219.57831325301206" y="490.2530120481928" type="line"/>
      <point x="291.04819277108436" y="346.67469879518075" type="line"/>
      <point x="354.6144578313253" y="383.4457831325301" type="line"/>
      <point x="265.48192771084337" y="523.1807228915662" type="line"/>
      <point x="251.66265060240963" y="502.67469879518075" type="line"/>
      <point x="419.10843373493975" y="495.12048192771084" type="line"/>
      <point x="419.10843373493975" y="568.2409638554217" type="line"/>
      <point x="251.66265060240963" y="559.9759036144578" type="line"/>
      <point x="265.48192771084337" y="540.4698795180723" type="line"/>
      <point x="354.6144578313253" y="679.4939759036145" type="line"/>
      <point x="291.04819277108436" y="716.9759036144578" type="line"/>
      <point x="219.57831325301206" y="573.8192771084338" type="line"/>
      <point x="231.97590361445782" y="573.8192771084338" type="line"/>
      <point x="160.2168674698795" y="716.9759036144578" type="line"/>
      <point x="96.65060240963855" y="680.2048192771084" type="line"/>
      <point x="186.0722891566265" y="539.7590361445783" type="line"/>
      <point x="199.6024096385542" y="559.9759036144578" type="line"/>
      <point x="32.445783132530124" y="568.2409638554217" type="line"/>
      <point x="32.445783132530124" y="495.12048192771084" type="line"/>
      <point x="199.6024096385542" y="502.67469879518075" type="line"/>
      <point x="185.36144578313252" y="523.1807228915662" type="line"/>
      <point x="95.93975903614458" y="383.4457831325301" type="line"/>
    </contour>
  </outline>
</glyph>
<glyph name="four" format="2">
  <advance width="600.0"/>
  <unicode hex="0034"/>
  <outline>
    <contour>
      <point x="364.3253012048193" y="0.0" type="line"/>
      <point x="467.4578313253012" y="0.0" type="line"/>
      <point x="467.4578313253012" y="143.25301204819277" type="line"/>
      <point x="569.9277108433735" y="143.25301204819277" type="line"/>
      <point x="569.9277108433735" y="229.87951807228916" type="line"/>
      <point x="467.4578313253012" y="229.87951807228916" type="line"/>
      <point x="467.4578313253012" y="705.0" type="line"/>
      <point x="381.9879518072289" y="705.0" type="line"/>
      <point x="47.204819277108435" y="219.6144578313253" type="line"/>
      <point x="47.204819277108435" y="143.25301204819277" type="line"/>
      <point x="364.3253012048193" y="143.25301204819277" type="line"/>
    </contour>
    <contour>
      <point x="364.3253012048193" y="229.87951807228916" type="line"/>
      <point x="131.0120481927711" y="229.87951807228916" type="line"/>
      <point x="131.0120481927711" y="202.24096385542168" type="line"/>
      <point x="390.72289156626505" y="581.2048192771084" type="line"/>
      <point x="364.3253012048193" y="581.2048192771084" type="line"/>
    </contour>
  </outline>
</glyph>
<glyph name="colon" format="2">
  <advance width="237.3012048192771"/>
  <unicode hex="003A"/>
  <outline>
    <contour>
      <point x="58.915662650602414" y="324.9036144578313" type="line"/>
      <point x="178.3855421686747" y="324.9036144578313" type="line"/>
      <point x="178.3855421686747" y="437.5542168674699" type="line"/>
      <point x="58.915662650602414" y="437.5542168674699" type="line"/>
    </contour>
    <contour>
      <point x="58.915662650602414" y="0.0" type="line"/>
      <point x="178.3855421686747" y="0.0" type="line"/>
      <point x="178.3855421686747" y="113.36144578313252" type="line"/>
      <point x="58.915662650602414" y="113.36144578313252" type="line"/>
    </contour>
  </outline>
</glyph>
<glyph name="equal" format="2">
  <advance width="600.0"/>
  <unicode hex="003D"/>
  <outline>
    <contour>
      <point x="56.0" y="349.93975903614455" type="line"/>
      <point x="544.0" y="349.93975903614455" type="line"/>
      <point x="544.0" y="423.7710843373494" type="line"/>
      <point x="56.0" y="423.7710843373494" type="line"/>
    </contour>
    <contour>
      <point x="56.0" y="150.93975903614458" type="line"/>
      <point x="544.0" y="150.93975903614458" type="line"/>
      <point x="544.0" y="224.06024096385542" type="line"/>
      <point x="56.0" y="224.06024096385542" type="line"/>
    </contour>
  </outline>
</glyph>
<glyph name="at" format="2">
  <advance width="947.9759036144578"/>
  <unicode hex="0040"/>
  <outline>
    <contour>
      <point x="485.421686746988" y="-164.13253012048193" type="curve" smooth="yes"/>
      <point x="604.5783132530121" y="-164.13253012048193"/>
      <point x="706.7349397590361" y="-128.10843373493975"/>
      <point x="771.0240963855422" y="-64.06024096385542" type="curve"/>
      <point x="734.7831325301205" y="-7.891566265060241" type="line"/>
      <point x="676.6506024096385" y="-65.93975903614458"/>
      <point x="589.4698795180723" y="-98.12048192771084"/>
      <point x="485.421686746988" y="-98.12048192771084" type="curve" smooth="yes"/>
      <point x="268.9277108433735" y="-98.12048192771084"/>
      <point x="131.74698795180723" y="40.506024096385545"/>
      <point x="131.74698795180723" y="270.6024096385542" type="curve" smooth="yes"/>
      <point x="131.74698795180723" y="498.7831325301205"/>
      <point x="278.50602409638554" y="648.4096385542168"/>
      <point x="499.3975903614458" y="648.4096385542168" type="curve" smooth="yes"/>
      <point x="696.4216867469879" y="648.4096385542168"/>
      <point x="823.4939759036145" y="530.4698795180723"/>
      <point x="823.4939759036145" y="343.1566265060241" type="curve" smooth="yes"/>
      <point x="823.4939759036145" y="210.63855421686748"/>
      <point x="774.4457831325301" y="122.3012048192771"/>
      <point x="703.0843373493976" y="122.3012048192771" type="curve" smooth="yes"/>
      <point x="664.9036144578313" y="122.3012048192771"/>
      <point x="646.4578313253012" y="142.74698795180723"/>
      <point x="646.4578313253012" y="186.48192771084337" type="curve" smooth="yes"/>
      <point x="646.4578313253012" y="199.90361445783134"/>
      <point x="648.1686746987951" y="216.74698795180723"/>
      <point x="651.8795180722891" y="236.72289156626505" type="curve" smooth="yes"/>
      <point x="695.3253012048193" y="487.5542168674699" type="line"/>
      <point x="617.0722891566265" y="487.5542168674699" type="line"/>
      <point x="600.3614457831326" y="393.26506024096386" type="line"/>
      <point x="614.4698795180723" y="393.26506024096386" type="line"/>
      <point x="599.6265060240964" y="460.10843373493975"/>
      <point x="552.4698795180723" y="496.9759036144578"/>
      <point x="480.6024096385542" y="496.9759036144578" type="curve" smooth="yes"/>
      <point x="356.6024096385542" y="496.9759036144578"/>
      <point x="265.4457831325301" y="389.6867469879518"/>
      <point x="265.4457831325301" y="243.10843373493975" type="curve" smooth="yes"/>
      <point x="265.4457831325301" y="128.55421686746988"/>
      <point x="325.578313253012" y="59.0"/>
      <point x="430.5542168674699" y="59.0" type="curve" smooth="yes"/>
      <point x="500.2409638554217" y="59.0"/>
      <point x="565.5301204819277" y="103.26506024096386"/>
      <point x="599.8192771084338" y="188.19277108433735" type="curve"/>
      <point x="575.4698795180723" y="186.57831325301206" type="line"/>
      <point x="572.843373493976" y="107.1566265060241"/>
      <point x="618.1084337349398" y="59.0"/>
      <point x="697.9518072289156" y="59.0" type="curve" smooth="yes"/>
      <point x="813.0843373493976" y="59.0"/>
      <point x="890.2168674698795" y="169.86746987951807"/>
      <point x="890.2168674698795" y="343.1566265060241" type="curve" smooth="yes"/>
      <point x="890.2168674698795" y="566.1325301204819"/>
      <point x="733.5060240963855" y="714.4216867469879"/>
      <point x="500.3975903614458" y="714.4216867469879" type="curve" smooth="yes"/>
      <point x="237.3132530120482" y="714.4216867469879"/>
      <point x="57.75903614457832" y="535.4216867469879"/>
      <point x="57.75903614457832" y="270.6024096385542" type="curve" smooth="yes"/>
      <point x="57.75903614457832" y="6.710843373493976"/>
      <point x="229.57831325301206" y="-164.13253012048193"/>
    </contour>
    <contour>
      <point x="443.6385542168675" y="126.43373493975903" type="curve" smooth="yes"/>
      <point x="382.433734939759" y="126.43373493975903"/>
      <point x="347.5421686746988" y="167.6144578313253"/>
      <point x="347.5421686746988" y="243.81927710843374" type="curve" smooth="yes"/>
      <point x="347.5421686746988" y="351.7590361445783"/>
      <point x="408.6144578313253" y="428.8313253012048"/>
      <point x="491.9759036144578" y="428.8313253012048" type="curve" smooth="yes"/>
      <point x="556.7590361445783" y="428.8313253012048"/>
      <point x="586.6506024096385" y="393.51807228915663"/>
      <point x="586.6506024096385" y="323.4457831325301" type="curve" smooth="yes"/>
      <point x="586.6506024096385" y="208.0843373493976"/>
      <point x="526.5783132530121" y="126.43373493975903"/>
    </contour>
  </outline>
</glyph>
<glyph name="F" format="2">
  <advance width="554.4819277108434"/>
  <unicode hex="0046"/>
  <anchor x="297.9759036144578" y="0.0" name="bottom"/>
  <anchor x="300.10843373493975" y="705.0" name="top"/>
  <outline>
    <contour>
      <point x="82.49397590361446" y="0.0" type="line"/>
      <point x="185.6265060240964" y="0.0" type="line"/>
      <point x="185.6265060240964" y="312.4096385542169" type="line"/>
      <point x="509.1927710843373" y="312.4096385542169" type="line"/>
      <point x="509.1927710843373" y="396.1927710843373" type="line"/>
      <point x="185.6265060240964" y="396.1927710843373" type="line"/>
      <point x="185.6265060240964" y="621.2168674698795" type="line"/>
      <point x="529.9036144578313" y="621.2168674698795" type="line"/>
      <point x="529.9036144578313" y="705.0" type="line"/>
      <point x="82.49397590361446" y="705.0" type="line"/>
    </contour>
  </outline>
</glyph>
<glyph name="H" format="2">
  <advance width="766.6385542168674"/>
  <unicode hex="0048"/>
  <anchor x="383.8192771084337" y="0.0" name="bottom"/>
  <anchor x="383.8192771084337" y="556.6626506024096" name="center"/>
  <anchor x="382.8192771084337" y="705.0" name="top"/>
  <anchor x="24.156626506024097" y="705.0" name="topleft"/>
  <outline>
    <contour>
      <point x="82.49397590361446" y="0.0" type="line"/>
      <point x="185.6265060240964" y="0.0" type="line"/>
      <point x="185.6265060240964" y="313.8313253012048" type="line"/>
      <point x="581.0120481927711" y="313.8313253012048" type="line"/>
      <point x="581.0120481927711" y="0.0" type="line"/>
      <point x="684.144578313253" y="0.0" type="line"/>
      <point x="684.144578313253" y="705.0" type="line"/>
      <point x="581.0120481927711" y="705.0" type="line"/>
      <point x="581.0120481927711" y="401.1686746987952" type="line"/>
      <point x="185.6265060240964" y="401.1686746987952" type="line"/>
      <point x="185.6265060240964" y="705.0" type="line"/>
      <point x="82.49397590361446" y="705.0" type="line"/>
    </contour>
  </outline>
</glyph>
<glyph name="L" format="2">
  <advance width="551.8795180722891"/>
  <unicode hex="004C"/>
  <anchor x="308.5542168674699" y="0.0" name="bottom"/>
  <anchor x="179.48192771084337" y="387.0" name="center"/>
  <anchor x="413.144578313253" y="391.6867469879518" name="dot"/>
  <anchor x="134.06024096385542" y="705.0" name="top"/>
  <anchor x="296.2530120481928" y="705.0" name="topright"/>
  <outline>
    <contour>
      <point x="82.49397590361446" y="0.0" type="line"/>
      <point x="534.6144578313254" y="0.0" type="line"/>
      <point x="534.6144578313254" y="88.75903614457832" type="line"/>
      <point x="185.6265060240964" y="88.75903614457832" type="line"/>
      <point x="185.6265060240964" y="705.0" type="line"/>
      <point x="82.49397590361446" y="705.0" type="line"/>
    </contour>
  </outline>
</glyph>
<glyph name="M" format="2">
  <advance width="861.0602409638554"/>
  <unicode hex="004D"/>
  <anchor x="431.2409638554217" y="0.0" name="bottom"/>
  <anchor x="431.2409638554217" y="705.0" name="top"/>
  <outline>
    <contour>
      <point x="84.49397590361446" y="0.0" type="line"/>
      <point x="178.2289156626506" y="0.0" type="line"/>
      <point x="178.2289156626506" y="559.3734939759036" type="line"/>
      <point x="153.93975903614458" y="559.3734939759036" type="line"/>
      <point x="399.6024096385542" y="107.86746987951807" type="line"/>
      <point x="463.03614457831327" y="107.86746987951807" type="line"/>
      <point x="706.1204819277109" y="558.3734939759036" type="line"/>
      <point x="683.5421686746988" y="558.3734939759036" type="line"/>
      <point x="683.5421686746988" y="0.0" type="line"/>
      <point x="777.277108433735" y="0.0" type="line"/>
      <point x="777.277108433735" y="705.0" type="line"/>
      <point x="692.2289156626506" y="705.0" type="line"/>
      <point x="416.8192771084337" y="188.8433734939759" type="line"/>
      <point x="447.66265060240966" y="188.8433734939759" type="line"/>
      <point x="170.96385542168673" y="705.0" type="line"/>
      <point x="84.49397590361446" y="705.0" type="line"/>
    </contour>
  </outline>
</glyph>
<glyph name="N" format="2">
  <advance width="743.3734939759036"/>
  <unicode hex="004E"/>
  <anchor x="371.6867469879518" y="0.0" name="bottom"/>
  <anchor x="371.6867469879518" y="705.0" name="top"/>
  <outline>
    <contour>
      <point x="82.49397590361446" y="0.0" type="line"/>
      <point x="178.36144578313252" y="0.0" type="line"/>
      <point x="178.36144578313252" y="566.3253012048193" type="line"/>
      <point x="154.51807228915663" y="566.3253012048193" type="line"/>
      <point x="583.5180722891566" y="0.0" type="line"/>
      <point x="660.8795180722891" y="0.0" type="line"/>
      <point x="660.8795180722891" y="705.0" type="line"/>
      <point x="565.0120481927711" y="705.0" type="line"/>
      <point x="565.0120481927711" y="139.3855421686747" type="line"/>
      <point x="589.855421686747" y="139.3855421686747" type="line"/>
      <point x="160.85542168674698" y="705.0" type="line"/>
      <point x="82.49397590361446" y="705.0" type="line"/>
    </contour>
  </outline>
</glyph>
<glyph name="U" format="2">
  <advance width="732.7951807228916"/>
  <unicode hex="0055"/>
  <anchor x="367.10843373493975" y="0.0" name="bottom"/>
  <anchor x="424.10843373493975" y="0.0" name="ogonek"/>
  <anchor x="367.10843373493975" y="705.0" name="top"/>
  <anchor x="577.3373493975904" y="705.0" name="topright"/>
  <outline>
    <contour>
      <point x="367.10843373493975" y="-9.421686746987952" type="curve" smooth="yes"/>
      <point x="555.9036144578313" y="-9.421686746987952"/>
      <point x="655.3012048192771" y="91.42168674698794"/>
      <point x="655.3012048192771" y="283.7951807228916" type="curve" smooth="yes"/>
      <point x="655.3012048192771" y="705.0" type="line"/>
      <point x="552.8795180722891" y="705.0" type="line"/>
      <point x="552.8795180722891" y="286.2409638554217" type="line" smooth="yes"/>
      <point x="552.8795180722891" y="148.5421686746988"/>
      <point x="489.3855421686747" y="80.62650602409639"/>
      <point x="367.10843373493975" y="80.62650602409639" type="curve" smooth="yes"/>
      <point x="244.8313253012048" y="80.62650602409639"/>
      <point x="180.6265060240964" y="148.5421686746988"/>
      <point x="180.6265060240964" y="286.2409638554217" type="curve" smooth="yes"/>
      <point x="180.6265060240964" y="705.0" type="line"/>
      <point x="77.49397590361446" y="705.0" type="line"/>
      <point x="77.49397590361446" y="283.7951807228916" type="line" smooth="yes"/>
      <point x="77.49397590361446" y="91.42168674698794"/>
      <point x="178.3132530120482" y="-9.421686746987952"/>
    </contour>
  </outline>
</glyph>
<glyph name="X" format="2">
  <advance width="660.144578313253"/>
  <unicode hex="0058"/>
  <anchor x="330.9277108433735" y="0.0" name="bottom"/>
  <anchor x="330.2168674698795" y="705.0" name="top"/>
  <outline>
    <contour>
      <point x="2.674698795180724" y="0.0" type="line"/>
      <point x="124.75903614457832" y="0.0" type="line"/>
      <point x="348.7469879518072" y="307.87951807228916" type="line"/>
      <point x="311.3975903614458" y="307.87951807228916" type="line"/>
      <point x="536.0963855421687" y="0.0" type="line"/>
      <point x="657.4698795180723" y="0.0" type="line"/>
      <point x="373.6746987951807" y="380.50602409638554" type="line"/>
      <point x="373.6746987951807" y="338.51807228915663" type="line"/>
      <point x="646.7349397590361" y="705.0" type="line"/>
      <point x="525.6506024096385" y="705.0" type="line"/>
      <point x="314.5542168674699" y="413.30120481927713" type="line"/>
      <point x="347.1686746987952" y="413.30120481927713" type="line"/>
      <point x="134.49397590361446" y="705.0" type="line"/>
      <point x="14.120481927710845" y="705.0" type="line"/>
      <point x="287.1807228915663" y="338.51807228915663" type="line"/>
      <point x="287.1807228915663" y="380.50602409638554" type="line"/>
    </contour>
  </outline>
</glyph>
<glyph name="Y" format="2">
  <advance width="606.144578313253"/>
  <unicode hex="0059"/>
  <anchor x="303.2831325301205" y="0.0" name="bottom"/>
  <anchor x="302.9277108433735" y="705.0" name="top"/>
  <anchor x="17.0" y="705.0" name="topleft"/>
  <outline>
    <contour>
      <point x="251.36144578313252" y="0.0" type="line"/>
      <point x="354.49397590361446" y="0.0" type="line"/>
      <point x="354.49397590361446" y="364.1566265060241" type="line"/>
      <point x="333.12048192771084" y="298.144578313253" type="line"/>
      <point x="624.2048192771084" y="705.0" type="line"/>
      <point x="508.96385542168673" y="705.0" type="line"/>
      <point x="292.66265060240966" y="403.5421686746988" type="line"/>
      <point x="316.90361445783134" y="403.5421686746988" type="line"/>
      <point x="101.3132530120482" y="705.0" type="line"/>
      <point x="-18.771084337349397" y="705.0" type="line"/>
      <point x="273.73493975903614" y="298.144578313253" type="line"/>
      <point x="251.36144578313252" y="364.1566265060241" type="line"/>
    </contour>
  </outline>
</glyph>
<glyph name="bracketleft" format="2">
  <advance width="332.89156626506025"/>
  <unicode hex="005B"/>
  <outline>
    <contour>
      <point x="107.73493975903614" y="-180.0" type="line"/>
      <point x="323.2048192771084" y="-180.0" type="line"/>
      <point x="323.2048192771084" y="-102.48192771084338" type="line"/>
      <point x="208.73493975903614" y="-102.48192771084338" type="line"/>
      <point x="208.73493975903614" y="627.4819277108434" type="line"/>
      <point x="323.2048192771084" y="627.4819277108434" type="line"/>
      <point x="323.2048192771084" y="705.0" type="line"/>
      <point x="107.73493975903614" y="705.0" type="line"/>
    </contour>
  </outline>
</glyph>
<glyph name="backslash" format="2">
  <advance width="296.51807228915663"/>
  <unicode hex="005C"/>
  <outline>
    <contour>
      <point x="238.13253012048193" y="-66.37349397590361" type="line"/>
      <point x="315.93975903614455" y="-43.28915662650603" type="line"/>
      <point x="58.3855421686747" y="755.3734939759036" type="line"/>
      <point x="-19.42168674698795" y="732.289156626506" type="line"/>
    </contour>
  </outline>
</glyph>
<glyph name="bracketright" format="2">
  <advance width="332.89156626506025"/>
  <unicode hex="005D"/>
  <outline>
    <contour>
      <point x="9.686746987951807" y="-180.0" type="line"/>
      <point x="225.1566265060241" y="-180.0" type="line"/>
      <point x="225.1566265060241" y="705.0" type="line"/>
      <point x="9.686746987951807" y="705.0" type="line"/>
      <point x="9.686746987951807" y="627.4819277108434" type="line"/>
      <point x="124.1566265060241" y="627.4819277108434" type="line"/>
      <point x="124.1566265060241" y="-102.48192771084338" type="line"/>
      <point x="9.686746987951807" y="-102.48192771084338" type="line"/>
    </contour>
  </outline>
</glyph>
<glyph name="asciicircum" format="2">
  <advance width="600.0"/>
  <unicode hex="005E"/>
  <outline>
    <contour>
      <point x="47.445783132530124" y="140.0" type="line"/>
      <point x="127.83132530120481" y="140.0" type="line"/>
      <point x="325.2168674698795" y="592.6024096385543" type="line"/>
      <point x="275.49397590361446" y="592.6024096385543" type="line"/>
      <point x="472.1686746987952" y="140.0" type="line"/>
      <point x="552.5542168674699" y="140.0" type="line"/>
      <point x="338.6144578313253" y="628.0" type="line"/>
      <point x="261.3855421686747" y="628.0" type="line"/>
    </contour>
  </outline>
</glyph>
<glyph name="a" format="2">
  <advance width="537.4578313253012"/>
  <unicode hex="0061"/>
  <anchor x="271.2409638554217" y="0.0" name="bottom"/>
  <anchor x="444.50602409638554" y="0.0" name="ogonek"/>
  <anchor x="274.95180722891564" y="484.0" name="top"/>
  <outline>
    <contour>
      <point x="225.02409638554218" y="-9.421686746987952" type="curve" smooth="yes"/>
      <point x="306.1807228915663" y="-9.421686746987952"/>
      <point x="364.7831325301205" y="32.8012048192771"/>
      <point x="382.2289156626506" y="100.04819277108435" type="curve"/>
      <point x="374.3614457831325" y="100.04819277108435" type="line"/>
      <point x="374.3614457831325" y="0.0" type="line"/>
      <point x="469.3855421686747" y="0.0" type="line"/>
      <point x="469.3855421686747" y="262.9156626506024" type="line" smooth="yes"/>
      <point x="469.3855421686747" y="387.421686746988"/>
      <point x="406.0120481927711" y="446.9759036144578"/>
      <point x="274.33132530120486" y="446.9759036144578" type="curve" smooth="yes"/>
      <point x="204.06626506024097" y="446.9759036144578"/>
      <point x="121.56024096385542" y="425.62048192771084"/>
      <point x="70.20481927710844" y="390.3975903614458" type="curve"/>
      <point x="99.09036144578313" y="321.9879518072289" type="line"/>
      <point x="155.73493975903617" y="357.078313253012"/>
      <point x="210.06626506024094" y="372.078313253012"/>
      <point x="268.86746987951807" y="372.078313253012" type="curve" smooth="yes"/>
      <point x="342.3373493975904" y="372.078313253012"/>
      <point x="373.00602409638554" y="340.3855421686747"/>
      <point x="373.00602409638554" y="274.22289156626505" type="curve" smooth="yes"/>
      <point x="373.00602409638554" y="181.22289156626508" type="line" smooth="yes"/>
      <point x="373.00602409638554" y="112.63855421686748"/>
      <point x="319.3132530120482" y="60.92168674698795"/>
      <point x="245.79518072289156" y="60.92168674698795" type="curve" smooth="yes"/>
      <point x="184.36746987951807" y="60.92168674698795"/>
      <point x="148.74096385542168" y="90.74698795180723"/>
      <point x="148.74096385542168" y="134.81927710843374" type="curve" smooth="yes"/>
      <point x="148.74096385542168" y="181.53614457831324"/>
      <point x="185.92168674698797" y="198.91566265060243"/>
      <point x="325.3614457831325" y="198.91566265060243" type="curve" smooth="yes"/>
      <point x="386.49397590361446" y="198.91566265060243" type="line"/>
      <point x="386.49397590361446" y="257.3072289156627" type="line"/>
      <point x="324.49397590361446" y="257.3072289156627" type="line" smooth="yes"/>
      <point x="118.66867469879517" y="257.3072289156627"/>
      <point x="49.07228915662651" y="222.5301204819277"/>
      <point x="49.07228915662651" y="129.75301204819277" type="curve" smooth="yes"/>
      <point x="49.07228915662651" y="53.19879518072289"/>
      <point x="122.20481927710844" y="-9.421686746987952"/>
    </contour>
  </outline>
</glyph>
<glyph name="b" format="2">
  <advance width="590.7469879518072"/>
  <unicode hex="0062"/>
  <anchor x="307.86746987951807" y="0.0" name="bottom"/>
  <anchor x="309.2409638554217" y="705.0" name="top"/>
  <outline>
    <contour>
      <point x="335.18674698795184" y="-9.421686746987952" type="curve" smooth="yes"/>
      <point x="461.27710843373495" y="-9.421686746987952"/>
      <point x="548.4096385542168" y="79.71084337349399"/>
      <point x="548.4096385542168" y="219.13253012048193" type="curve" smooth="yes"/>
      <point x="548.4096385542168" y="359.19879518072287"/>
      <point x="461.63253012048193" y="446.9759036144578"/>
      <point x="335.18674698795184" y="446.9759036144578" type="curve" smooth="yes"/>
      <point x="250.29518072289156" y="446.9759036144578"/>
      <point x="183.7168674698795" y="404.9518072289157"/>
      <point x="162.36144578313252" y="343.54819277108436" type="curve"/>
      <point x="171.7831325301205" y="343.54819277108436" type="line"/>
      <point x="171.7831325301205" y="705.0" type="line"/>
      <point x="70.78313253012048" y="705.0" type="line"/>
      <point x="70.78313253012048" y="0.0" type="line"/>
      <point x="169.2951807228916" y="0.0" type="line"/>
      <point x="169.2951807228916" y="97.84939759036143" type="line"/>
      <point x="161.29518072289156" y="97.84939759036143" type="line"/>
      <point x="182.29518072289156" y="35.02409638554217"/>
      <point x="248.8734939759036" y="-9.421686746987952"/>
    </contour>
    <contour>
      <point x="308.2409638554217" y="68.67469879518073" type="curve" smooth="yes"/>
      <point x="223.210843373494" y="68.67469879518073"/>
      <point x="169.36144578313252" y="123.74698795180723"/>
      <point x="169.36144578313252" y="219.13253012048193" type="curve" smooth="yes"/>
      <point x="169.36144578313252" y="315.1626506024096"/>
      <point x="223.210843373494" y="369.23493975903614"/>
      <point x="308.2409638554217" y="369.23493975903614" type="curve" smooth="yes"/>
      <point x="393.2048192771084" y="369.23493975903614"/>
      <point x="447.12048192771084" y="315.1626506024096"/>
      <point x="447.12048192771084" y="219.13253012048193" type="curve" smooth="yes"/>
      <point x="447.12048192771084" y="123.74698795180723"/>
      <point x="393.2048192771084" y="68.67469879518073"/>
    </contour>
  </outline>
</glyph>
<glyph name="c" format="2">
  <advance width="467.0843373493976"/>
  <unicode hex="0063"/>
  <anchor x="280.10843373493975" y="0.0" name="bottom"/>
  <anchor x="280.10843373493975" y="484.0" name="top"/>
  <outline>
    <contour>
      <point x="286.43975903614455" y="-9.421686746987952" type="curve" smooth="yes"/>
      <point x="344.57228915662654" y="-9.421686746987952"/>
      <point x="409.4156626506024" y="11.44578313253012"/>
      <point x="450.2590361445783" y="44.825301204819276" type="curve"/>
      <point x="419.95180722891564" y="116.21084337349397" type="line"/>
      <point x="381.9277108433735" y="83.67469879518072"/>
      <point x="333.70481927710847" y="69.03012048192771"/>
      <point x="292.54819277108436" y="69.03012048192771" type="curve" smooth="yes"/>
      <point x="198.09638554216866" y="69.03012048192771"/>
      <point x="145.75903614457832" y="126.8132530120482"/>
      <point x="145.75903614457832" y="220.710843373494" type="curve" smooth="yes"/>
      <point x="145.75903614457832" y="315.0301204819277"/>
      <point x="198.09638554216866" y="368.87951807228916"/>
      <point x="292.54819277108436" y="368.87951807228916" type="curve" smooth="yes"/>
      <point x="334.4156626506024" y="368.87951807228916"/>
      <point x="381.9277108433735" y="354.23493975903614"/>
      <point x="419.95180722891564" y="322.05421686746985" type="curve"/>
      <point x="450.2590361445783" y="393.0843373493976" type="line"/>
      <point x="409.4156626506024" y="428.1746987951807"/>
      <point x="346.50602409638554" y="446.9759036144578"/>
      <point x="286.43975903614455" y="446.9759036144578" type="curve" smooth="yes"/>
      <point x="136.0" y="446.9759036144578"/>
      <point x="42.692771084337345" y="360.1987951807229"/>
      <point x="42.692771084337345" y="221.06626506024097" type="curve" smooth="yes"/>
      <point x="42.692771084337345" y="82.22289156626506"/>
      <point x="135.35542168674698" y="-9.421686746987952"/>
    </contour>
  </outline>
</glyph>
<glyph name="d" format="2">
  <advance width="590.7469879518072"/>
  <unicode hex="0064"/>
  <anchor x="296.66265060240966" y="0.0" name="bottom"/>
  <anchor x="292.3975903614458" y="220.42168674698797" name="center"/>
  <anchor x="418.8192771084337" y="527.0421686746988" name="stroke"/>
  <anchor x="295.3734939759036" y="705.0" name="top"/>
  <anchor x="562.855421686747" y="705.0" name="topright"/>
  <outline>
    <contour>
      <point x="255.9156626506024" y="-9.421686746987952" type="curve" smooth="yes"/>
      <point x="342.16265060240966" y="-9.421686746987952"/>
      <point x="408.7409638554217" y="35.02409638554217"/>
      <point x="429.3855421686747" y="97.84939759036143" type="curve"/>
      <point x="422.09638554216866" y="97.84939759036143" type="line"/>
      <point x="422.09638554216866" y="0.0" type="line"/>
      <point x="519.9638554216867" y="0.0" type="line"/>
      <point x="519.9638554216867" y="705.0" type="line"/>
      <point x="418.96385542168673" y="705.0" type="line"/>
      <point x="418.96385542168673" y="343.54819277108436" type="line"/>
      <point x="428.6746987951807" y="343.54819277108436" type="line"/>
      <point x="406.9638554216868" y="404.9518072289157"/>
      <point x="341.4518072289157" y="446.9759036144578"/>
      <point x="255.9156626506024" y="446.9759036144578" type="curve" smooth="yes"/>
      <point x="129.1144578313253" y="446.9759036144578"/>
      <point x="42.692771084337345" y="359.19879518072287"/>
      <point x="42.692771084337345" y="219.13253012048193" type="curve" smooth="yes"/>
      <point x="42.692771084337345" y="79.71084337349399"/>
      <point x="130.1144578313253" y="-9.421686746987952"/>
    </contour>
    <contour>
      <point x="282.50602409638554" y="68.67469879518073" type="curve" smooth="yes"/>
      <point x="197.47590361445782" y="68.67469879518073"/>
      <point x="143.62650602409636" y="123.74698795180723"/>
      <point x="143.62650602409636" y="219.13253012048193" type="curve" smooth="yes"/>
      <point x="143.62650602409636" y="315.1626506024096"/>
      <point x="197.47590361445782" y="369.23493975903614"/>
      <point x="282.50602409638554" y="369.23493975903614" type="curve" smooth="yes"/>
      <point x="367.4698795180723" y="369.23493975903614"/>
      <point x="421.3855421686747" y="315.1626506024096"/>
      <point x="421.3855421686747" y="219.13253012048193" type="curve" smooth="yes"/>
      <point x="421.3855421686747" y="123.74698795180723"/>
      <point x="367.4698795180723" y="68.67469879518073"/>
    </contour>
  </outline>
</glyph>
<glyph name="e" format="2">
  <advance width="536.5060240963855"/>
  <unicode hex="0065"/>
  <anchor x="281.9759036144578" y="0.0" name="bottom"/>
  <anchor x="362.6144578313253" y="0.0" name="ogonek"/>
  <anchor x="281.9759036144578" y="484.0" name="top"/>
  <outline>
    <contour>
      <point x="301.34939759036143" y="-9.421686746987952" type="curve" smooth="yes"/>
      <point x="368.2168674698795" y="-9.421686746987952"/>
      <point x="441.48192771084337" y="11.801204819277109"/>
      <point x="487.9698795180723" y="47.53614457831325" type="curve"/>
      <point x="459.15060240963857" y="114.6566265060241" type="line"/>
      <point x="410.9939759036145" y="80.12048192771084"/>
      <point x="358.15060240963857" y="66.5421686746988"/>
      <point x="302.4819277108434" y="66.5421686746988" type="curve" smooth="yes"/>
      <point x="192.85542168674698" y="66.5421686746988"/>
      <point x="137.93975903614458" y="120.68072289156625"/>
      <point x="137.93975903614458" y="219.26506024096386" type="curve" smooth="yes"/>
      <point x="137.93975903614458" y="228.81927710843374" type="line" smooth="yes"/>
      <point x="137.93975903614458" y="317.4698795180723"/>
      <point x="189.27710843373492" y="379.0542168674699"/>
      <point x="283.4638554216868" y="379.0542168674699" type="curve" smooth="yes"/>
      <point x="368.49397590361446" y="379.0542168674699"/>
      <point x="413.2530120481928" y="328.9156626506024"/>
      <point x="413.2530120481928" y="240.10843373493975" type="curve"/>
      <point x="429.8975903614458" y="254.66265060240963" type="line"/>
      <point x="121.93975903614458" y="254.66265060240963" type="line"/>
      <point x="121.93975903614458" y="196.2710843373494" type="line"/>
      <point x="498.4578313253012" y="196.2710843373494" type="line"/>
      <point x="498.4578313253012" y="225.3132530120482" type="line" smooth="yes"/>
      <point x="498.4578313253012" y="362.93373493975906"/>
      <point x="416.2168674698795" y="446.9759036144578"/>
      <point x="280.62048192771084" y="446.9759036144578" type="curve" smooth="yes"/>
      <point x="138.28915662650604" y="446.9759036144578"/>
      <point x="42.692771084337345" y="351.19879518072287"/>
      <point x="42.692771084337345" y="218.8433734939759" type="curve" smooth="yes"/>
      <point x="42.692771084337345" y="79.42168674698794"/>
      <point x="139.57831325301206" y="-9.421686746987952"/>
    </contour>
  </outline>
</glyph>
<glyph name="f" format="2">
  <advance width="347.2289156626506"/>
  <unicode hex="0066"/>
  <anchor x="150.87951807228916" y="0.0" name="bottom"/>
  <anchor x="150.87951807228916" y="595.0" name="top"/>
  <outline>
    <contour>
      <point x="100.02409638554217" y="0.0" type="line"/>
      <point x="201.02409638554218" y="0.0" type="line"/>
      <point x="201.02409638554218" y="360.3253012048193" type="line"/>
      <point x="337.7831325301205" y="360.3253012048193" type="line"/>
      <point x="337.7831325301205" y="437.5542168674699" type="line"/>
      <point x="186.69277108433732" y="437.5542168674699" type="line"/>
      <point x="201.02409638554218" y="424.13253012048193" type="line"/>
      <point x="201.02409638554218" y="505.9578313253012" type="line" smooth="yes"/>
      <point x="201.02409638554218" y="586.1204819277109"/>
      <point x="233.6265060240964" y="624.1024096385543"/>
      <point x="314.7831325301205" y="630.0361445783133" type="curve" smooth="yes"/>
      <point x="360.7831325301205" y="633.0361445783133" type="line"/>
      <point x="353.65060240963857" y="709.1325301204819" type="line"/>
      <point x="309.855421686747" y="706.4216867469879" type="line" smooth="yes"/>
      <point x="167.3313253012048" y="698.0"/>
      <point x="100.02409638554217" y="631.0240963855422"/>
      <point x="100.02409638554217" y="493.51807228915663" type="curve" smooth="yes"/>
      <point x="100.02409638554217" y="418.0240963855422" type="line"/>
      <point x="122.81927710843374" y="437.5542168674699" type="line"/>
      <point x="5.156626506024097" y="437.5542168674699" type="line"/>
      <point x="5.156626506024097" y="360.3253012048193" type="line"/>
      <point x="100.02409638554217" y="360.3253012048193" type="line"/>
    </contour>
  </outline>
</glyph>
<glyph name="g" format="2">
  <advance width="594.1686746987951"/>
  <unicode hex="0067"/>
  <anchor x="297.95180722891564" y="484.0" name="top"/>
  <outline>
    <contour>
      <point x="291.13253012048193" y="-189.42168674698794" type="curve" smooth="yes"/>
      <point x="442.45783132530124" y="-189.42168674698794"/>
      <point x="523.3855421686746" y="-112.02409638554217"/>
      <point x="523.3855421686746" y="41.19277108433735" type="curve" smooth="yes"/>
      <point x="523.3855421686746" y="437.5542168674699" type="line"/>
      <point x="425.51807228915663" y="437.5542168674699" type="line"/>
      <point x="425.51807228915663" y="343.83734939759034" type="line"/>
      <point x="432.09638554216866" y="343.83734939759034" type="line"/>
      <point x="410.0301204819277" y="405.9518072289157"/>
      <point x="343.51807228915663" y="446.9759036144578"/>
      <point x="258.2710843373494" y="446.9759036144578" type="curve" smooth="yes"/>
      <point x="130.1144578313253" y="446.9759036144578"/>
      <point x="42.692771084337345" y="361.55421686746985"/>
      <point x="42.692771084337345" y="230.19879518072287" type="curve" smooth="yes"/>
      <point x="42.692771084337345" y="98.8433734939759"/>
      <point x="130.1144578313253" y="11.710843373493976"/>
      <point x="258.2710843373494" y="11.710843373493976" type="curve" smooth="yes"/>
      <point x="343.16265060240966" y="11.710843373493976"/>
      <point x="411.09638554216866" y="54.8012048192771"/>
      <point x="432.8072289156626" y="116.91566265060241" type="curve"/>
      <point x="424.8072289156627" y="116.91566265060241" type="line"/>
      <point x="424.8072289156627" y="28.50602409638554" type="line" smooth="yes"/>
      <point x="424.8072289156627" y="-63.27710843373494"/>
      <point x="377.49397590361446" y="-110.6144578313253"/>
      <point x="284.6686746987952" y="-110.6144578313253" type="curve" smooth="yes"/>
      <point x="216.13253012048193" y="-110.6144578313253"/>
      <point x="156.04819277108436" y="-92.90361445783132"/>
      <point x="99.09036144578313" y="-53.72289156626506" type="curve"/>
      <point x="67.71686746987952" y="-125.75301204819277" type="line"/>
      <point x="128.69277108433735" y="-168.90963855421685"/>
      <point x="205.5120481927711" y="-189.42168674698794"/>
    </contour>
    <contour>
      <point x="284.2168674698795" y="89.09638554216866" type="curve" smooth="yes"/>
      <point x="196.47590361445782" y="89.09638554216866"/>
      <point x="143.62650602409636" y="143.59036144578315"/>
      <point x="143.62650602409636" y="230.19879518072287" type="curve" smooth="yes"/>
      <point x="143.62650602409636" y="316.4518072289157"/>
      <point x="196.47590361445782" y="369.5903614457832"/>
      <point x="284.2168674698795" y="369.5903614457832" type="curve" smooth="yes"/>
      <point x="371.9578313253012" y="369.5903614457832"/>
      <point x="424.8072289156626" y="316.4518072289157"/>
      <point x="424.8072289156626" y="230.19879518072287" type="curve" smooth="yes"/>
      <point x="424.8072289156626" y="143.59036144578315"/>
      <point x="371.9578313253012" y="89.09638554216866"/>
    </contour>
  </outline>
</glyph>
<glyph name="h" format="2">
  <advance width="575.7469879518072"/>
  <unicode hex="0068"/>
  <anchor x="289.0843373493976" y="0.0" name="bottom"/>
  <anchor x="289.0843373493976" y="222.4879518072289" name="center"/>
  <anchor x="274.3734939759036" y="316.644578313253" name="dot"/>
  <anchor x="171.9277108433735" y="585.6867469879518" name="stroke"/>
  <anchor x="289.3734939759036" y="705.0" name="top"/>
  <anchor x="205.25301204819277" y="705.0" name="topright"/>
  <outline>
    <contour>
      <point x="70.78313253012048" y="0.0" type="line"/>
      <point x="171.7831325301205" y="0.0" type="line"/>
      <point x="171.7831325301205" y="231.5120481927711" type="line" smooth="yes"/>
      <point x="171.7831325301205" y="312.8975903614458"/>
      <point x="224.5" y="366.39156626506025"/>
      <point x="306.2409638554217" y="366.39156626506025" type="curve" smooth="yes"/>
      <point x="375.2048192771084" y="366.39156626506025"/>
      <point x="406.67469879518075" y="331.9879518072289"/>
      <point x="406.67469879518075" y="250.82530120481925" type="curve" smooth="yes"/>
      <point x="406.67469879518075" y="0.0" type="line"/>
      <point x="507.6746987951807" y="0.0" type="line"/>
      <point x="507.6746987951807" y="257.0240963855422" type="line" smooth="yes"/>
      <point x="507.6746987951807" y="384.77710843373495"/>
      <point x="451.09638554216866" y="446.9759036144578"/>
      <point x="334.6746987951807" y="446.9759036144578" type="curve" smooth="yes"/>
      <point x="252.93975903614458" y="446.9759036144578"/>
      <point x="187.49397590361446" y="407.53012048192767"/>
      <point x="159.36144578313252" y="338.34939759036143" type="curve"/>
      <point x="171.7831325301205" y="338.34939759036143" type="line"/>
      <point x="171.7831325301205" y="705.0" type="line"/>
      <point x="70.78313253012048" y="705.0" type="line"/>
    </contour>
  </outline>
</glyph>
<glyph name="i" format="2">
  <advance width="242.56626506024097"/>
  <unicode hex="0069"/>
  <anchor x="120.63855421686748" y="0.0" name="bottom"/>
  <anchor x="153.3012048192771" y="0.0" name="ogonek"/>
  <outline>
    <contour>
      <point x="61.915662650602414" y="551.2289156626506" type="line"/>
      <point x="179.93975903614458" y="551.2289156626506" type="line"/>
      <point x="179.93975903614458" y="656.1686746987951" type="line"/>
      <point x="61.915662650602414" y="656.1686746987951" type="line"/>
    </contour>
    <contour>
      <point x="70.78313253012048" y="0.0" type="line"/>
      <point x="171.7831325301205" y="0.0" type="line"/>
      <point x="171.7831325301205" y="437.5542168674699" type="line"/>
      <point x="70.78313253012048" y="437.5542168674699" type="line"/>
    </contour>
  </outline>
</glyph>
<glyph name="m" format="2">
  <advance width="865.722891566265"/>
  <unicode hex="006D"/>
  <anchor x="434.2168674698795" y="0.0" name="bottom"/>
  <anchor x="434.2168674698795" y="484.0" name="top"/>
  <outline>
    <contour>
      <point x="72.78313253012048" y="0.0" type="line"/>
      <point x="173.7831325301205" y="0.0" type="line"/>
      <point x="173.7831325301205" y="230.09036144578315" type="line" smooth="yes"/>
      <point x="173.7831325301205" y="313.2530120481928"/>
      <point x="219.56626506024097" y="366.39156626506025"/>
      <point x="293.0843373493976" y="366.39156626506025" type="curve" smooth="yes"/>
      <point x="355.53614457831327" y="366.39156626506025"/>
      <point x="383.3614457831325" y="331.9879518072289"/>
      <point x="383.3614457831325" y="250.8253012048193" type="curve" smooth="yes"/>
      <point x="383.3614457831325" y="0.0" type="line"/>
      <point x="484.3614457831325" y="0.0" type="line"/>
      <point x="484.3614457831325" y="230.09036144578315" type="line" smooth="yes"/>
      <point x="484.3614457831325" y="313.2530120481928"/>
      <point x="530.855421686747" y="366.39156626506025"/>
      <point x="603.6626506024096" y="366.39156626506025" type="curve" smooth="yes"/>
      <point x="666.8253012048193" y="366.39156626506025"/>
      <point x="694.6506024096385" y="331.9879518072289"/>
      <point x="694.6506024096385" y="250.8253012048193" type="curve" smooth="yes"/>
      <point x="694.6506024096385" y="0.0" type="line"/>
      <point x="795.6506024096385" y="0.0" type="line"/>
      <point x="795.6506024096385" y="257.0240963855422" type="line" smooth="yes"/>
      <point x="795.6506024096385" y="385.13253012048193"/>
      <point x="742.0060240963855" y="446.9759036144578"/>
      <point x="633.0301204819276" y="446.9759036144578" type="curve" smooth="yes"/>
      <point x="551.4277108433735" y="446.9759036144578"/>
      <point x="488.00602409638554" y="404.01807228915663"/>
      <point x="461.0963855421687" y="336.28313253012044" type="curve"/>
      <point x="473.7409638554217" y="336.28313253012044" type="line"/>
      <point x="454.5421686746988" y="413.5301204819277"/>
      <point x="401.89759036144574" y="446.9759036144578"/>
      <point x="323.8734939759036" y="446.9759036144578" type="curve" smooth="yes"/>
      <point x="246.00602409638554" y="446.9759036144578"/>
      <point x="186.49397590361448" y="406.1746987951807"/>
      <point x="161.00602409638554" y="338.34939759036143" type="curve"/>
      <point x="171.00602409638554" y="338.34939759036143" type="line"/>
      <point x="171.00602409638554" y="437.5542168674699" type="line"/>
      <point x="72.78313253012048" y="437.5542168674699" type="line"/>
    </contour>
  </outline>
</glyph>
<glyph name="n" format="2">
  <advance width="575.7469879518072"/>
  <unicode hex="006E"/>
  <anchor x="289.0843373493976" y="0.0" name="bottom"/>
  <anchor x="289.0843373493976" y="484.0" name="top"/>
  <outline>
    <contour>
      <point x="70.78313253012048" y="0.0" type="line"/>
      <point x="171.7831325301205" y="0.0" type="line"/>
      <point x="171.7831325301205" y="231.5120481927711" type="line" smooth="yes"/>
      <point x="171.7831325301205" y="312.8975903614458"/>
      <point x="224.5" y="366.39156626506025"/>
      <point x="306.2409638554217" y="366.39156626506025" type="curve" smooth="yes"/>
      <point x="375.2048192771084" y="366.39156626506025"/>
      <point x="406.67469879518075" y="331.9879518072289"/>
      <point x="406.67469879518075" y="250.82530120481925" type="curve" smooth="yes"/>
      <point x="406.67469879518075" y="0.0" type="line"/>
      <point x="507.6746987951807" y="0.0" type="line"/>
      <point x="507.6746987951807" y="257.0240963855422" type="line" smooth="yes"/>
      <point x="507.6746987951807" y="385.421686746988"/>
      <point x="451.09638554216866" y="446.9759036144578"/>
      <point x="334.6746987951807" y="446.9759036144578" type="curve" smooth="yes"/>
      <point x="252.93975903614458" y="446.9759036144578"/>
      <point x="187.49397590361446" y="407.53012048192767"/>
      <point x="159.36144578313252" y="338.34939759036143" type="curve"/>
      <point x="169.00602409638554" y="338.34939759036143" type="line"/>
      <point x="169.00602409638554" y="437.5542168674699" type="line"/>
      <point x="70.78313253012048" y="437.5542168674699" type="line"/>
    </contour>
  </outline>
</glyph>
<glyph name="o" format="2">
  <advance width="565.0120481927711"/>
  <unicode hex="006F"/>
  <anchor x="282.50602409638554" y="0.0" name="bottom"/>
  <anchor x="282.50602409638554" y="219.13253012048193" name="center"/>
  <anchor x="341.50602409638554" y="0.0" name="ogonek"/>
  <anchor x="282.50602409638554" y="484.0" name="top"/>
  <anchor x="337.7469879518072" y="434.355421686747" name="topright"/>
  <outline>
    <contour>
      <point x="282.50602409638554" y="-9.421686746987952" type="curve" smooth="yes"/>
      <point x="427.36746987951807" y="-9.421686746987952"/>
      <point x="522.6746987951807" y="79.0"/>
      <point x="522.6746987951807" y="219.13253012048193" type="curve" smooth="yes"/>
      <point x="522.6746987951807" y="358.9096385542169"/>
      <point x="427.36746987951807" y="446.9759036144578"/>
      <point x="282.50602409638554" y="446.9759036144578" type="curve" smooth="yes"/>
      <point x="137.57831325301203" y="446.9759036144578"/>
      <point x="42.692771084337345" y="358.9096385542169"/>
      <point x="42.692771084337345" y="219.13253012048193" type="curve" smooth="yes"/>
      <point x="42.692771084337345" y="79.0"/>
      <point x="137.57831325301203" y="-9.421686746987952"/>
    </contour>
    <contour>
      <point x="282.50602409638554" y="68.67469879518073" type="curve" smooth="yes"/>
      <point x="197.47590361445782" y="68.67469879518073"/>
      <point x="143.62650602409636" y="123.74698795180723"/>
      <point x="143.62650602409636" y="219.13253012048193" type="curve" smooth="yes"/>
      <point x="143.62650602409636" y="315.1626506024096"/>
      <point x="197.47590361445782" y="369.23493975903614"/>
      <point x="282.50602409638554" y="369.23493975903614" type="curve" smooth="yes"/>
      <point x="367.4698795180723" y="369.23493975903614"/>
      <point x="421.3855421686747" y="315.1626506024096"/>
      <point x="421.3855421686747" y="219.13253012048193" type="curve" smooth="yes"/>
      <point x="421.3855421686747" y="123.74698795180723"/>
      <point x="367.4698795180723" y="68.67469879518073"/>
    </contour>
  </outline>
</glyph>
<glyph name="p" format="2">
  <advance width="590.7469879518072"/>
  <unicode hex="0070"/>
  <anchor x="294.0843373493976" y="0.0" name="bottom"/>
  <anchor x="294.0843373493976" y="484.0" name="top"/>
  <outline>
    <contour>
      <point x="70.78313253012048" y="-180.0" type="line"/>
      <point x="171.7831325301205" y="-180.0" type="line"/>
      <point x="171.7831325301205" y="95.36144578313254" type="line"/>
      <point x="162.36144578313252" y="95.36144578313254" type="line"/>
      <point x="183.7168674698795" y="32.95783132530121"/>
      <point x="250.29518072289156" y="-9.421686746987952"/>
      <point x="335.18674698795184" y="-9.421686746987952" type="curve" smooth="yes"/>
      <point x="461.63253012048193" y="-9.421686746987952"/>
      <point x="548.4096385542168" y="80.06626506024097"/>
      <point x="548.4096385542168" y="219.13253012048193" type="curve" smooth="yes"/>
      <point x="548.4096385542168" y="359.19879518072287"/>
      <point x="461.27710843373495" y="446.9759036144578"/>
      <point x="335.18674698795184" y="446.9759036144578" type="curve" smooth="yes"/>
      <point x="248.8734939759036" y="446.9759036144578"/>
      <point x="182.29518072289156" y="403.53012048192767"/>
      <point x="161.29518072289156" y="340.7710843373494" type="curve"/>
      <point x="169.2951807228916" y="340.7710843373494" type="line"/>
      <point x="169.2951807228916" y="437.5542168674699" type="line"/>
      <point x="70.78313253012048" y="437.5542168674699" type="line"/>
    </contour>
    <contour>
      <point x="308.2409638554217" y="68.67469879518073" type="curve" smooth="yes"/>
      <point x="223.210843373494" y="68.67469879518073"/>
      <point x="169.36144578313252" y="123.74698795180723"/>
      <point x="169.36144578313252" y="219.13253012048193" type="curve" smooth="yes"/>
      <point x="169.36144578313252" y="315.1626506024096"/>
      <point x="223.210843373494" y="369.23493975903614"/>
      <point x="308.2409638554217" y="369.23493975903614" type="curve" smooth="yes"/>
      <point x="393.2048192771084" y="369.23493975903614"/>
      <point x="447.12048192771084" y="315.1626506024096"/>
      <point x="447.12048192771084" y="219.13253012048193" type="curve" smooth="yes"/>
      <point x="447.12048192771084" y="123.74698795180723"/>
      <point x="393.2048192771084" y="68.67469879518073"/>
    </contour>
  </outline>
</glyph>
<glyph name="q" format="2">
  <advance width="590.7469879518072"/>
  <unicode hex="0071"/>
  <anchor x="294.7951807228916" y="0.0" name="bottom"/>
  <anchor x="294.7951807228916" y="484.0" name="top"/>
  <outline>
    <contour>
      <point x="418.96385542168673" y="-180.0" type="line"/>
      <point x="519.9638554216867" y="-180.0" type="line"/>
      <point x="519.9638554216867" y="437.5542168674699" type="line"/>
      <point x="422.09638554216866" y="437.5542168674699" type="line"/>
      <point x="422.09638554216866" y="340.7710843373494" type="line"/>
      <point x="429.3855421686747" y="340.7710843373494" type="line"/>
      <point x="408.7409638554217" y="403.53012048192767"/>
      <point x="342.16265060240966" y="446.9759036144578"/>
      <point x="255.9156626506024" y="446.9759036144578" type="curve" smooth="yes"/>
      <point x="130.1144578313253" y="446.9759036144578"/>
      <point x="42.692771084337345" y="359.19879518072287"/>
      <point x="42.692771084337345" y="219.13253012048193" type="curve" smooth="yes"/>
      <point x="42.692771084337345" y="80.06626506024097"/>
      <point x="129.1144578313253" y="-9.421686746987952"/>
      <point x="255.9156626506024" y="-9.421686746987952" type="curve" smooth="yes"/>
      <point x="341.4518072289157" y="-9.421686746987952"/>
      <point x="406.9638554216868" y="32.95783132530121"/>
      <point x="428.6746987951807" y="95.36144578313254" type="curve"/>
      <point x="418.96385542168673" y="95.36144578313254" type="line"/>
    </contour>
    <contour>
      <point x="282.50602409638554" y="68.67469879518073" type="curve" smooth="yes"/>
      <point x="197.47590361445782" y="68.67469879518073"/>
      <point x="143.62650602409636" y="123.74698795180723"/>
      <point x="143.62650602409636" y="219.13253012048193" type="curve" smooth="yes"/>
      <point x="143.62650602409636" y="315.1626506024096"/>
      <point x="197.47590361445782" y="369.23493975903614"/>
      <point x="282.50602409638554" y="369.23493975903614" type="curve" smooth="yes"/>
      <point x="367.4698795180723" y="369.23493975903614"/>
      <point x="421.3855421686747" y="315.1626506024096"/>
      <point x="421.3855421686747" y="219.13253012048193" type="curve" smooth="yes"/>
      <point x="421.3855421686747" y="123.74698795180723"/>
      <point x="367.4698795180723" y="68.67469879518073"/>
    </contour>
  </outline>
</glyph>
<glyph name="r" format="2">
  <advance width="373.2048192771084"/>
  <unicode hex="0072"/>
  <anchor x="121.63855421686748" y="0.0" name="bottom"/>
  <anchor x="220.34939759036143" y="484.0" name="top"/>
  <outline>
    <contour>
      <point x="70.78313253012048" y="0.0" type="line"/>
      <point x="173.2048192771084" y="0.0" type="line"/>
      <point x="173.2048192771084" y="225.16265060240966" type="line" smooth="yes"/>
      <point x="173.2048192771084" y="306.1686746987952"/>
      <point x="219.12048192771084" y="349.9277108433735"/>
      <point x="306.03614457831327" y="358.50602409638554" type="curve" smooth="yes"/>
      <point x="367.04819277108436" y="363.9277108433735" type="line"/>
      <point x="359.9156626506024" y="450.26506024096386" type="line"/>
      <point x="326.8313253012048" y="447.5542168674699" type="line" smooth="yes"/>
      <point x="234.96385542168673" y="440.26506024096386"/>
      <point x="179.96385542168673" y="400.71084337349396"/>
      <point x="159.36144578313252" y="324.71084337349396" type="curve"/>
      <point x="169.00602409638554" y="324.71084337349396" type="line"/>
      <point x="169.00602409638554" y="437.5542168674699" type="line"/>
      <point x="70.78313253012048" y="437.5542168674699" type="line"/>
    </contour>
  </outline>
</glyph>
<glyph name="s" format="2">
  <advance width="484.2409638554217"/>
  <unicode hex="0073"/>
  <anchor x="241.6867469879518" y="0.0" name="bottom"/>
  <anchor x="250.97590361445782" y="484.0" name="top"/>
  <outline>
    <contour>
      <point x="241.97590361445782" y="-9.421686746987952" type="curve" smooth="yes"/>
      <point x="366.54819277108436" y="-9.421686746987952"/>
      <point x="442.23493975903614" y="43.62048192771084"/>
      <point x="442.23493975903614" y="127.50602409638553" type="curve" smooth="yes"/>
      <point x="442.23493975903614" y="190.19277108433735"/>
      <point x="400.32530120481925" y="228.03614457831324"/>
      <point x="312.9036144578313" y="242.48192771084334" type="curve" smooth="yes"/>
      <point x="209.66265060240963" y="259.34939759036143" type="line" smooth="yes"/>
      <point x="168.59036144578312" y="266.3734939759036"/>
      <point x="148.63253012048193" y="285.39759036144574"/>
      <point x="148.63253012048193" y="314.0240963855422" type="curve" smooth="yes"/>
      <point x="148.63253012048193" y="349.5843373493976"/>
      <point x="181.16867469879517" y="377.3433734939759"/>
      <point x="257.01807228915663" y="377.3433734939759" type="curve" smooth="yes"/>
      <point x="306.10843373493975" y="377.3433734939759"/>
      <point x="361.7951807228916" y="361.0542168674699"/>
      <point x="402.8614457831325" y="328.09638554216866" type="curve"/>
      <point x="430.9698795180723" y="393.3734939759036" type="line"/>
      <point x="388.2831325301205" y="428.5301204819277"/>
      <point x="323.9518072289157" y="446.9759036144578"/>
      <point x="256.66265060240966" y="446.9759036144578" type="curve" smooth="yes"/>
      <point x="130.66867469879517" y="446.9759036144578"/>
      <point x="58.71686746987952" y="388.644578313253"/>
      <point x="58.71686746987952" y="309.18072289156623" type="curve" smooth="yes"/>
      <point x="58.71686746987952" y="246.9156626506024"/>
      <point x="99.98192771084338" y="206.7168674698795"/>
      <point x="181.82530120481925" y="192.56024096385542" type="curve" smooth="yes"/>
      <point x="285.06626506024094" y="175.04819277108433" type="line" smooth="yes"/>
      <point x="330.7168674698795" y="167.02409638554215"/>
      <point x="351.31927710843377" y="151.0"/>
      <point x="351.31927710843377" y="121.95180722891567" type="curve" smooth="yes"/>
      <point x="351.31927710843377" y="85.16867469879517"/>
      <point x="315.98192771084337" y="61.21084337349398"/>
      <point x="242.1987951807229" y="61.21084337349398" type="curve" smooth="yes"/>
      <point x="182.42168674698794" y="61.21084337349398"/>
      <point x="120.37951807228914" y="76.92168674698794"/>
      <point x="73.37951807228916" y="109.59036144578313" type="curve"/>
      <point x="46.33734939759036" y="43.95783132530121" type="line"/>
      <point x="91.9578313253012" y="9.44578313253012"/>
      <point x="164.86746987951807" y="-9.421686746987952"/>
    </contour>
  </outline>
</glyph>
<glyph name="t" format="2">
  <advance width="365.49397590361446"/>
  <unicode hex="0074"/>
  <anchor x="222.19277108433735" y="0.0" name="bottom"/>
  <anchor x="171.6144578313253" y="236.60240963855424" name="center"/>
  <anchor x="148.16867469879517" y="594.6686746987951" name="top"/>
  <anchor x="260.5421686746988" y="705.0" name="topright"/>
  <outline>
    <contour>
      <point x="279.1686746987952" y="-9.421686746987952" type="curve" smooth="yes"/>
      <point x="311.144578313253" y="-9.421686746987952"/>
      <point x="350.69879518072287" y="-0.4216867469879517"/>
      <point x="371.2289156626506" y="11.132530120481928" type="curve"/>
      <point x="355.1867469879518" y="85.93975903614458" type="line"/>
      <point x="335.9216867469879" y="79.93975903614458"/>
      <point x="314.69879518072287" y="74.36144578313254"/>
      <point x="294.2530120481928" y="74.36144578313254" type="curve" smooth="yes"/>
      <point x="226.04819277108433" y="74.36144578313254"/>
      <point x="198.3132530120482" y="109.98795180722891"/>
      <point x="198.3132530120482" y="179.5722891566265" type="curve" smooth="yes"/>
      <point x="198.3132530120482" y="360.3253012048193" type="line"/>
      <point x="349.49397590361446" y="360.3253012048193" type="line"/>
      <point x="349.49397590361446" y="437.5542168674699" type="line"/>
      <point x="198.3132530120482" y="437.5542168674699" type="line"/>
      <point x="198.3132530120482" y="594.6686746987951" type="line"/>
      <point x="97.3132530120482" y="594.6686746987951" type="line"/>
      <point x="97.3132530120482" y="437.5542168674699" type="line"/>
      <point x="2.4457831325301207" y="437.5542168674699" type="line"/>
      <point x="2.4457831325301207" y="360.3253012048193" type="line"/>
      <point x="97.3132530120482" y="360.3253012048193" type="line"/>
      <point x="97.3132530120482" y="172.7048192771084" type="line" smooth="yes"/>
      <point x="97.3132530120482" y="54.48795180722892"/>
      <point x="156.8433734939759" y="-9.421686746987952"/>
    </contour>
  </outline>
</glyph>
<glyph name="u" format="2">
  <advance width="569.1686746987951"/>
  <unicode hex="0075"/>
  <anchor x="284.3734939759036" y="0.0" name="bottom"/>
  <anchor x="473.50602409638554" y="0.0" name="ogonek"/>
  <anchor x="284.3734939759036" y="485.0" name="top"/>
  <anchor x="420.71084337349396" y="434.0" name="topright"/>
  <outline>
    <contour>
      <point x="246.1144578313253" y="-9.421686746987952" type="curve" smooth="yes"/>
      <point x="324.84939759036143" y="-9.421686746987952"/>
      <point x="385.0301204819277" y="31.66867469879518"/>
      <point x="411.8734939759036" y="101.9156626506024" type="curve"/>
      <point x="400.16265060240966" y="101.9156626506024" type="line"/>
      <point x="400.16265060240966" y="0.0" type="line"/>
      <point x="498.3855421686747" y="0.0" type="line"/>
      <point x="498.3855421686747" y="437.5542168674699" type="line"/>
      <point x="397.3855421686747" y="437.5542168674699" type="line"/>
      <point x="397.3855421686747" y="206.3313253012048" type="line" smooth="yes"/>
      <point x="397.3855421686747" y="125.6566265060241"/>
      <point x="345.2469879518072" y="71.16265060240963"/>
      <point x="270.9277108433735" y="71.16265060240963" type="curve" smooth="yes"/>
      <point x="201.8313253012048" y="71.16265060240963"/>
      <point x="169.0722891566265" y="105.85542168674698"/>
      <point x="169.0722891566265" y="184.8855421686747" type="curve" smooth="yes"/>
      <point x="169.0722891566265" y="437.5542168674699" type="line"/>
      <point x="68.07228915662651" y="437.5542168674699" type="line"/>
      <point x="68.07228915662651" y="181.5301204819277" type="line" smooth="yes"/>
      <point x="68.07228915662651" y="54.77710843373494"/>
      <point x="129.20481927710844" y="-9.421686746987952"/>
    </contour>
  </outline>
</glyph>
<glyph name="v" format="2">
  <advance width="520.3493975903615"/>
  <unicode hex="0076"/>
  <anchor x="261.2409638554217" y="0.0" name="bottom"/>
  <anchor x="261.2409638554217" y="484.0" name="top"/>
  <outline>
    <contour>
      <point x="216.20481927710844" y="0.0" type="line"/>
      <point x="304.144578313253" y="0.0" type="line"/>
      <point x="516.8975903614459" y="437.5542168674699" type="line"/>
      <point x="415.1626506024096" y="437.5542168674699" type="line"/>
      <point x="249.46385542168676" y="81.48795180722891" type="line"/>
      <point x="274.0843373493976" y="81.48795180722891" type="line"/>
      <point x="112.22891566265059" y="437.5542168674699" type="line"/>
      <point x="4.8734939759036155" y="437.5542168674699" type="line"/>
    </contour>
  </outline>
</glyph>
<glyph name="w" format="2">
  <advance width="846.3493975903615"/>
  <unicode hex="0077"/>
  <anchor x="423.5301204819277" y="0.0" name="bottom"/>
  <anchor x="423.5301204819277" y="484.0" name="top"/>
  <outline>
    <contour>
      <point x="204.6686746987952" y="0.0" type="line"/>
      <point x="292.4096385542168" y="0.0" type="line"/>
      <point x="445.2168674698795" y="362.28915662650604" type="line"/>
      <point x="402.710843373494" y="362.28915662650604" type="line"/>
      <point x="554.6506024096385" y="0.0" type="line"/>
      <point x="642.1024096385541" y="0.0" type="line"/>
      <point x="830.0963855421687" y="437.5542168674699" type="line"/>
      <point x="732.0722891566265" y="437.5542168674699" type="line"/>
      <point x="587.1987951807229" y="83.6867469879518" type="line"/>
      <point x="608.2650602409637" y="83.6867469879518" type="line"/>
      <point x="464.1024096385542" y="437.5542168674699" type="line"/>
      <point x="389.22289156626505" y="437.5542168674699" type="line"/>
      <point x="241.4156626506024" y="83.6867469879518" type="line"/>
      <point x="263.1265060240964" y="83.6867469879518" type="line"/>
      <point x="119.83132530120481" y="437.5542168674699" type="line"/>
      <point x="16.542168674698797" y="437.5542168674699" type="line"/>
    </contour>
  </outline>
</glyph>
<glyph name="x" format="2">
  <advance width="534.433734939759"/>
  <unicode hex="0078"/>
  <anchor x="267.9277108433735" y="0.0" name="bottom"/>
  <anchor x="267.9277108433735" y="484.0" name="top"/>
  <outline>
    <contour>
      <point x="7.963855421686748" y="0.0" type="line"/>
      <point x="126.07228915662651" y="0.0" type="line"/>
      <point x="285.0361445783132" y="182.67469879518072" type="line"/>
      <point x="249.75301204819277" y="182.67469879518072" type="line"/>
      <point x="410.1385542168675" y="0.0" type="line"/>
      <point x="529.1807228915662" y="0.0" type="line"/>
      <point x="309.7409638554217" y="245.50602409638557" type="line"/>
      <point x="307.2530120481928" y="201.84939759036143" type="line"/>
      <point x="516.7590361445783" y="437.5542168674699" type="line"/>
      <point x="399.3614457831325" y="437.5542168674699" type="line"/>
      <point x="251.33132530120483" y="268.23493975903614" type="line"/>
      <point x="286.1024096385542" y="268.23493975903614" type="line"/>
      <point x="137.42771084337346" y="437.5542168674699" type="line"/>
      <point x="19.3855421686747" y="437.5542168674699" type="line"/>
      <point x="227.33734939759034" y="202.4036144578313" type="line"/>
      <point x="229.1144578313253" y="249.5722891566265" type="line"/>
    </contour>
  </outline>
</glyph>
<glyph name="y" format="2">
  <advance width="519.6385542168674"/>
  <unicode hex="0079"/>
  <anchor x="398.72289156626505" y="0.0" name="bottom"/>
  <anchor x="260.5301204819277" y="484.0" name="top"/>
  <outline>
    <contour>
      <point x="112.07831325301204" y="-180.0" type="line"/>
      <point x="215.36746987951807" y="-180.0" type="line"/>
      <point x="517.5421686746988" y="437.5542168674699" type="line"/>
      <point x="415.45180722891564" y="437.5542168674699" type="line"/>
      <point x="249.46385542168676" y="81.48795180722891" type="line"/>
      <point x="274.0843373493976" y="81.48795180722891" type="line"/>
      <point x="111.51807228915663" y="437.5542168674699" type="line"/>
      <point x="4.16265060240964" y="437.5542168674699" type="line"/>
      <point x="219.0722891566265" y="-7.445783132530121" type="line"/>
      <point x="219.0722891566265" y="33.87951807228916" type="line"/>
    </contour>
  </outline>
</glyph>
<glyph name="z" format="2">
  <advance width="468.2168674698795"/>
  <unicode hex="007A"/>
  <anchor x="240.6867469879518" y="0.0" name="bottom"/>
  <anchor x="240.6867469879518" y="484.0" name="top"/>
  <outline>
    <contour>
      <point x="52.18072289156626" y="0.0" type="line"/>
      <point x="440.1927710843373" y="0.0" type="line"/>
      <point x="440.1927710843373" y="76.51807228915662" type="line"/>
      <point x="142.2289156626506" y="76.51807228915662" type="line"/>
      <point x="142.2289156626506" y="49.30120481927711" type="line"/>
      <point x="429.1927710843373" y="372.7228915662651" type="line"/>
      <point x="429.1927710843373" y="437.5542168674699" type="line"/>
      <point x="52.18072289156626" y="437.5542168674699" type="line"/>
      <point x="52.18072289156626" y="361.39156626506025" type="line"/>
      <point x="338.433734939759" y="361.39156626506025" type="line"/>
      <point x="338.433734939759" y="387.8975903614458" type="line"/>
      <point x="52.18072289156626" y="65.83132530120483" type="line"/>
    </contour>
  </outline>
</glyph>
<glyph name="cent" format="2">
  <advance width="600.0"/>
  <unicode hex="00A2"/>
  <outline>
    <contour>
      <point x="278.2289156626506" y="-115.0" type="line"/>
      <point x="360.87951807228916" y="-115.0" type="line"/>
      <point x="360.87951807228916" y="13.397590361445783" type="line"/>
      <point x="334.2409638554217" y="-8.421686746987952" type="line"/>
      <point x="401.83734939759034" y="-7.355421686746988"/>
      <point x="465.7048192771084" y="14.578313253012048"/>
      <point x="507.2590361445783" y="48.37951807228916" type="curve"/>
      <point x="478.01807228915663" y="119.05421686746988" type="line"/>
      <point x="438.8614457831325" y="87.80722891566265"/>
      <point x="388.5722891566265" y="71.45180722891565"/>
      <point x="339.83734939759034" y="71.45180722891565" type="curve" smooth="yes"/>
      <point x="244.60843373493975" y="71.45180722891565"/>
      <point x="190.33734939759034" y="129.6566265060241"/>
      <point x="190.33734939759034" y="220.4879518072289" type="curve" smooth="yes"/>
      <point x="190.33734939759034" y="310.3192771084337"/>
      <point x="245.25301204819274" y="367.1686746987952"/>
      <point x="340.1927710843373" y="367.1686746987952" type="curve" smooth="yes"/>
      <point x="389.28313253012044" y="367.1686746987952"/>
      <point x="438.50602409638554" y="350.8132530120482"/>
      <point x="478.01807228915663" y="319.9216867469879" type="curve"/>
      <point x="507.2590361445783" y="390.2409638554217" type="line"/>
      <point x="465.7048192771084" y="425.04216867469876"/>
      <point x="404.2831325301205" y="443.9096385542169"/>
      <point x="336.2409638554217" y="444.5542168674699" type="curve"/>
      <point x="360.87951807228916" y="422.15662650602405" type="line"/>
      <point x="360.87951807228916" y="557.5542168674699" type="line"/>
      <point x="278.2289156626506" y="557.5542168674699" type="line"/>
      <point x="278.2289156626506" y="416.53614457831327" type="line"/>
      <point x="294.33734939759034" y="442.7771084337349" type="line"/>
      <point x="169.6265060240964" y="429.0240963855422"/>
      <point x="86.91566265060241" y="344.0903614457831"/>
      <point x="86.91566265060241" y="220.06626506024097" type="curve" smooth="yes"/>
      <point x="86.91566265060241" y="93.88554216867469"/>
      <point x="168.71686746987953" y="6.951807228915662"/>
      <point x="294.6265060240964" y="-6.289156626506024" type="curve"/>
      <point x="278.2289156626506" y="17.662650602409638" type="line"/>
    </contour>
  </outline>
</glyph>
<glyph name="micro" format="2">
  <advance width="600.0"/>
  <unicode hex="00B5"/>
  <outline>
    <contour>
      <point x="85.6987951807229" y="-180.0" type="line"/>
      <point x="186.6987951807229" y="-180.0" type="line"/>
      <point x="178.43373493975903" y="59.674698795180724" type="line"/>
      <point x="168.5421686746988" y="59.674698795180724" type="line"/>
      <point x="190.56626506024097" y="7.734939759036145"/>
      <point x="230.63855421686748" y="-9.421686746987952"/>
      <point x="284.421686746988" y="-9.421686746987952" type="curve" smooth="yes"/>
      <point x="348.93975903614455" y="-9.421686746987952"/>
      <point x="405.144578313253" y="32.024096385542165"/>
      <point x="423.7469879518072" y="107.49397590361446" type="curve"/>
      <point x="417.43373493975906" y="107.49397590361446" type="line"/>
      <point x="417.43373493975906" y="0.0" type="line"/>
      <point x="516.0120481927711" y="0.0" type="line"/>
      <point x="516.0120481927711" y="487.5542168674699" type="line"/>
      <point x="415.0120481927711" y="487.5542168674699" type="line"/>
      <point x="415.0120481927711" y="212.6867469879518" type="line" smooth="yes"/>
      <point x="415.0120481927711" y="128.0120481927711"/>
      <point x="362.51807228915663" y="73.51807228915662"/>
      <point x="285.26506024096386" y="73.51807228915662" type="curve" smooth="yes"/>
      <point x="217.4578313253012" y="73.51807228915662"/>
      <point x="186.6987951807229" y="109.56626506024097"/>
      <point x="186.6987951807229" y="188.10843373493975" type="curve" smooth="yes"/>
      <point x="186.6987951807229" y="487.5542168674699" type="line"/>
      <point x="85.6987951807229" y="487.5542168674699" type="line"/>
    </contour>
  </outline>
</glyph>
<glyph name="periodcentered" format="2">
  <advance width="237.3012048192771"/>
  <unicode hex="00B7"/>
  <outline>
    <contour>
      <point x="58.915662650602414" y="182.25301204819277" type="line"/>
      <point x="178.3855421686747" y="182.25301204819277" type="line"/>
      <point x="178.3855421686747" y="301.30120481927713" type="line"/>
      <point x="58.915662650602414" y="301.30120481927713" type="line"/>
    </contour>
  </outline>
</glyph>
<glyph name="questiondown" format="2">
  <advance width="450.32530120481925"/>
  <unicode hex="00BF"/>
  <outline>
    <contour>
      <point x="222.08433734939757" y="-189.42168674698794" type="curve" smooth="yes"/>
      <point x="309.43975903614455" y="-189.42168674698794"/>
      <point x="393.92771084337346" y="-161.3313253012048"/>
      <point x="448.6807228915663" y="-117.75301204819276" type="curve"/>
      <point x="412.6867469879518" y="-44.78915662650603" type="line"/>
      <point x="357.7530120481928" y="-85.74698795180723"/>
      <point x="297.95180722891564" y="-106.83734939759037"/>
      <point x="228.48192771084337" y="-106.83734939759037" type="curve" smooth="yes"/>
      <point x="157.31927710843374" y="-106.83734939759037"/>
      <point x="123.2710843373494" y="-80.07831325301206"/>
      <point x="123.2710843373494" y="-36.29518072289157" type="curve" smooth="yes"/>
      <point x="123.2710843373494" y="-3.8253012048192776"/>
      <point x="138.0722891566265" y="24.222891566265055"/>
      <point x="186.6987951807229" y="64.84939759036145" type="curve" smooth="yes"/>
      <point x="249.2590361445783" y="116.40963855421687"/>
      <point x="267.54819277108436" y="163.0120481927711"/>
      <point x="267.54819277108436" y="216.3253012048193" type="curve" smooth="yes"/>
      <point x="267.54819277108436" y="242.5" type="line"/>
      <point x="206.27108433734938" y="242.5" type="line"/>
      <point x="201.0722891566265" y="219.59036144578312" type="line" smooth="yes"/>
      <point x="193.65060240963857" y="177.25301204819277"/>
      <point x="174.71686746987953" y="145.65060240963857"/>
      <point x="112.04819277108433" y="97.37951807228916" type="curve" smooth="yes"/>
      <point x="43.1144578313253" y="44.686746987951814"/>
      <point x="21.2710843373494" y="2.4638554216867465"/>
      <point x="21.2710843373494" y="-49.37951807228915" type="curve" smooth="yes"/>
      <point x="21.2710843373494" y="-134.93373493975906"/>
      <point x="96.93373493975905" y="-189.42168674698794"/>
    </contour>
    <contour>
      <point x="177.67469879518072" y="318.50602409638554" type="line"/>
      <point x="296.144578313253" y="318.50602409638554" type="line"/>
      <point x="296.144578313253" y="437.5542168674699" type="line"/>
      <point x="177.67469879518072" y="437.5542168674699" type="line"/>
    </contour>
  </outline>
</glyph>
<glyph name="AE" format="2">
  <advance width="985.9277108433735"/>
  <unicode hex="00C6"/>
  <anchor x="487.71084337349396" y="0.0" name="bottom"/>
  <anchor x="487.421686746988" y="705.0" name="top"/>
  <outline>
    <contour>
      <point x="-25.012048192771083" y="0.0" type="line"/>
      <point x="85.25301204819277" y="0.0" type="line"/>
      <point x="203.9879518072289" y="199.89156626506025" type="line"/>
      <point x="164.3734939759036" y="172.25301204819277" type="line"/>
      <point x="552.9759036144578" y="172.25301204819277" type="line"/>
      <point x="517.3373493975904" y="202.73493975903614" type="line"/>
      <point x="560.3373493975904" y="0.0" type="line"/>
      <point x="935.2168674698795" y="0.0" type="line"/>
      <point x="935.2168674698795" y="83.78313253012048" type="line"/>
      <point x="603.7710843373494" y="83.78313253012048" type="line"/>
      <point x="642.5421686746988" y="51.98795180722891" type="line"/>
      <point x="579.9397590361446" y="343.73493975903614" type="line"/>
      <point x="556.277108433735" y="315.96385542168673" type="line"/>
      <point x="914.5060240963855" y="315.96385542168673" type="line"/>
      <point x="914.5060240963855" y="399.7469879518072" type="line"/>
      <point x="538.3253012048193" y="399.7469879518072" type="line"/>
      <point x="573.8072289156627" y="371.6867469879518" type="line"/>
      <point x="513.6265060240964" y="652.3253012048193" type="line"/>
      <point x="490.27710843373495" y="621.2168674698795" type="line"/>
      <point x="935.2168674698795" y="621.2168674698795" type="line"/>
      <point x="935.2168674698795" y="705.0" type="line"/>
      <point x="407.7831325301205" y="705.0" type="line"/>
    </contour>
    <contour>
      <point x="433.0" y="586.8674698795181" type="line"/>
      <point x="435.0" y="586.8674698795181" type="line"/>
      <point x="511.9156626506024" y="228.55421686746988" type="line"/>
      <point x="530.710843373494" y="256.03614457831327" type="line"/>
      <point x="212.80722891566265" y="256.03614457831327" type="line"/>
      <point x="221.80722891566265" y="231.10843373493975" type="line"/>
    </contour>
  </outline>
</glyph>
<glyph name="multiply" format="2">
  <advance width="600.0"/>
  <unicode hex="00D7"/>
  <outline>
    <contour>
      <point x="118.16867469879517" y="51.42168674698795" type="line"/>
      <point x="300.0" y="233.25301204819277" type="line"/>
      <point x="481.8313253012048" y="51.42168674698795" type="line"/>
      <point x="534.0" y="102.59036144578313" type="line"/>
      <point x="352.1686746987952" y="284.71084337349396" type="line"/>
      <point x="534.0" y="466.5421686746988" type="line"/>
      <point x="481.8313253012048" y="519.4216867469879" type="line"/>
      <point x="300.0" y="337.5903614457831" type="line"/>
      <point x="118.16867469879517" y="519.4216867469879" type="line"/>
      <point x="66.0" y="466.5421686746988" type="line"/>
      <point x="247.83132530120483" y="284.71084337349396" type="line"/>
      <point x="66.0" y="102.59036144578313" type="line"/>
    </contour>
  </outline>
</glyph>
<glyph name="germandbls" format="2">
  <advance width="632.1807228915662"/>
  <unicode hex="00DF"/>
  <outline>
    <contour>
      <point x="414.29518072289153" y="-9.421686746987952" type="curve" smooth="yes"/>
      <point x="531.801204819277" y="-9.421686746987952"/>
      <point x="606.1325301204819" y="44.62048192771085"/>
      <point x="606.1325301204819" y="130.99397590361446" type="curve" smooth="yes"/>
      <point x="606.1325301204819" y="198.9698795180723"/>
      <point x="567.4879518072289" y="236.23493975903617"/>
      <point x="458.33132530120486" y="262.68072289156623" type="curve" smooth="yes"/>
      <point x="381.43975903614455" y="282.1265060240964"/>
      <point x="360.8373493975904" y="301.0843373493976"/>
      <point x="360.8373493975904" y="335.13253012048193" type="curve" smooth="yes"/>
      <point x="360.8373493975904" y="359.5120481927711"/>
      <point x="372.7710843373494" y="381.66867469879514"/>
      <point x="411.9277108433735" y="428.1566265060241" type="curve" smooth="yes"/>
      <point x="463.9759036144578" y="488.6927710843374"/>
      <point x="481.421686746988" y="524.7590361445783"/>
      <point x="481.421686746988" y="574.7831325301205" type="curve" smooth="yes"/>
      <point x="481.421686746988" y="662.867469879518"/>
      <point x="414.04819277108436" y="714.4216867469879"/>
      <point x="303.5" y="714.4216867469879" type="curve" smooth="yes"/>
      <point x="155.28915662650604" y="714.4216867469879"/>
      <point x="70.78313253012048" y="627.7590361445783"/>
      <point x="70.78313253012048" y="478.78915662650604" type="curve" smooth="yes"/>
      <point x="70.78313253012048" y="0.0" type="line"/>
      <point x="171.7831325301205" y="0.0" type="line"/>
      <point x="171.7831325301205" y="489.51807228915663" type="line" smooth="yes"/>
      <point x="171.7831325301205" y="584.5"/>
      <point x="218.0301204819277" y="638.7469879518072"/>
      <point x="302.36746987951807" y="638.7469879518072" type="curve" smooth="yes"/>
      <point x="357.7710843373494" y="638.7469879518072"/>
      <point x="388.0180722891566" y="612.144578313253"/>
      <point x="388.0180722891566" y="565.7409638554217" type="curve" smooth="yes"/>
      <point x="388.0180722891566" y="528.7831325301205"/>
      <point x="373.43975903614455" y="498.8493975903614"/>
      <point x="333.39156626506025" y="451.95783132530124" type="curve" smooth="yes"/>
      <point x="283.23493975903614" y="395.89156626506025"/>
      <point x="267.433734939759" y="359.7590361445783"/>
      <point x="267.433734939759" y="321.4698795180723" type="curve" smooth="yes"/>
      <point x="267.433734939759" y="254.6265060240964"/>
      <point x="306.49999999999994" y="216.7831325301205"/>
      <point x="413.566265060241" y="191.69277108433735" type="curve" smooth="yes"/>
      <point x="492.9698795180723" y="172.3132530120482"/>
      <point x="515.8614457831325" y="156.0"/>
      <point x="515.8614457831325" y="124.95180722891567" type="curve" smooth="yes"/>
      <point x="515.8614457831325" y="85.8132530120482"/>
      <point x="480.9457831325301" y="62.98795180722891"/>
      <point x="414.00602409638554" y="62.98795180722891" type="curve" smooth="yes"/>
      <point x="359.2289156626506" y="62.98795180722891"/>
      <point x="301.7409638554217" y="78.63253012048192"/>
      <point x="254.7409638554217" y="112.07831325301206" type="curve"/>
      <point x="226.56626506024097" y="45.73493975903614" type="line"/>
      <point x="270.8313253012048" y="11.512048192771084"/>
      <point x="342.67469879518075" y="-9.421686746987952"/>
    </contour>
  </outline>
</glyph>
<glyph name="ae" format="2">
  <advance width="862.6867469879518"/>
  <unicode hex="00E6"/>
  <anchor x="415.28915662650604" y="0.0" name="bottom"/>
  <anchor x="415.28915662650604" y="484.0" name="top"/>
  <outline>
    <contour>
      <point x="234.4879518072289" y="-9.421686746987952" type="curve" smooth="yes"/>
      <point x="333.71084337349396" y="-9.421686746987952"/>
      <point x="403.289156626506" y="41.46987951807229"/>
      <point x="422.9096385542168" y="123.51807228915663" type="curve"/>
      <point x="401.5120481927711" y="123.51807228915663" type="line"/>
      <point x="432.84337349397595" y="37.04819277108434"/>
      <point x="517.5301204819277" y="-9.421686746987952"/>
      <point x="632.4638554216867" y="-9.421686746987952" type="curve" smooth="yes"/>
      <point x="694.3975903614459" y="-9.421686746987952"/>
      <point x="767.6626506024096" y="11.801204819277109"/>
      <point x="814.1506024096385" y="47.53614457831325" type="curve"/>
      <point x="785.3313253012049" y="115.36746987951807" type="line"/>
      <point x="737.1746987951807" y="81.47590361445782"/>
      <point x="684.6867469879518" y="66.5421686746988"/>
      <point x="633.7289156626506" y="66.5421686746988" type="curve" smooth="yes"/>
      <point x="528.3012048192771" y="66.5421686746988"/>
      <point x="472.1867469879518" y="119.19277108433735"/>
      <point x="472.1867469879518" y="220.90963855421685" type="curve" smooth="yes"/>
      <point x="472.1867469879518" y="230.10843373493975" type="line" smooth="yes"/>
      <point x="472.1867469879518" y="320.6927710843373"/>
      <point x="524.0361445783132" y="379.0542168674699"/>
      <point x="612.644578313253" y="379.0542168674699" type="curve" smooth="yes"/>
      <point x="695.0301204819276" y="379.0542168674699"/>
      <point x="739.433734939759" y="328.9156626506024"/>
      <point x="739.433734939759" y="242.68674698795184" type="curve"/>
      <point x="755.0783132530121" y="256.95180722891564" type="line"/>
      <point x="460.3433734939759" y="256.95180722891564" type="line"/>
      <point x="460.3433734939759" y="198.56024096385542" type="line"/>
      <point x="824.6385542168674" y="198.56024096385542" type="line"/>
      <point x="824.6385542168674" y="225.3132530120482" type="line" smooth="yes"/>
      <point x="824.6385542168674" y="362.93373493975906"/>
      <point x="742.3975903614457" y="446.9759036144578"/>
      <point x="611.4457831325301" y="446.9759036144578" type="curve" smooth="yes"/>
      <point x="534.7951807228915" y="446.9759036144578"/>
      <point x="460.17469879518075" y="411.7951807228916"/>
      <point x="424.46385542168673" y="348.36746987951807" type="curve"/>
      <point x="446.8614457831325" y="348.36746987951807" type="line"/>
      <point x="424.0421686746988" y="412.2168674698795"/>
      <point x="369.578313253012" y="446.9759036144578"/>
      <point x="274.9759036144578" y="446.9759036144578" type="curve" smooth="yes"/>
      <point x="204.42168674698794" y="446.9759036144578"/>
      <point x="121.56024096385542" y="425.62048192771084"/>
      <point x="70.20481927710844" y="390.3975903614458" type="curve"/>
      <point x="99.09036144578313" y="322.27710843373495" type="line"/>
      <point x="155.73493975903617" y="357.43373493975906"/>
      <point x="210.71084337349396" y="372.078313253012"/>
      <point x="269.5120481927711" y="372.078313253012" type="curve" smooth="yes"/>
      <point x="342.42771084337346" y="372.078313253012"/>
      <point x="374.09638554216866" y="340.03012048192767"/>
      <point x="374.09638554216866" y="274.28915662650604" type="curve" smooth="yes"/>
      <point x="374.09638554216866" y="183.8012048192771" type="line" smooth="yes"/>
      <point x="374.09638554216866" y="113.28313253012048"/>
      <point x="322.11445783132535" y="60.92168674698795"/>
      <point x="246.3734939759036" y="60.92168674698795" type="curve" smooth="yes"/>
      <point x="184.36746987951807" y="60.92168674698795"/>
      <point x="148.74096385542168" y="90.74698795180723"/>
      <point x="148.74096385542168" y="134.81927710843374" type="curve" smooth="yes"/>
      <point x="148.74096385542168" y="181.82530120481928"/>
      <point x="185.92168674698797" y="199.2710843373494"/>
      <point x="325.3614457831325" y="199.2710843373494" type="curve" smooth="yes"/>
      <point x="386.8734939759036" y="199.2710843373494" type="line"/>
      <point x="386.8734939759036" y="257.66265060240966" type="line"/>
      <point x="325.91566265060237" y="257.66265060240966" type="line" smooth="yes"/>
      <point x="118.89156626506025" y="257.66265060240966"/>
      <point x="49.07228915662651" y="222.81927710843374"/>
      <point x="49.07228915662651" y="129.75301204819277" type="curve" smooth="yes"/>
      <point x="49.07228915662651" y="51.42168674698795"/>
      <point x="123.62650602409639" y="-9.421686746987952"/>
    </contour>
  </outline>
</glyph>
<glyph name="eth" format="2">
  <advance width="568.722891566265"/>
  <unicode hex="00F0"/>
  <outline>
    <contour>
      <point x="277.8855421686747" y="-9.421686746987952" type="curve" smooth="yes"/>
      <point x="436.7228915662651" y="-9.421686746987952"/>
      <point x="527.0963855421687" y="89.37349397590361"/>
      <point x="527.0963855421687" y="274.3734939759036" type="curve" smooth="yes"/>
      <point x="527.0963855421687" y="416.7168674698795"/>
      <point x="478.4518072289157" y="530.3855421686746"/>
      <point x="382.53614457831327" y="610.0301204819276" type="curve"/>
      <point x="381.18072289156623" y="598.8975903614459" type="line"/>
      <point x="483.0722891566265" y="652.0542168674699" type="line"/>
      <point x="451.855421686747" y="712.5542168674699" type="line"/>
      <point x="316.0602409638554" y="642.156626506024" type="line"/>
      <point x="340.5" y="640.3795180722892" type="line"/>
      <point x="295.5240963855422" y="668.867469879518"/>
      <point x="234.43975903614458" y="696.5542168674699"/>
      <point x="157.18072289156626" y="713.5542168674699" type="curve"/>
      <point x="137.36144578313252" y="646.433734939759" type="line"/>
      <point x="187.2048192771084" y="634.2108433734941"/>
      <point x="230.4036144578313" y="616.5"/>
      <point x="257.87349397590367" y="601.2530120481928" type="curve"/>
      <point x="256.45180722891564" y="612.3855421686746" type="line"/>
      <point x="120.49397590361446" y="539.9397590361446" type="line"/>
      <point x="151.06626506024094" y="479.43975903614455" type="line"/>
      <point x="321.8192771084337" y="569.2831325301205" type="line"/>
      <point x="307.3734939759036" y="569.0602409638554" type="line"/>
      <point x="381.8734939759036" y="513.0542168674699"/>
      <point x="432.42771084337346" y="420.18072289156623"/>
      <point x="431.7168674698795" y="288.7048192771084" type="curve"/>
      <point x="460.0240963855422" y="288.7048192771084" type="line"/>
      <point x="437.44578313253015" y="387.28313253012044"/>
      <point x="362.0481927710843" y="424.421686746988"/>
      <point x="272.13253012048193" y="424.421686746988" type="curve" smooth="yes"/>
      <point x="137.15662650602408" y="424.421686746988"/>
      <point x="42.692771084337345" y="338.644578313253"/>
      <point x="42.692771084337345" y="208.35542168674698" type="curve" smooth="yes"/>
      <point x="42.692771084337345" y="77.35542168674698"/>
      <point x="137.93373493975903" y="-9.421686746987952"/>
    </contour>
    <contour>
      <point x="282.15060240963857" y="69.03012048192771" type="curve" smooth="yes"/>
      <point x="195.8313253012048" y="69.03012048192771"/>
      <point x="143.62650602409636" y="121.23493975903614"/>
      <point x="143.62650602409636" y="208.71084337349396" type="curve" smooth="yes"/>
      <point x="143.62650602409636" y="293.8313253012048"/>
      <point x="196.47590361445782" y="346.6807228915663"/>
      <point x="282.15060240963857" y="346.6807228915663" type="curve" smooth="yes"/>
      <point x="369.53614457831327" y="346.6807228915663"/>
      <point x="421.03012048192767" y="293.8313253012048"/>
      <point x="421.03012048192767" y="208.71084337349396" type="curve" smooth="yes"/>
      <point x="421.03012048192767" y="122.52409638554217"/>
      <point x="368.89156626506025" y="69.03012048192771"/>
    </contour>
  </outline>
</glyph>
<glyph name="divide" format="2">
  <advance width="600.0"/>
  <unicode hex="00F7"/>
  <outline>
    <contour>
      <point x="56.0" y="249.93975903614458" type="line"/>
      <point x="544.0" y="249.93975903614458" type="line"/>
      <point x="544.0" y="323.7710843373494" type="line"/>
      <point x="56.0" y="323.7710843373494" type="line"/>
    </contour>
    <contour>
      <point x="246.9156626506024" y="41.75903614457832" type="line"/>
      <point x="341.0843373493976" y="41.75903614457832" type="line"/>
      <point x="341.0843373493976" y="135.9277108433735" type="line"/>
      <point x="246.9156626506024" y="135.9277108433735" type="line"/>
    </contour>
    <contour>
      <point x="246.9156626506024" y="437.7831325301205" type="line"/>
      <point x="341.0843373493976" y="437.7831325301205" type="line"/>
      <point x="341.0843373493976" y="531.9518072289156" type="line"/>
      <point x="246.9156626506024" y="531.9518072289156" type="line"/>
    </contour>
  </outline>
</glyph>
<glyph name="dcroat" format="2">
  <advance width="590.7469879518072"/>
  <unicode hex="0111"/>
  <outline>
    <contour>
      <point x="256.6265060240964" y="-9.421686746987952" type="curve" smooth="yes"/>
      <point x="342.8734939759036" y="-9.421686746987952"/>
      <point x="409.8072289156627" y="35.02409638554217"/>
      <point x="430.45180722891564" y="98.56024096385542" type="curve"/>
      <point x="421.3855421686747" y="98.56024096385542" type="line"/>
      <point x="421.3855421686747" y="0.0" type="line"/>
      <point x="520.6746987951807" y="0.0" type="line"/>
      <point x="520.6746987951807" y="519.2048192771084" type="line"/>
      <point x="609.9879518072289" y="519.2048192771084" type="line"/>
      <point x="609.9879518072289" y="592.1686746987951" type="line"/>
      <point x="520.6746987951807" y="592.1686746987951" type="line"/>
      <point x="520.6746987951807" y="705.0" type="line"/>
      <point x="419.67469879518075" y="705.0" type="line"/>
      <point x="419.67469879518075" y="592.1686746987951" type="line"/>
      <point x="210.13855421686748" y="592.1686746987951" type="line"/>
      <point x="210.13855421686748" y="519.2048192771084" type="line"/>
      <point x="419.67469879518075" y="519.2048192771084" type="line"/>
      <point x="419.67469879518075" y="346.7469879518072" type="line"/>
      <point x="429.7409638554217" y="346.7469879518072" type="line"/>
      <point x="408.0301204819277" y="408.15060240963857"/>
      <point x="342.16265060240966" y="450.5301204819277"/>
      <point x="256.6265060240964" y="450.5301204819277" type="curve" smooth="yes"/>
      <point x="129.82530120481928" y="450.5301204819277"/>
      <point x="43.403614457831324" y="363.46385542168673"/>
      <point x="43.403614457831324" y="220.90963855421688" type="curve" smooth="yes"/>
      <point x="43.403614457831324" y="79.355421686747"/>
      <point x="130.82530120481928" y="-9.421686746987952"/>
    </contour>
    <contour>
      <point x="283.2168674698795" y="68.67469879518073" type="curve" smooth="yes"/>
      <point x="198.1867469879518" y="68.67469879518073"/>
      <point x="144.33734939759034" y="123.74698795180723"/>
      <point x="144.33734939759034" y="220.90963855421688" type="curve" smooth="yes"/>
      <point x="144.33734939759034" y="318.7168674698795"/>
      <point x="198.1867469879518" y="372.78915662650604"/>
      <point x="283.2168674698795" y="372.78915662650604" type="curve" smooth="yes"/>
      <point x="368.18072289156623" y="372.78915662650604"/>
      <point x="422.09638554216866" y="318.7168674698795"/>
      <point x="422.09638554216866" y="220.90963855421688" type="curve" smooth="yes"/>
      <point x="422.09638554216866" y="123.74698795180723"/>
      <point x="368.18072289156623" y="68.67469879518073"/>
    </contour>
  </outline>
</glyph>
<glyph name="hbar" format="2">
  <advance width="575.7469879518072"/>
  <unicode hex="0127"/>
  <outline>
    <contour>
      <point x="70.78313253012048" y="0.0" type="line"/>
      <point x="171.7831325301205" y="0.0" type="line"/>
      <point x="171.7831325301205" y="235.06626506024097" type="line" smooth="yes"/>
      <point x="171.7831325301205" y="316.4518072289157"/>
      <point x="224.5" y="369.94578313253015"/>
      <point x="306.2409638554217" y="369.94578313253015" type="curve" smooth="yes"/>
      <point x="375.2048192771084" y="369.94578313253015"/>
      <point x="406.67469879518075" y="335.5421686746988"/>
      <point x="406.67469879518075" y="254.37951807228913" type="curve" smooth="yes"/>
      <point x="406.67469879518075" y="0.0" type="line"/>
      <point x="507.6746987951807" y="0.0" type="line"/>
      <point x="507.6746987951807" y="260.5783132530121" type="line" smooth="yes"/>
      <point x="507.6746987951807" y="388.3313253012048"/>
      <point x="451.09638554216866" y="450.5301204819277"/>
      <point x="334.6746987951807" y="450.5301204819277" type="curve" smooth="yes"/>
      <point x="252.93975903614458" y="450.5301204819277"/>
      <point x="187.49397590361446" y="411.0843373493976"/>
      <point x="159.36144578313252" y="341.90361445783134" type="curve"/>
      <point x="171.7831325301205" y="341.90361445783134" type="line"/>
      <point x="171.7831325301205" y="519.2048192771084" type="line"/>
      <point x="363.09638554216866" y="519.2048192771084" type="line"/>
      <point x="363.09638554216866" y="592.1686746987951" type="line"/>
      <point x="171.7831325301205" y="592.1686746987951" type="line"/>
      <point x="171.7831325301205" y="705.0" type="line"/>
      <point x="70.78313253012048" y="705.0" type="line"/>
      <point x="70.78313253012048" y="592.1686746987951" type="line"/>
      <point x="-18.53012048192771" y="592.1686746987951" type="line"/>
      <point x="-18.53012048192771" y="519.2048192771084" type="line"/>
      <point x="70.78313253012048" y="519.2048192771084" type="line"/>
    </contour>
  </outline>
</glyph>
<glyph name="kgreenlandic" format="2">
  <advance width="516.3373493975904"/>
  <unicode hex="0138"/>
  <anchor x="258.1686746987952" y="0.0" name="bottom"/>
  <anchor x="258.1686746987952" y="484.0" name="top"/>
  <outline>
    <contour>
      <point x="70.78313253012048" y="0.0" type="line"/>
      <point x="171.7831325301205" y="0.0" type="line"/>
      <point x="171.7831325301205" y="201.2710843373494" type="line"/>
      <point x="173.7831325301205" y="201.2710843373494" type="line"/>
      <point x="398.95783132530124" y="0.0" type="line"/>
      <point x="526.421686746988" y="0.0" type="line"/>
      <point x="258.16265060240966" y="247.8192771084337" type="line"/>
      <point x="258.16265060240966" y="205.5120481927711" type="line"/>
      <point x="508.01807228915663" y="437.5542168674699" type="line"/>
      <point x="382.9759036144578" y="437.5542168674699" type="line"/>
      <point x="173.7831325301205" y="246.50602409638557" type="line"/>
      <point x="171.7831325301205" y="246.50602409638557" type="line"/>
      <point x="171.7831325301205" y="437.5542168674699" type="line"/>
      <point x="70.78313253012048" y="437.5542168674699" type="line"/>
    </contour>
  </outline>
</glyph>
<glyph name="eng" format="2">
  <advance width="575.7469879518072"/>
  <unicode hex="014B"/>
  <outline>
    <contour>
      <point x="284.28915662650604" y="-193.0" type="line"/>
      <point x="328.0" y="-190.0" type="line" smooth="yes"/>
      <point x="453.5421686746988" y="-181.1566265060241"/>
      <point x="507.6746987951807" y="-122.57831325301206"/>
      <point x="507.6746987951807" y="0.3253012048192758" type="curve" smooth="yes"/>
      <point x="507.6746987951807" y="257.0240963855422" type="line" smooth="yes"/>
      <point x="507.6746987951807" y="385.421686746988"/>
      <point x="451.09638554216866" y="446.9759036144578"/>
      <point x="334.6746987951807" y="446.9759036144578" type="curve" smooth="yes"/>
      <point x="252.93975903614458" y="446.9759036144578"/>
      <point x="187.49397590361446" y="407.53012048192767"/>
      <point x="159.36144578313252" y="338.34939759036143" type="curve"/>
      <point x="169.00602409638554" y="338.34939759036143" type="line"/>
      <point x="169.00602409638554" y="437.5542168674699" type="line"/>
      <point x="70.78313253012048" y="437.5542168674699" type="line"/>
      <point x="70.78313253012048" y="0.0" type="line"/>
      <point x="171.7831325301205" y="0.0" type="line"/>
      <point x="171.7831325301205" y="231.5120481927711" type="line" smooth="yes"/>
      <point x="171.7831325301205" y="312.8975903614458"/>
      <point x="224.5" y="366.39156626506025"/>
      <point x="306.2409638554217" y="366.39156626506025" type="curve" smooth="yes"/>
      <point x="375.2048192771084" y="366.39156626506025"/>
      <point x="406.67469879518075" y="331.9879518072289"/>
      <point x="406.67469879518075" y="250.82530120481925" type="curve" smooth="yes"/>
      <point x="406.67469879518075" y="-11.337349397590362" type="line" smooth="yes"/>
      <point x="406.67469879518075" y="-74.27710843373494"/>
      <point x="378.2048192771084" y="-107.19277108433735"/>
      <point x="321.578313253012" y="-112.90361445783132" type="curve" smooth="yes"/>
      <point x="277.73493975903614" y="-117.32530120481928" type="line"/>
    </contour>
  </outline>
</glyph>
<glyph name="oe" format="2">
  <advance width="911.6867469879518"/>
  <unicode hex="0153"/>
  <anchor x="470.3975903614458" y="0.0" name="bottom"/>
  <anchor x="470.3975903614458" y="484.0" name="top"/>
  <outline>
    <contour>
      <point x="281.08433734939763" y="-9.421686746987952" type="curve" smooth="yes"/>
      <point x="379.10843373493975" y="-9.421686746987952"/>
      <point x="449.84337349397595" y="36.2710843373494"/>
      <point x="483.01807228915663" y="111.85542168674698" type="curve"/>
      <point x="458.62048192771084" y="111.85542168674698" type="line"/>
      <point x="489.59638554216866" y="35.33734939759036"/>
      <point x="571.8614457831325" y="-9.421686746987952"/>
      <point x="680.8192771084338" y="-9.421686746987952" type="curve" smooth="yes"/>
      <point x="746.6204819277108" y="-9.421686746987952"/>
      <point x="818.8855421686746" y="12.44578313253012"/>
      <point x="863.1506024096385" y="46.891566265060234" type="curve"/>
      <point x="834.3313253012049" y="115.36746987951807" type="line"/>
      <point x="786.1746987951807" y="81.47590361445782"/>
      <point x="734.0421686746987" y="66.5421686746988"/>
      <point x="680.2409638554217" y="66.5421686746988" type="curve" smooth="yes"/>
      <point x="571.2590361445783" y="66.5421686746988"/>
      <point x="520.4759036144578" y="122.74698795180723"/>
      <point x="520.4759036144578" y="220.6867469879518" type="curve" smooth="yes"/>
      <point x="520.4759036144578" y="229.8855421686747" type="line" smooth="yes"/>
      <point x="520.4759036144578" y="322.4457831325301"/>
      <point x="572.1686746987951" y="379.0542168674699"/>
      <point x="661.289156626506" y="379.0542168674699" type="curve" smooth="yes"/>
      <point x="743.3192771084337" y="379.0542168674699"/>
      <point x="788.078313253012" y="328.9156626506024"/>
      <point x="788.078313253012" y="241.75301204819277" type="curve"/>
      <point x="806.210843373494" y="254.66265060240963" type="line"/>
      <point x="503.1867469879518" y="254.66265060240963" type="line"/>
      <point x="503.1867469879518" y="196.2710843373494" type="line"/>
      <point x="873.6385542168674" y="196.2710843373494" type="line"/>
      <point x="873.6385542168674" y="225.3132530120482" type="line" smooth="yes"/>
      <point x="873.6385542168674" y="362.22289156626505"/>
      <point x="791.0421686746987" y="446.9759036144578"/>
      <point x="660.4457831325301" y="446.9759036144578" type="curve" smooth="yes"/>
      <point x="566.7530120481928" y="446.9759036144578"/>
      <point x="492.9518072289157" y="398.3734939759036"/>
      <point x="461.7530120481928" y="328.2530120481928" type="curve"/>
      <point x="482.9518072289157" y="328.2530120481928" type="line"/>
      <point x="449.77710843373495" y="403.41566265060237"/>
      <point x="379.3975903614458" y="446.9759036144578"/>
      <point x="281.08433734939763" y="446.9759036144578" type="curve" smooth="yes"/>
      <point x="137.22289156626505" y="446.9759036144578"/>
      <point x="42.692771084337345" y="358.9096385542169"/>
      <point x="42.692771084337345" y="219.4879518072289" type="curve" smooth="yes"/>
      <point x="42.692771084337345" y="79.71084337349397"/>
      <point x="137.22289156626505" y="-9.421686746987952"/>
    </contour>
    <contour>
      <point x="282.50602409638554" y="68.67469879518073" type="curve" smooth="yes"/>
      <point x="197.5421686746988" y="68.67469879518073"/>
      <point x="143.62650602409636" y="123.45783132530119"/>
      <point x="143.62650602409636" y="219.13253012048193" type="curve" smooth="yes"/>
      <point x="143.62650602409636" y="314.8072289156626"/>
      <point x="196.8313253012048" y="369.23493975903614"/>
      <point x="282.50602409638554" y="369.23493975903614" type="curve" smooth="yes"/>
      <point x="367.4698795180723" y="369.23493975903614"/>
      <point x="421.3855421686747" y="314.8072289156626"/>
      <point x="421.3855421686747" y="219.13253012048193" type="curve" smooth="yes"/>
      <point x="421.3855421686747" y="123.45783132530119"/>
      <point x="368.18072289156623" y="68.67469879518073"/>
    </contour>
  </outline>
</glyph>
<glyph name="yhook" format="2">
  <advance width="560.3012048192771"/>
  <unicode hex="01B4"/>
  <outline>
    <contour>
      <point x="368.9879518072289" y="339.84939759036143" type="curve" smooth="yes"/>
      <point x="249.46385542168676" y="81.48795180722891" type="line"/>
      <point x="274.0843373493976" y="81.48795180722891" type="line"/>
      <point x="111.51807228915663" y="437.5542168674699" type="line"/>
      <point x="4.16265060240964" y="437.5542168674699" type="line"/>
      <point x="219.0722891566265" y="-7.445783132530121" type="line"/>
      <point x="219.0722891566265" y="33.87951807228916" type="line"/>
      <point x="112.07831325301204" y="-180.0" type="line"/>
      <point x="215.36746987951807" y="-180.0" type="line"/>
      <point x="444.7048192771084" y="292.144578313253" type="line" smooth="yes"/>
      <point x="470.50602409638554" y="345.6807228915663"/>
      <point x="495.0602409638554" y="366.3253012048193"/>
      <point x="535.5060240963855" y="366.3253012048193" type="curve" smooth="yes"/>
      <point x="547.9277108433735" y="366.3253012048193"/>
      <point x="561.5060240963855" y="365.03614457831327"/>
      <point x="573.9277108433735" y="360.3253012048193" type="curve"/>
      <point x="587.3253012048193" y="437.13253012048193" type="line"/>
      <point x="571.3253012048193" y="443.5542168674699"/>
      <point x="547.9518072289156" y="446.9759036144578"/>
      <point x="522.6867469879518" y="446.9759036144578" type="curve" smooth="yes"/>
      <point x="441.2951807228916" y="446.9759036144578"/>
      <point x="401.4759036144578" y="407.18072289156623"/>
    </contour>
  </outline>
</glyph>
<glyph name="gstroke" format="2">
  <advance width="594.1686746987951"/>
  <unicode hex="01E5"/>
  <outline>
    <contour>
      <point x="291.13253012048193" y="-189.42168674698794" type="curve" smooth="yes"/>
      <point x="408.99397590361446" y="-189.42168674698794"/>
      <point x="482.36746987951807" y="-143.710843373494"/>
      <point x="511.4759036144578" y="-51.734939759036145" type="curve"/>
      <point x="494.921686746988" y="-58.734939759036145" type="line"/>
      <point x="586.722891566265" y="-58.734939759036145" type="line"/>
      <point x="586.722891566265" y="5.343373493975902" type="line"/>
      <point x="512.1867469879518" y="5.343373493975902" type="line"/>
      <point x="518.6746987951807" y="-23.56024096385542" type="line"/>
      <point x="521.6746987951807" y="-6.2048192771084345"/>
      <point x="523.3855421686746" y="17.216867469879517"/>
      <point x="523.3855421686746" y="41.19277108433735" type="curve" smooth="yes"/>
      <point x="523.3855421686746" y="437.5542168674699" type="line"/>
      <point x="425.51807228915663" y="437.5542168674699" type="line"/>
      <point x="425.51807228915663" y="344.34939759036143" type="line"/>
      <point x="431.7409638554217" y="342.92771084337346" type="line"/>
      <point x="410.4518072289157" y="405.3975903614458"/>
      <point x="344.09638554216866" y="446.9759036144578"/>
      <point x="258.9819277108434" y="446.9759036144578" type="curve" smooth="yes"/>
      <point x="130.69277108433735" y="446.9759036144578"/>
      <point x="42.692771084337345" y="361.066265060241"/>
      <point x="42.692771084337345" y="241.3975903614458" type="curve" smooth="yes"/>
      <point x="42.692771084337345" y="121.43975903614458"/>
      <point x="130.69277108433735" y="34.53012048192771"/>
      <point x="258.9819277108434" y="34.53012048192771" type="curve" smooth="yes"/>
      <point x="344.45180722891564" y="34.53012048192771"/>
      <point x="411.51807228915663" y="76.39759036144578"/>
      <point x="432.09638554216866" y="139.15662650602408" type="curve"/>
      <point x="424.8072289156627" y="139.15662650602408" type="line"/>
      <point x="424.8072289156627" y="27.795180722891565" type="line" smooth="yes"/>
      <point x="424.8072289156627" y="11.927710843373493"/>
      <point x="424.16265060240966" y="0.5481927710843362"/>
      <point x="421.16265060240966" y="-12.674698795180724" type="curve"/>
      <point x="429.00602409638554" y="5.343373493975902" type="line"/>
      <point x="297.65060240963857" y="5.343373493975902" type="line"/>
      <point x="297.65060240963857" y="-58.734939759036145" type="line"/>
      <point x="409.1686746987952" y="-58.734939759036145" type="line"/>
      <point x="406.27710843373495" y="-51.445783132530124" type="line"/>
      <point x="385.144578313253" y="-90.6987951807229"/>
      <point x="344.3192771084337" y="-110.96987951807229"/>
      <point x="284.6686746987952" y="-110.96987951807229" type="curve" smooth="yes"/>
      <point x="216.13253012048193" y="-110.96987951807229"/>
      <point x="154.9819277108434" y="-93.96987951807229"/>
      <point x="97.66867469879519" y="-56.21084337349398" type="curve"/>
      <point x="67.71686746987952" y="-125.75301204819277" type="line"/>
      <point x="128.69277108433735" y="-168.90963855421685"/>
      <point x="205.5120481927711" y="-189.42168674698794"/>
    </contour>
    <contour>
      <point x="284.2168674698795" y="111.20481927710843" type="curve" smooth="yes"/>
      <point x="198.25301204819277" y="111.20481927710843"/>
      <point x="143.62650602409636" y="164.18674698795178"/>
      <point x="143.62650602409636" y="241.10843373493978" type="curve" smooth="yes"/>
      <point x="143.62650602409636" y="318.7409638554217"/>
      <point x="197.89759036144576" y="371.36746987951807"/>
      <point x="284.2168674698795" y="371.36746987951807" type="curve" smooth="yes"/>
      <point x="370.82530120481925" y="371.36746987951807"/>
      <point x="424.45180722891564" y="318.3855421686747"/>
      <point x="424.45180722891564" y="241.75301204819277" type="curve" smooth="yes"/>
      <point x="424.45180722891564" y="164.8313253012048"/>
      <point x="370.46987951807233" y="111.20481927710843"/>
    </contour>
  </outline>
</glyph>
<glyph name="bhook" format="2">
  <advance width="590.7469879518072"/>
  <unicode hex="0253"/>
  <outline>
    <contour>
      <point x="335.18674698795184" y="-9.421686746987952" type="curve" smooth="yes"/>
      <point x="461.27710843373495" y="-9.421686746987952"/>
      <point x="548.4096385542168" y="79.71084337349399"/>
      <point x="548.4096385542168" y="219.13253012048193" type="curve" smooth="yes"/>
      <point x="548.4096385542168" y="359.19879518072287"/>
      <point x="461.63253012048193" y="446.9759036144578"/>
      <point x="335.18674698795184" y="446.9759036144578" type="curve" smooth="yes"/>
      <point x="250.29518072289156" y="446.9759036144578"/>
      <point x="183.7168674698795" y="404.9518072289157"/>
      <point x="162.36144578313252" y="343.54819277108436" type="curve"/>
      <point x="171.7831325301205" y="343.54819277108436" type="line"/>
      <point x="171.7831325301205" y="534.0120481927711" type="line" smooth="yes"/>
      <point x="171.7831325301205" y="597.6144578313254"/>
      <point x="201.51807228915663" y="633.0602409638554"/>
      <point x="260.27710843373495" y="633.0602409638554" type="curve" smooth="yes"/>
      <point x="273.9879518072289" y="633.0602409638554"/>
      <point x="282.69879518072287" y="632.0602409638554"/>
      <point x="299.9879518072289" y="627.7710843373494" type="curve"/>
      <point x="311.6746987951807" y="705.289156626506" type="line"/>
      <point x="294.5421686746988" y="711.0"/>
      <point x="272.0120481927711" y="714.4216867469879"/>
      <point x="251.87951807228916" y="714.4216867469879" type="curve" smooth="yes"/>
      <point x="132.1566265060241" y="714.4216867469879"/>
      <point x="70.78313253012048" y="646.7831325301205"/>
      <point x="70.78313253012048" y="534.144578313253" type="curve" smooth="yes"/>
      <point x="70.78313253012048" y="0.0" type="line"/>
      <point x="169.2951807228916" y="0.0" type="line"/>
      <point x="169.2951807228916" y="97.84939759036143" type="line"/>
      <point x="161.29518072289156" y="97.84939759036143" type="line"/>
      <point x="182.29518072289156" y="35.02409638554217"/>
      <point x="248.8734939759036" y="-9.421686746987952"/>
    </contour>
    <contour>
      <point x="308.2409638554217" y="68.67469879518073" type="curve" smooth="yes"/>
      <point x="223.210843373494" y="68.67469879518073"/>
      <point x="169.36144578313252" y="123.74698795180723"/>
      <point x="169.36144578313252" y="219.13253012048193" type="curve" smooth="yes"/>
      <point x="169.36144578313252" y="315.1626506024096"/>
      <point x="223.210843373494" y="369.23493975903614"/>
      <point x="308.2409638554217" y="369.23493975903614" type="curve" smooth="yes"/>
      <point x="393.2048192771084" y="369.23493975903614"/>
      <point x="447.12048192771084" y="315.1626506024096"/>
      <point x="447.12048192771084" y="219.13253012048193" type="curve" smooth="yes"/>
      <point x="447.12048192771084" y="123.74698795180723"/>
      <point x="393.2048192771084" y="68.67469879518073"/>
    </contour>
  </outline>
</glyph>
<glyph name="dhook" format="2">
  <advance width="590.7469879518072"/>
  <unicode hex="0257"/>
  <outline>
    <contour>
      <point x="255.9156626506024" y="-9.421686746987952" type="curve" smooth="yes"/>
      <point x="342.16265060240966" y="-9.421686746987952"/>
      <point x="408.7409638554217" y="35.02409638554217"/>
      <point x="429.3855421686747" y="97.84939759036143" type="curve"/>
      <point x="422.09638554216866" y="97.84939759036143" type="line"/>
      <point x="422.09638554216866" y="0.0" type="line"/>
      <point x="519.9638554216867" y="0.0" type="line"/>
      <point x="519.9638554216867" y="534.0120481927711" type="line" smooth="yes"/>
      <point x="519.9638554216867" y="601.8795180722891"/>
      <point x="553.2530120481928" y="633.0602409638554"/>
      <point x="608.4578313253012" y="633.0602409638554" type="curve" smooth="yes"/>
      <point x="622.1686746987951" y="633.0602409638554"/>
      <point x="630.8795180722891" y="632.0602409638554"/>
      <point x="648.1686746987951" y="627.7710843373494" type="curve"/>
      <point x="659.855421686747" y="705.289156626506" type="line"/>
      <point x="643.433734939759" y="711.0"/>
      <point x="620.1927710843373" y="714.4216867469879"/>
      <point x="600.0602409638554" y="714.4216867469879" type="curve" smooth="yes"/>
      <point x="480.33734939759034" y="714.4216867469879"/>
      <point x="418.96385542168673" y="646.7831325301205"/>
      <point x="418.96385542168673" y="534.144578313253" type="curve" smooth="yes"/>
      <point x="418.96385542168673" y="343.54819277108436" type="line"/>
      <point x="428.6746987951807" y="343.54819277108436" type="line"/>
      <point x="406.9638554216868" y="404.9518072289157"/>
      <point x="341.4518072289157" y="446.9759036144578"/>
      <point x="255.9156626506024" y="446.9759036144578" type="curve" smooth="yes"/>
      <point x="129.1144578313253" y="446.9759036144578"/>
      <point x="42.692771084337345" y="359.19879518072287"/>
      <point x="42.692771084337345" y="219.13253012048193" type="curve" smooth="yes"/>
      <point x="42.692771084337345" y="79.71084337349399"/>
      <point x="130.1144578313253" y="-9.421686746987952"/>
    </contour>
    <contour>
      <point x="282.50602409638554" y="68.67469879518073" type="curve" smooth="yes"/>
      <point x="197.47590361445782" y="68.67469879518073"/>
      <point x="143.62650602409636" y="123.74698795180723"/>
      <point x="143.62650602409636" y="219.13253012048193" type="curve" smooth="yes"/>
      <point x="143.62650602409636" y="315.1626506024096"/>
      <point x="197.47590361445782" y="369.23493975903614"/>
      <point x="282.50602409638554" y="369.23493975903614" type="curve" smooth="yes"/>
      <point x="367.4698795180723" y="369.23493975903614"/>
      <point x="421.3855421686747" y="315.1626506024096"/>
      <point x="421.3855421686747" y="219.13253012048193" type="curve" smooth="yes"/>
      <point x="421.3855421686747" y="123.74698795180723"/>
      <point x="367.4698795180723" y="68.67469879518073"/>
    </contour>
  </outline>
</glyph>
<glyph name="schwa" format="2">
  <advance width="537.2168674698795"/>
  <unicode hex="0259"/>
  <outline>
    <contour>
      <point x="262.5301204819277" y="-9.421686746987952" type="curve" smooth="yes"/>
      <point x="399.8614457831325" y="-9.421686746987952"/>
      <point x="494.87951807228916" y="85.71084337349397"/>
      <point x="494.87951807228916" y="220.06626506024097" type="curve" smooth="yes"/>
      <point x="494.87951807228916" y="358.13253012048193"/>
      <point x="399.4156626506024" y="446.9759036144578"/>
      <point x="240.0" y="446.9759036144578" type="curve" smooth="yes"/>
      <point x="172.06626506024097" y="446.9759036144578"/>
      <point x="99.51204819277109" y="426.8192771084337"/>
      <point x="49.89156626506024" y="392.3734939759036" type="curve"/>
      <point x="77.0" y="324.8975903614458" type="line"/>
      <point x="128.93373493975903" y="356.789156626506"/>
      <point x="182.42168674698794" y="371.0120481927711"/>
      <point x="239.51204819277106" y="371.0120481927711" type="curve" smooth="yes"/>
      <point x="344.7168674698795" y="371.0120481927711"/>
      <point x="399.921686746988" y="317.5843373493976"/>
      <point x="399.921686746988" y="218.64457831325302" type="curve" smooth="yes"/>
      <point x="399.921686746988" y="209.44578313253012" type="line" smooth="yes"/>
      <point x="399.921686746988" y="115.57228915662651"/>
      <point x="346.7168674698795" y="59.14457831325301"/>
      <point x="262.10843373493975" y="59.14457831325301" type="curve" smooth="yes"/>
      <point x="172.43373493975903" y="59.14457831325301"/>
      <point x="126.67469879518073" y="106.5722891566265"/>
      <point x="126.67469879518073" y="198.8012048192771" type="curve"/>
      <point x="107.31927710843372" y="182.89156626506022" type="line"/>
      <point x="415.566265060241" y="182.89156626506022" type="line"/>
      <point x="415.566265060241" y="241.28313253012047" type="line"/>
      <point x="38.04819277108434" y="241.28313253012047" type="line"/>
      <point x="38.04819277108434" y="214.24096385542168" type="line" smooth="yes"/>
      <point x="38.04819277108434" y="71.77710843373494"/>
      <point x="121.86746987951807" y="-9.421686746987952"/>
    </contour>
  </outline>
</glyph>
<glyph name="commaturnedmod" format="2">
  <advance width="500.0"/>
  <unicode hex="02BB"/>
  <anchor x="250.0" y="484.0" name="_top"/>
  <anchor x="250.0" y="685.0" name="top"/>
  <outline>
    <contour>
      <point x="193.67469879518072" y="515.7349397590361" type="line"/>
      <point x="306.03614457831327" y="515.7349397590361" type="line"/>
      <point x="306.03614457831327" y="608.8373493975904" type="line"/>
      <point x="225.89156626506025" y="608.8373493975904" type="line"/>
      <point x="252.0" y="596.4397590361446" type="line"/>
      <point x="252.0" y="632.9277108433735"/>
      <point x="258.13253012048193" y="660.9277108433735"/>
      <point x="290.19879518072287" y="693.3734939759036" type="curve"/>
      <point x="249.2710843373494" y="723.6144578313254" type="line"/>
      <point x="205.80722891566265" y="684.0602409638554"/>
      <point x="193.67469879518072" y="637.5060240963855"/>
      <point x="193.67469879518072" y="583.6867469879518" type="curve" smooth="yes"/>
    </contour>
  </outline>
</glyph>
<glyph name="apostrophemod" format="2">
  <advance width="317.7710843373494"/>
  <unicode hex="02BC"/>
  <outline>
    <contour>
      <point x="160.90361445783134" y="519.3132530120482" type="line"/>
      <point x="204.36746987951807" y="558.8674698795181"/>
      <point x="216.5" y="604.710843373494"/>
      <point x="216.5" y="659.8855421686746" type="curve" smooth="yes"/>
      <point x="216.5" y="726.4819277108434" type="line"/>
      <point x="104.13855421686746" y="726.4819277108434" type="line"/>
      <point x="104.13855421686746" y="633.3795180722892" type="line"/>
      <point x="184.2831325301205" y="633.3795180722892" type="line"/>
      <point x="158.17469879518075" y="645.777108433735" type="line"/>
      <point x="158.17469879518075" y="609.933734939759"/>
      <point x="152.04216867469881" y="581.289156626506"/>
      <point x="119.97590361445783" y="549.4879518072289" type="curve"/>
    </contour>
  </outline>
</glyph>
<glyph name="ringhalfright" format="2">
  <advance width="500.0"/>
  <unicode hex="02BE"/>
  <anchor x="250.0" y="484.0" name="_top"/>
  <anchor x="250.0" y="685.0" name="top"/>
  <outline>
    <contour>
      <point x="250.0" y="503.15662650602405" type="line"/>
      <point x="309.5542168674699" y="503.15662650602405"/>
      <point x="354.10843373493975" y="547.0"/>
      <point x="354.10843373493975" y="604.2650602409639" type="curve" smooth="yes"/>
      <point x="354.10843373493975" y="661.5301204819277"/>
      <point x="309.5542168674699" y="706.3734939759036"/>
      <point x="250.0" y="706.3734939759036" type="curve"/>
      <point x="250.0" y="656.8674698795181" type="line"/>
      <point x="280.4457831325301" y="656.8674698795181"/>
      <point x="300.6024096385542" y="633.710843373494"/>
      <point x="300.6024096385542" y="604.2650602409639" type="curve" smooth="yes"/>
      <point x="300.6024096385542" y="575.8192771084338"/>
      <point x="280.4457831325301" y="552.3734939759036"/>
      <point x="250.0" y="552.3734939759036" type="curve"/>
    </contour>
  </outline>
</glyph>
<glyph name="ringhalfleft" format="2">
  <advance width="500.0"/>
  <unicode hex="02BF"/>
  <anchor x="250.0" y="484.0" name="_top"/>
  <anchor x="250.0" y="685.0" name="top"/>
  <outline>
    <contour>
      <point x="250.0" y="503.15662650602405" type="curve"/>
      <point x="250.0" y="552.3734939759036" type="line"/>
      <point x="220.26506024096386" y="552.3734939759036"/>
      <point x="199.3975903614458" y="575.8192771084338"/>
      <point x="199.3975903614458" y="604.2650602409639" type="curve" smooth="yes"/>
      <point x="199.3975903614458" y="633.710843373494"/>
      <point x="220.26506024096386" y="656.8674698795181"/>
      <point x="250.0" y="656.8674698795181" type="curve"/>
      <point x="250.0" y="706.3734939759036" type="line"/>
      <point x="191.1566265060241" y="706.3734939759036"/>
      <point x="146.6024096385542" y="661.5301204819277"/>
      <point x="146.6024096385542" y="604.2650602409639" type="curve" smooth="yes"/>
      <point x="146.6024096385542" y="547.0"/>
      <point x="191.1566265060241" y="503.15662650602405"/>
    </contour>
  </outline>
</glyph>
<glyph name="verticallinemod" format="2">
  <advance width="500.0"/>
  <unicode hex="02C8"/>
  <outline>
    <contour>
      <point x="215.49397590361446" y="544.5783132530121" type="line"/>
      <point x="284.50602409638554" y="544.5783132530121" type="line"/>
      <point x="284.50602409638554" y="766.7771084337348" type="line"/>
      <point x="215.49397590361446" y="766.7771084337348" type="line"/>
    </contour>
  </outline>
</glyph>
<glyph name="gravecomb" format="2">
  <unicode hex="0300"/>
  <anchor x="0.0" y="484.0" name="_top"/>
  <anchor x="0.0" y="685.0" name="top"/>
  <outline>
    <contour>
      <point x="-35.06024096385542" y="502.5542168674699" type="line"/>
      <point x="35.06024096385542" y="502.5542168674699" type="line"/>
      <point x="-67.51807228915663" y="725.3313253012047" type="line"/>
      <point x="-170.56626506024097" y="725.3313253012047" type="line"/>
    </contour>
  </outline>
</glyph>
<glyph name="tildecomb" format="2">
  <unicode hex="0303"/>
  <anchor x="0.0" y="484.0" name="_top"/>
  <anchor x="0.0" y="685.0" name="top"/>
  <outline>
    <contour>
      <point x="-133.1566265060241" y="532.1807228915662" type="line"/>
      <point x="-126.1566265060241" y="592.4277108433735"/>
      <point x="-104.51204819277108" y="617.3855421686748"/>
      <point x="-71.22289156626506" y="617.3855421686748" type="curve" smooth="yes"/>
      <point x="-52.57831325301205" y="617.3855421686748"/>
      <point x="-37.933734939759034" y="606.8072289156627"/>
      <point x="-10.933734939759036" y="581.4277108433735" type="curve" smooth="yes"/>
      <point x="22.710843373493976" y="550.0481927710844"/>
      <point x="45.71084337349397" y="535.6024096385543"/>
      <point x="75.77710843373494" y="535.6024096385543" type="curve" smooth="yes"/>
      <point x="137.50602409638554" y="535.6024096385543"/>
      <point x="180.90361445783134" y="587.1325301204819"/>
      <point x="186.48192771084337" y="686.4397590361446" type="curve"/>
      <point x="133.1566265060241" y="689.8614457831325" type="line"/>
      <point x="126.86746987951807" y="630.3915662650603"/>
      <point x="105.57831325301206" y="604.6566265060242"/>
      <point x="71.93373493975903" y="604.6566265060242" type="curve" smooth="yes"/>
      <point x="54.644578313253014" y="604.6566265060242"/>
      <point x="40.0" y="614.2349397590361"/>
      <point x="11.289156626506024" y="640.6144578313252" type="curve" smooth="yes"/>
      <point x="-19.933734939759034" y="669.1506024096385"/>
      <point x="-42.93373493975904" y="686.4397590361446"/>
      <point x="-74.77710843373494" y="686.4397590361446" type="curve" smooth="yes"/>
      <point x="-136.7951807228916" y="686.4397590361446"/>
      <point x="-180.19277108433735" y="634.9096385542168"/>
      <point x="-186.48192771084337" y="535.6024096385543" type="curve"/>
    </contour>
  </outline>
</glyph>
<glyph name="brevecomb" format="2">
  <unicode hex="0306"/>
  <anchor x="0.0" y="484.0" name="_top"/>
  <anchor x="0.0" y="685.0" name="top"/>
  <outline>
    <contour>
      <point x="0.0" y="499.84337349397595" type="curve" smooth="yes"/>
      <point x="94.95180722891567" y="499.84337349397595"/>
      <point x="156.77108433734938" y="574.6867469879518"/>
      <point x="159.63855421686748" y="710.1084337349398" type="curve"/>
      <point x="99.62650602409639" y="716.2409638554217" type="line"/>
      <point x="95.91566265060241" y="614.7469879518072"/>
      <point x="60.18072289156626" y="564.277108433735"/>
      <point x="0.0" y="564.277108433735" type="curve" smooth="yes"/>
      <point x="-60.18072289156626" y="564.277108433735"/>
      <point x="-95.91566265060241" y="614.7469879518072"/>
      <point x="-99.62650602409639" y="716.2409638554217" type="curve"/>
      <point x="-159.63855421686748" y="710.1084337349398" type="line"/>
      <point x="-156.06024096385542" y="574.6867469879518"/>
      <point x="-94.2409638554217" y="499.84337349397595"/>
    </contour>
  </outline>
</glyph>
<glyph name="hookabovecomb" format="2">
  <unicode hex="0309"/>
  <anchor x="0.0" y="484.0" name="_top"/>
  <anchor x="0.0" y="685.0" name="top"/>
  <outline>
    <contour>
      <point x="-32.21686746987952" y="502.5542168674699" type="line"/>
      <point x="32.21686746987952" y="502.5542168674699" type="line"/>
      <point x="32.21686746987952" y="520.9759036144578" type="line" smooth="yes"/>
      <point x="32.21686746987952" y="581.644578313253"/>
      <point x="106.63855421686748" y="586.777108433735"/>
      <point x="106.63855421686748" y="656.4879518072289" type="curve" smooth="yes"/>
      <point x="106.63855421686748" y="705.0421686746987"/>
      <point x="68.30722891566265" y="732.4638554216867"/>
      <point x="4.843373493975903" y="732.4638554216867" type="curve" smooth="yes"/>
      <point x="-35.39759036144578" y="732.4638554216867"/>
      <point x="-68.79518072289156" y="724.3975903614457"/>
      <point x="-94.7710843373494" y="707.9759036144578" type="curve"/>
      <point x="-77.66265060240964" y="658.9819277108434" type="line"/>
      <point x="-55.506024096385545" y="671.9156626506025"/>
      <point x="-36.92771084337349" y="675.9156626506025"/>
      <point x="-16.927710843373493" y="675.9156626506025" type="curve" smooth="yes"/>
      <point x="12.674698795180724" y="675.9156626506025"/>
      <point x="27.253012048192772" y="665.0481927710844"/>
      <point x="27.253012048192772" y="644.5361445783132" type="curve" smooth="yes"/>
      <point x="27.253012048192772" y="602.5783132530121"/>
      <point x="-32.21686746987952" y="591.801204819277"/>
      <point x="-32.21686746987952" y="525.9759036144578" type="curve" smooth="yes"/>
    </contour>
  </outline>
</glyph>
<glyph name="ringcomb" format="2">
  <unicode hex="030A"/>
  <anchor x="0.0" y="484.0" name="_top"/>
  <anchor x="0.0" y="685.0" name="top"/>
  <outline>
    <contour>
      <point x="0.0" y="498.066265060241" type="curve" smooth="yes"/>
      <point x="67.62048192771084" y="498.066265060241"/>
      <point x="120.17469879518073" y="549.9096385542169"/>
      <point x="120.17469879518073" y="615.5301204819277" type="curve" smooth="yes"/>
      <point x="120.17469879518073" y="681.1506024096385"/>
      <point x="67.62048192771084" y="732.2831325301205"/>
      <point x="0.0" y="732.2831325301205" type="curve" smooth="yes"/>
      <point x="-67.62048192771084" y="732.2831325301205"/>
      <point x="-120.17469879518073" y="681.1506024096385"/>
      <point x="-120.17469879518073" y="615.5301204819277" type="curve" smooth="yes"/>
      <point x="-120.17469879518073" y="549.9096385542169"/>
      <point x="-67.62048192771084" y="498.066265060241"/>
    </contour>
    <contour>
      <point x="0.0" y="546.0602409638554" type="curve" smooth="yes"/>
      <point x="-39.60240963855422" y="546.0602409638554"/>
      <point x="-68.75903614457832" y="575.7951807228916"/>
      <point x="-68.75903614457832" y="615.5301204819277" type="curve" smooth="yes"/>
      <point x="-68.75903614457832" y="654.5542168674699"/>
      <point x="-39.60240963855422" y="684.289156626506"/>
      <point x="0.0" y="684.289156626506" type="curve" smooth="yes"/>
      <point x="40.31325301204819" y="684.289156626506"/>
      <point x="68.75903614457832" y="654.5542168674699"/>
      <point x="68.75903614457832" y="615.5301204819277" type="curve" smooth="yes"/>
      <point x="68.75903614457832" y="575.7951807228916"/>
      <point x="40.31325301204819" y="546.0602409638554"/>
    </contour>
  </outline>
</glyph>
<glyph name="caroncomb" format="2">
  <unicode hex="030C"/>
  <anchor x="0.0" y="484.0" name="_top"/>
  <anchor x="0.0" y="685.0" name="top"/>
  <outline>
    <contour>
      <point x="-46.036144578313255" y="502.5542168674699" type="line"/>
      <point x="46.036144578313255" y="502.5542168674699" type="line"/>
      <point x="155.74698795180723" y="725.3313253012047" type="line"/>
      <point x="88.75903614457832" y="725.3313253012047" type="line"/>
      <point x="0.0" y="563.6566265060242" type="line"/>
      <point x="-88.75903614457832" y="725.3313253012047" type="line"/>
      <point x="-155.74698795180723" y="725.3313253012047" type="line"/>
    </contour>
  </outline>
</glyph>
<glyph name="breveinvertedcomb" format="2">
  <unicode hex="0311"/>
  <anchor x="0.0" y="484.0" name="_top"/>
  <anchor x="0.0" y="685.0" name="top"/>
  <outline>
    <contour>
      <point x="-99.62650602409639" y="499.84337349397595" type="line"/>
      <point x="-95.91566265060241" y="601.6265060240964"/>
      <point x="-60.18072289156626" y="651.8072289156627"/>
      <point x="0.0" y="651.8072289156627" type="curve" smooth="yes"/>
      <point x="60.18072289156626" y="651.8072289156627"/>
      <point x="95.91566265060241" y="601.6265060240964"/>
      <point x="99.62650602409639" y="499.84337349397595" type="curve"/>
      <point x="159.63855421686748" y="506.26506024096386" type="line"/>
      <point x="156.77108433734938" y="641.3313253012047"/>
      <point x="94.95180722891567" y="716.2409638554217"/>
      <point x="0.0" y="716.2409638554217" type="curve" smooth="yes"/>
      <point x="-94.2409638554217" y="716.2409638554217"/>
      <point x="-156.06024096385542" y="641.3313253012047"/>
      <point x="-159.63855421686748" y="506.26506024096386" type="curve"/>
    </contour>
  </outline>
</glyph>
<glyph name="commaturnedabovecomb" format="2">
  <unicode hex="0312"/>
  <anchor x="0.0" y="484.0" name="_top"/>
  <anchor x="0.0" y="685.0" name="top"/>
  <outline>
    <contour>
      <point x="-56.325301204819276" y="515.7349397590361" type="line"/>
      <point x="56.325301204819276" y="515.7349397590361" type="line"/>
      <point x="56.325301204819276" y="607.1927710843373" type="line"/>
      <point x="-23.463855421686745" y="607.1927710843373" type="line"/>
      <point x="1.355421686746988" y="594.5060240963855" type="line"/>
      <point x="1.355421686746988" y="633.2831325301205"/>
      <point x="9.132530120481928" y="661.5722891566265"/>
      <point x="41.132530120481924" y="695.0180722891566" type="curve"/>
      <point x="0.2048192771084345" y="725.1927710843373" type="line"/>
      <point x="-42.25903614457831" y="685.9939759036145"/>
      <point x="-56.325301204819276" y="638.1506024096386"/>
      <point x="-56.325301204819276" y="582.6867469879518" type="curve" smooth="yes"/>
    </contour>
  </outline>
</glyph>
<glyph name="horncomb" format="2">
  <unicode hex="031B"/>
  <anchor x="0.06626506024096379" y="434.0" name="_topright"/>
  <outline>
    <contour>
      <point x="54.87349397590361" y="381.0722891566265" type="line"/>
      <point x="141.05421686746988" y="387.9156626506024"/>
      <point x="192.76506024096386" y="445.6024096385542"/>
      <point x="192.76506024096386" y="533.9156626506024" type="curve" smooth="yes"/>
      <point x="192.76506024096386" y="566.0" type="line"/>
      <point x="104.4277108433735" y="566.0" type="line"/>
      <point x="104.4277108433735" y="547.6024096385543" type="line" smooth="yes"/>
      <point x="104.4277108433735" y="468.4698795180723"/>
      <point x="77.87349397590363" y="438.5542168674699"/>
      <point x="0.06626506024096379" y="437.5542168674699" type="curve"/>
      <point x="0.06626506024096379" y="416.8192771084337" type="line"/>
    </contour>
  </outline>
</glyph>
<glyph name="strokeshortcomb" format="2">
  <unicode hex="0335"/>
  <anchor x="0.0" y="564.8795180722891" name="_stroke"/>
  <outline>
    <contour>
      <point x="-190.4578313253012" y="528.3975903614457" type="line"/>
      <point x="191.16867469879517" y="528.3975903614457" type="line"/>
      <point x="191.16867469879517" y="601.3614457831325" type="line"/>
      <point x="-190.4578313253012" y="601.3614457831325" type="line"/>
    </contour>
  </outline>
</glyph>
<glyph name="slashshortcomb" format="2">
  <unicode hex="0337"/>
  <anchor x="-49.78313253012048" y="318.578313253012" name="_center"/>
  <outline>
    <contour>
      <point x="-176.3313253012048" y="214.3012048192771" type="line"/>
      <point x="111.53614457831324" y="351.89156626506025" type="line"/>
      <point x="77.83132530120481" y="422.855421686747" type="line"/>
      <point x="-210.03614457831327" y="285.26506024096386" type="line"/>
    </contour>
  </outline>
</glyph>
<glyph name="slashlongcomb" format="2">
  <unicode hex="0338"/>
  <anchor x="10.30722891566265" y="220.06626506024097" name="_center"/>
  <outline>
    <contour>
      <point x="-128.00602409638554" y="-51.63855421686747" type="line"/>
      <point x="202.56626506024097" y="456.5542168674699" type="line"/>
      <point x="148.26506024096386" y="491.1265060240964" type="line"/>
      <point x="-182.30722891566265" y="-17.066265060240966" type="line"/>
    </contour>
  </outline>
</glyph>
<glyph name="Omega" format="2">
  <advance width="787.722891566265"/>
  <unicode hex="03A9"/>
  <outline>
    <contour>
      <point x="39.31325301204819" y="0.0" type="line"/>
      <point x="338.1927710843373" y="0.0" type="line"/>
      <point x="338.1927710843373" y="82.20481927710843" type="line"/>
      <point x="218.49397590361446" y="167.56626506024097"/>
      <point x="161.44578313253012" y="268.9277108433735"/>
      <point x="161.44578313253012" y="388.3132530120482" type="curve" smooth="yes"/>
      <point x="161.44578313253012" y="538.722891566265"/>
      <point x="250.2289156626506" y="624.3734939759036"/>
      <point x="394.2168674698795" y="624.3734939759036" type="curve" smooth="yes"/>
      <point x="538.2048192771084" y="624.3734939759036"/>
      <point x="626.277108433735" y="539.0120481927711"/>
      <point x="626.277108433735" y="388.3132530120482" type="curve" smooth="yes"/>
      <point x="626.277108433735" y="268.9277108433735"/>
      <point x="569.2289156626506" y="167.56626506024097"/>
      <point x="449.5301204819277" y="82.20481927710843" type="curve"/>
      <point x="449.5301204819277" y="0.0" type="line"/>
      <point x="748.4096385542168" y="0.0" type="line"/>
      <point x="748.4096385542168" y="86.33734939759036" type="line"/>
      <point x="511.96385542168673" y="86.33734939759036" type="line"/>
      <point x="511.96385542168673" y="57.54216867469879" type="line"/>
      <point x="668.2289156626506" y="141.03614457831324"/>
      <point x="734.5421686746988" y="256.0843373493976"/>
      <point x="734.5421686746988" y="400.3975903614458" type="curve" smooth="yes"/>
      <point x="734.5421686746988" y="596.1325301204819"/>
      <point x="595.6144578313254" y="714.4216867469879"/>
      <point x="394.2168674698795" y="714.4216867469879" type="curve" smooth="yes"/>
      <point x="192.10843373493975" y="714.4216867469879"/>
      <point x="53.18072289156626" y="595.843373493976"/>
      <point x="53.18072289156626" y="400.3975903614458" type="curve" smooth="yes"/>
      <point x="53.18072289156626" y="256.0843373493976"/>
      <point x="120.20481927710844" y="141.03614457831324"/>
      <point x="276.4698795180723" y="57.54216867469879" type="curve"/>
      <point x="276.4698795180723" y="86.33734939759036" type="line"/>
      <point x="39.31325301204819" y="86.33734939759036" type="line"/>
    </contour>
  </outline>
</glyph>
<glyph name="mu" format="2">
  <advance width="569.1686746987951"/>
  <unicode hex="03BC"/>
  <outline>
    <contour>
      <point x="68.07228915662651" y="-180.0" type="line"/>
      <point x="169.0722891566265" y="-180.0" type="line"/>
      <point x="160.80722891566265" y="59.674698795180724" type="line"/>
      <point x="150.27108433734938" y="59.674698795180724" type="line"/>
      <point x="172.93975903614458" y="7.734939759036145"/>
      <point x="213.6566265060241" y="-9.421686746987952"/>
      <point x="267.4397590361446" y="-9.421686746987952" type="curve" smooth="yes"/>
      <point x="331.95783132530124" y="-9.421686746987952"/>
      <point x="387.51807228915663" y="32.024096385542165"/>
      <point x="405.4759036144578" y="102.98192771084337" type="curve"/>
      <point x="399.8072289156627" y="102.98192771084337" type="line"/>
      <point x="399.8072289156627" y="0.0" type="line"/>
      <point x="498.3855421686747" y="0.0" type="line"/>
      <point x="498.3855421686747" y="437.5542168674699" type="line"/>
      <point x="397.3855421686747" y="437.5542168674699" type="line"/>
      <point x="397.3855421686747" y="207.0421686746988" type="line" smooth="yes"/>
      <point x="397.3855421686747" y="126.36746987951808"/>
      <point x="345.2469879518072" y="71.8734939759036"/>
      <point x="270.9277108433735" y="71.8734939759036" type="curve" smooth="yes"/>
      <point x="201.8313253012048" y="71.8734939759036"/>
      <point x="169.0722891566265" y="106.56626506024097"/>
      <point x="169.0722891566265" y="185.59638554216866" type="curve" smooth="yes"/>
      <point x="169.0722891566265" y="437.5542168674699" type="line"/>
      <point x="68.07228915662651" y="437.5542168674699" type="line"/>
    </contour>
  </outline>
</glyph>
<glyph name="pi" format="2">
  <advance width="601.2289156626506"/>
  <unicode hex="03C0"/>
  <outline>
    <contour>
      <point x="521.6987951807229" y="-6.551638554216868" type="curve" smooth="yes"/>
      <point x="540.8313253012049" y="-6.551638554216868"/>
      <point x="561.9638554216867" y="-4.554216867469879"/>
      <point x="587.2289156626506" y="-0.5542168674698793" type="curve"/>
      <point x="591.3614457831325" y="83.22891566265059" type="line"/>
      <point x="574.2048192771084" y="80.29518072289157"/>
      <point x="558.3373493975904" y="77.93975903614458"/>
      <point x="544.4698795180723" y="77.93975903614458" type="curve" smooth="yes"/>
      <point x="475.1566265060241" y="77.93975903614458"/>
      <point x="448.0" y="113.89759036144578"/>
      <point x="448.0" y="188.3674698795181" type="curve" smooth="yes"/>
      <point x="448.0" y="360.3253012048193" type="line"/>
      <point x="562.2048192771084" y="360.3253012048193" type="line"/>
      <point x="562.2048192771084" y="437.5542168674699" type="line"/>
      <point x="4.289156626506024" y="437.5542168674699" type="line"/>
      <point x="4.289156626506024" y="360.3253012048193" type="line"/>
      <point x="98.73493975903615" y="360.3253012048193" type="line"/>
      <point x="93.44578313253012" y="231.04819277108436"/>
      <point x="74.57831325301206" y="121.75301204819277"/>
      <point x="32.71084337349397" y="0.0" type="curve"/>
      <point x="138.0" y="0.0" type="line"/>
      <point x="176.93373493975903" y="107.37951807228916"/>
      <point x="193.44578313253012" y="211.51807228915663"/>
      <point x="199.73493975903614" y="360.3253012048193" type="curve"/>
      <point x="347.0" y="360.3253012048193" type="line"/>
      <point x="347.0" y="181.90361445783134" type="line" smooth="yes"/>
      <point x="347.0" y="66.04216867469879"/>
      <point x="397.95180722891564" y="-6.551638554216868"/>
    </contour>
  </outline>
</glyph>
<glyph name="Zhe-cy" format="2">
  <advance width="989.1325301204819"/>
  <unicode hex="0416"/>
  <anchor x="869.2650602409639" y="0.0" name="bottomright"/>
  <anchor x="494.56626506024094" y="705.0" name="top"/>
  <outline>
    <contour>
      <point x="7.759036144578314" y="0.0" type="line"/>
      <point x="119.57831325301204" y="0.0" type="line"/>
      <point x="215.3132530120482" y="205.02409638554218" type="line" smooth="yes"/>
      <point x="250.49397590361446" y="279.67469879518075"/>
      <point x="295.96385542168673" y="310.566265060241"/>
      <point x="367.72289156626505" y="310.566265060241" type="curve" smooth="yes"/>
      <point x="445.13253012048193" y="310.566265060241" type="line"/>
      <point x="445.13253012048193" y="0.0" type="line"/>
      <point x="544.710843373494" y="0.0" type="line"/>
      <point x="544.710843373494" y="310.566265060241" type="line"/>
      <point x="622.1204819277109" y="310.566265060241" type="line" smooth="yes"/>
      <point x="692.5903614457832" y="310.566265060241"/>
      <point x="736.7710843373494" y="280.96385542168673"/>
      <point x="773.2409638554217" y="205.02409638554218" type="curve" smooth="yes"/>
      <point x="870.2650602409639" y="0.0" type="line"/>
      <point x="981.3734939759036" y="0.0" type="line"/>
      <point x="860.8192771084338" y="247.53012048192772" type="line" smooth="yes"/>
      <point x="818.3975903614457" y="334.0843373493976"/>
      <point x="761.2650602409639" y="382.7951807228916"/>
      <point x="678.4457831325301" y="393.7710843373494" type="curve"/>
      <point x="717.7469879518072" y="362.5542168674699" type="line"/>
      <point x="944.5060240963855" y="705.0" type="line"/>
      <point x="830.1084337349398" y="705.0" type="line"/>
      <point x="620.566265060241" y="381.48192771084337" type="line"/>
      <point x="644.9879518072289" y="397.90361445783134" type="line"/>
      <point x="544.710843373494" y="397.90361445783134" type="line"/>
      <point x="544.710843373494" y="705.0" type="line"/>
      <point x="445.13253012048193" y="705.0" type="line"/>
      <point x="445.13253012048193" y="397.90361445783134" type="line"/>
      <point x="346.144578313253" y="397.90361445783134" type="line"/>
      <point x="369.27710843373495" y="381.48192771084337" type="line"/>
      <point x="159.73493975903614" y="705.0" type="line"/>
      <point x="45.33734939759036" y="705.0" type="line"/>
      <point x="272.09638554216866" y="362.5542168674699" type="line"/>
      <point x="311.3975903614458" y="393.7710843373494" type="line"/>
      <point x="228.57831325301206" y="382.7951807228916"/>
      <point x="169.86746987951807" y="334.7951807228916"/>
      <point x="127.73493975903614" y="247.53012048192772" type="curve" smooth="yes"/>
    </contour>
  </outline>
</glyph>
<glyph name="Ka-cy" format="2">
  <advance width="656.4939759036145"/>
  <unicode hex="041A"/>
  <anchor x="536.3373493975904" y="0.0" name="bottomright"/>
  <anchor x="333.30120481927713" y="353.0" name="center"/>
  <anchor x="332.34939759036143" y="705.0" name="top"/>
  <anchor x="185.6265060240964" y="705.0" name="topleft"/>
  <outline>
    <contour>
      <point x="82.49397590361446" y="0.0" type="line"/>
      <point x="185.6265060240964" y="0.0" type="line"/>
      <point x="185.6265060240964" y="310.566265060241" type="line"/>
      <point x="289.48192771084337" y="310.566265060241" type="line" smooth="yes"/>
      <point x="359.95180722891564" y="310.566265060241"/>
      <point x="404.8433734939759" y="280.96385542168673"/>
      <point x="440.6024096385542" y="205.02409638554218" type="curve" smooth="yes"/>
      <point x="536.6265060240964" y="0.0" type="line"/>
      <point x="648.7349397590361" y="0.0" type="line"/>
      <point x="528.1807228915662" y="247.53012048192772" type="line" smooth="yes"/>
      <point x="485.7590361445783" y="334.0843373493976"/>
      <point x="428.6265060240964" y="382.7951807228916"/>
      <point x="345.8072289156627" y="393.7710843373494" type="curve"/>
      <point x="385.10843373493975" y="362.5542168674699" type="line"/>
      <point x="611.867469879518" y="705.0" type="line"/>
      <point x="497.4698795180723" y="705.0" type="line"/>
      <point x="287.9277108433735" y="381.48192771084337" type="line"/>
      <point x="312.34939759036143" y="397.90361445783134" type="line"/>
      <point x="185.6265060240964" y="397.90361445783134" type="line"/>
      <point x="185.6265060240964" y="705.0" type="line"/>
      <point x="82.49397590361446" y="705.0" type="line"/>
    </contour>
  </outline>
</glyph>
<glyph name="El-cy" format="2">
  <advance width="745.9277108433735"/>
  <unicode hex="041B"/>
  <anchor x="564.566265060241" y="0.0" name="bottomright"/>
  <outline>
    <contour>
      <point x="65.43373493975903" y="-15.843373493975903" type="line"/>
      <point x="200.8313253012048" y="51.71084337349397"/>
      <point x="277.65060240963857" y="181.79518072289156"/>
      <point x="277.65060240963857" y="465.8072289156627" type="curve" smooth="yes"/>
      <point x="277.65060240963857" y="617.6626506024096" type="line"/>
      <point x="560.3012048192771" y="617.6626506024096" type="line"/>
      <point x="560.3012048192771" y="0.0" type="line"/>
      <point x="663.433734939759" y="0.0" type="line"/>
      <point x="663.433734939759" y="705.0" type="line"/>
      <point x="182.20481927710844" y="705.0" type="line"/>
      <point x="182.20481927710844" y="492.1566265060241" type="line" smooth="yes"/>
      <point x="182.20481927710844" y="209.04819277108433"/>
      <point x="121.57831325301206" y="120.65060240963855"/>
      <point x="15.734939759036145" y="62.67469879518072" type="curve"/>
    </contour>
  </outline>
</glyph>
<glyph name="Pe-cy" format="2">
  <advance width="760.9277108433735"/>
  <unicode hex="041F"/>
  <anchor x="579.566265060241" y="0.0" name="bottomright"/>
  <outline>
    <contour>
      <point x="82.49397590361446" y="0.0" type="line"/>
      <point x="185.6265060240964" y="0.0" type="line"/>
      <point x="185.6265060240964" y="617.6626506024096" type="line"/>
      <point x="575.3012048192771" y="617.6626506024096" type="line"/>
      <point x="575.3012048192771" y="0.0" type="line"/>
      <point x="678.433734939759" y="0.0" type="line"/>
      <point x="678.433734939759" y="705.0" type="line"/>
      <point x="82.49397590361446" y="705.0" type="line"/>
    </contour>
  </outline>
</glyph>
<glyph name="Tse-cy" format="2">
  <advance width="800.722891566265"/>
  <unicode hex="0426"/>
  <outline>
    <contour>
      <point x="685.8313253012049" y="-160.66265060240963" type="line"/>
      <point x="778.433734939759" y="-160.66265060240963" type="line"/>
      <point x="778.433734939759" y="87.33734939759036" type="line"/>
      <point x="678.433734939759" y="87.33734939759036" type="line"/>
      <point x="678.433734939759" y="705.0" type="line"/>
      <point x="575.3012048192771" y="705.0" type="line"/>
      <point x="575.3012048192771" y="87.33734939759036" type="line"/>
      <point x="185.6265060240964" y="87.33734939759036" type="line"/>
      <point x="185.6265060240964" y="705.0" type="line"/>
      <point x="82.49397590361446" y="705.0" type="line"/>
      <point x="82.49397590361446" y="0.0" type="line"/>
      <point x="685.8313253012049" y="0.0" type="line"/>
    </contour>
  </outline>
</glyph>
<glyph name="Sha-cy" format="2">
  <advance width="1060.7469879518071"/>
  <unicode hex="0428"/>
  <outline>
    <contour>
      <point x="82.49397590361446" y="0.0" type="line"/>
      <point x="978.2530120481928" y="0.0" type="line"/>
      <point x="978.2530120481928" y="705.0" type="line"/>
      <point x="876.5421686746988" y="705.0" type="line"/>
      <point x="876.5421686746988" y="87.33734939759036" type="line"/>
      <point x="581.2289156626506" y="87.33734939759036" type="line"/>
      <point x="581.2289156626506" y="705.0" type="line"/>
      <point x="479.51807228915663" y="705.0" type="line"/>
      <point x="479.51807228915663" y="87.33734939759036" type="line"/>
      <point x="184.2048192771084" y="87.33734939759036" type="line"/>
      <point x="184.2048192771084" y="705.0" type="line"/>
      <point x="82.49397590361446" y="705.0" type="line"/>
    </contour>
  </outline>
</glyph>
<glyph name="Yeru-cy" format="2">
  <advance width="875.5542168674699"/>
  <unicode hex="042B"/>
  <anchor x="438.27710843373495" y="705.0" name="top"/>
  <outline>
    <contour>
      <point x="82.49397590361446" y="0.0" type="line"/>
      <point x="357.6144578313253" y="0.0" type="line" smooth="yes"/>
      <point x="506.4578313253012" y="0.0"/>
      <point x="594.144578313253" y="69.6867469879518"/>
      <point x="594.144578313253" y="201.66265060240963" type="curve" smooth="yes"/>
      <point x="594.144578313253" y="333.6385542168675"/>
      <point x="506.4578313253012" y="401.7469879518072"/>
      <point x="357.6144578313253" y="401.7469879518072" type="curve" smooth="yes"/>
      <point x="185.6265060240964" y="401.7469879518072" type="line"/>
      <point x="185.6265060240964" y="705.0" type="line"/>
      <point x="82.49397590361446" y="705.0" type="line"/>
    </contour>
    <contour>
      <point x="185.6265060240964" y="83.78313253012048" type="line"/>
      <point x="185.6265060240964" y="317.96385542168673" type="line"/>
      <point x="345.95180722891564" y="317.96385542168673" type="line" smooth="yes"/>
      <point x="445.49397590361446" y="317.96385542168673"/>
      <point x="493.27710843373495" y="280.6265060240964"/>
      <point x="493.27710843373495" y="201.3734939759036" type="curve" smooth="yes"/>
      <point x="493.27710843373495" y="121.40963855421687"/>
      <point x="445.49397590361446" y="83.78313253012048"/>
      <point x="345.95180722891564" y="83.78313253012048" type="curve" smooth="yes"/>
    </contour>
    <contour>
      <point x="689.9277108433735" y="0.0" type="line"/>
      <point x="793.0602409638554" y="0.0" type="line"/>
      <point x="793.0602409638554" y="705.0" type="line"/>
      <point x="689.9277108433735" y="705.0" type="line"/>
    </contour>
  </outline>
</glyph>
<glyph name="be-cy" format="2">
  <advance width="576.6987951807229"/>
  <unicode hex="0431"/>
  <outline>
    <contour>
      <point x="291.90361445783134" y="-9.421686746987952" type="curve" smooth="yes"/>
      <point x="434.855421686747" y="-9.421686746987952"/>
      <point x="528.5180722891566" y="78.93373493975905"/>
      <point x="528.5180722891566" y="219.8433734939759" type="curve" smooth="yes"/>
      <point x="528.5180722891566" y="356.06626506024094"/>
      <point x="441.96385542168673" y="442.0"/>
      <point x="317.65060240963857" y="442.0" type="curve" smooth="yes"/>
      <point x="218.21084337349396" y="442.0"/>
      <point x="150.3192771084337" y="386.3373493975904"/>
      <point x="129.58433734939757" y="309.1144578313253" type="curve"/>
      <point x="144.5602409638554" y="309.1144578313253" type="line"/>
      <point x="144.5602409638554" y="367.04216867469876" type="line" smooth="yes"/>
      <point x="144.5602409638554" y="482.00602409638554"/>
      <point x="198.16265060240966" y="545.987951807229"/>
      <point x="303.433734939759" y="579.8132530120482" type="curve" smooth="yes"/>
      <point x="498.51807228915663" y="640.2590361445783" type="line"/>
      <point x="466.94578313253015" y="720.9096385542168" type="line"/>
      <point x="288.7469879518072" y="664.0180722891566" type="line" smooth="yes"/>
      <point x="124.93373493975903" y="612.3072289156627"/>
      <point x="48.53614457831325" y="523.1987951807229"/>
      <point x="48.53614457831325" y="341.4879518072289" type="curve" smooth="yes"/>
      <point x="48.53614457831325" y="249.86144578313255" type="line" smooth="yes"/>
      <point x="48.53614457831325" y="78.28915662650603"/>
      <point x="141.90963855421685" y="-9.421686746987952"/>
    </contour>
    <contour>
      <point x="288.4156626506024" y="68.67469879518073" type="curve" smooth="yes"/>
      <point x="201.74096385542168" y="68.67469879518073"/>
      <point x="150.53614457831324" y="121.52409638554218"/>
      <point x="150.53614457831324" y="221.44578313253012" type="curve" smooth="yes"/>
      <point x="150.53614457831324" y="310.12048192771084"/>
      <point x="203.0301204819277" y="363.90361445783134"/>
      <point x="288.7048192771084" y="363.90361445783134" type="curve" smooth="yes"/>
      <point x="374.73493975903614" y="363.90361445783134"/>
      <point x="427.2289156626506" y="310.76506024096386"/>
      <point x="427.2289156626506" y="216.28915662650604" type="curve" smooth="yes"/>
      <point x="427.2289156626506" y="120.8132530120482"/>
      <point x="375.0903614457831" y="68.67469879518073"/>
    </contour>
  </outline>
</glyph>
<glyph name="ve-cy" format="2">
  <advance width="556.433734939759"/>
  <unicode hex="0432"/>
  <outline>
    <contour>
      <point x="75.91566265060241" y="0.0" type="line"/>
      <point x="344.94578313253015" y="0.0" type="line" smooth="yes"/>
      <point x="452.4759036144578" y="0.0"/>
      <point x="514.0963855421687" y="47.777108433734945"/>
      <point x="514.0963855421687" y="123.19879518072288" type="curve" smooth="yes"/>
      <point x="514.0963855421687" y="185.4879518072289"/>
      <point x="469.7831325301205" y="228.42168674698794"/>
      <point x="392.31927710843377" y="231.97590361445782" type="curve"/>
      <point x="392.31927710843377" y="219.55421686746988" type="line"/>
      <point x="454.3192771084337" y="227.6867469879518"/>
      <point x="497.6746987951807" y="267.9759036144578"/>
      <point x="497.6746987951807" y="323.5542168674699" type="curve" smooth="yes"/>
      <point x="497.6746987951807" y="396.71084337349396"/>
      <point x="446.3855421686747" y="437.5542168674699"/>
      <point x="336.94578313253015" y="437.5542168674699" type="curve" smooth="yes"/>
      <point x="75.91566265060241" y="437.5542168674699" type="line"/>
    </contour>
    <contour>
      <point x="170.16265060240966" y="61.23493975903614" type="line"/>
      <point x="170.16265060240966" y="192.69277108433735" type="line"/>
      <point x="335.7289156626506" y="192.69277108433735" type="line" smooth="yes"/>
      <point x="392.4457831325301" y="192.69277108433735"/>
      <point x="421.6265060240964" y="170.09036144578312"/>
      <point x="421.6265060240964" y="126.46385542168676" type="curve" smooth="yes"/>
      <point x="421.6265060240964" y="84.48192771084338"/>
      <point x="392.4457831325301" y="61.23493975903614"/>
      <point x="335.7289156626506" y="61.23493975903614" type="curve" smooth="yes"/>
    </contour>
    <contour>
      <point x="170.16265060240966" y="253.92771084337352" type="line"/>
      <point x="170.16265060240966" y="377.31927710843377" type="line"/>
      <point x="325.9518072289157" y="377.31927710843377" type="line" smooth="yes"/>
      <point x="377.66867469879514" y="377.31927710843377"/>
      <point x="405.2048192771084" y="355.1385542168675"/>
      <point x="405.2048192771084" y="316.15662650602405" type="curve" smooth="yes"/>
      <point x="405.2048192771084" y="276.8192771084337"/>
      <point x="377.66867469879514" y="253.92771084337352"/>
      <point x="325.9518072289157" y="253.92771084337352" type="curve" smooth="yes"/>
    </contour>
  </outline>
</glyph>
<glyph name="ge-cy" format="2">
  <advance width="444.855421686747"/>
  <unicode hex="0433"/>
  <anchor x="82.3132530120482" y="0.0" name="bottomright"/>
  <anchor x="156.32530120481928" y="220.4879518072289" name="center"/>
  <anchor x="237.6867469879518" y="484.0" name="top"/>
  <outline>
    <contour>
      <point x="75.91566265060241" y="0.0" type="line"/>
      <point x="176.9156626506024" y="0.0" type="line"/>
      <point x="176.9156626506024" y="357.5481927710843" type="line"/>
      <point x="430.0120481927711" y="357.5481927710843" type="line"/>
      <point x="430.0120481927711" y="437.5542168674699" type="line"/>
      <point x="75.91566265060241" y="437.5542168674699" type="line"/>
    </contour>
  </outline>
</glyph>
<glyph name="de-cy" format="2">
  <advance width="603.8313253012049"/>
  <unicode hex="0434"/>
  <outline>
    <contour>
      <point x="26.289156626506024" y="-130.0" type="line"/>
      <point x="112.62650602409639" y="-130.0" type="line"/>
      <point x="112.62650602409639" y="0.0" type="line"/>
      <point x="492.73493975903614" y="0.0" type="line"/>
      <point x="492.73493975903614" y="-130.0" type="line"/>
      <point x="579.0722891566265" y="-130.0" type="line"/>
      <point x="579.0722891566265" y="79.36144578313254" type="line"/>
      <point x="500.8072289156627" y="79.36144578313254" type="line"/>
      <point x="500.8072289156627" y="437.5542168674699" type="line"/>
      <point x="139.75903614457832" y="437.5542168674699" type="line"/>
      <point x="139.75903614457832" y="311.95180722891564" type="line" smooth="yes"/>
      <point x="139.75903614457832" y="204.77108433734938"/>
      <point x="122.73493975903614" y="136.1867469879518"/>
      <point x="78.97590361445783" y="79.36144578313254" type="curve"/>
      <point x="26.289156626506024" y="79.36144578313254" type="line"/>
    </contour>
    <contour>
      <point x="173.82530120481928" y="79.36144578313254" type="line"/>
      <point x="207.93975903614458" y="132.92168674698797"/>
      <point x="227.31927710843374" y="210.3734939759036"/>
      <point x="227.31927710843374" y="290.0481927710843" type="curve" smooth="yes"/>
      <point x="227.31927710843374" y="360.3253012048193" type="line"/>
      <point x="406.2048192771084" y="360.3253012048193" type="line"/>
      <point x="406.2048192771084" y="79.36144578313254" type="line"/>
    </contour>
  </outline>
</glyph>
<glyph name="zhe-cy" format="2">
  <advance width="803.4457831325301"/>
  <unicode hex="0436"/>
  <anchor x="704.9518072289156" y="0.0" name="bottomright"/>
  <anchor x="401.72289156626505" y="484.0" name="top"/>
  <outline>
    <contour>
      <point x="-2.596385542168674" y="0.0" type="line"/>
      <point x="106.60240963855422" y="0.0" type="line"/>
      <point x="191.00602409638554" y="129.37951807228916" type="line" smooth="yes"/>
      <point x="220.9879518072289" y="174.22891566265062"/>
      <point x="242.78915662650604" y="186.03012048192772"/>
      <point x="293.50602409638554" y="186.03012048192772" type="curve" smooth="yes"/>
      <point x="351.933734939759" y="186.03012048192772" type="line"/>
      <point x="351.933734939759" y="0.0" type="line"/>
      <point x="452.578313253012" y="0.0" type="line"/>
      <point x="452.578313253012" y="186.03012048192772" type="line"/>
      <point x="511.00602409638554" y="186.03012048192772" type="line" smooth="yes"/>
      <point x="561.0120481927711" y="186.03012048192772"/>
      <point x="583.5240963855422" y="174.22891566265062"/>
      <point x="613.1506024096385" y="129.37951807228916" type="curve" smooth="yes"/>
      <point x="697.9096385542169" y="0.0" type="line"/>
      <point x="806.0421686746988" y="0.0" type="line"/>
      <point x="704.1987951807229" y="159.4156626506024" type="line" smooth="yes"/>
      <point x="663.9277108433735" y="221.3313253012048"/>
      <point x="630.4638554216867" y="245.95180722891567"/>
      <point x="575.5963855421687" y="252.30722891566265" type="curve"/>
      <point x="594.5963855421687" y="220.82530120481925" type="line"/>
      <point x="782.3072289156627" y="437.5542168674699" type="line"/>
      <point x="672.2409638554217" y="437.5542168674699" type="line"/>
      <point x="521.4096385542168" y="263.6144578313253" type="line"/>
      <point x="452.578313253012" y="263.6144578313253" type="line"/>
      <point x="452.578313253012" y="437.5542168674699" type="line"/>
      <point x="351.933734939759" y="437.5542168674699" type="line"/>
      <point x="351.933734939759" y="263.6144578313253" type="line"/>
      <point x="283.1024096385542" y="263.6144578313253" type="line"/>
      <point x="131.56024096385542" y="437.5542168674699" type="line"/>
      <point x="21.13855421686747" y="437.5542168674699" type="line"/>
      <point x="210.56024096385542" y="220.82530120481925" type="line"/>
      <point x="228.84939759036143" y="252.30722891566265" type="line"/>
      <point x="173.98192771084337" y="245.95180722891567"/>
      <point x="140.2289156626506" y="221.3313253012048"/>
      <point x="100.9578313253012" y="159.4156626506024" type="curve" smooth="yes"/>
    </contour>
  </outline>
</glyph>
<glyph name="ze-cy" format="2">
  <advance width="506.855421686747"/>
  <unicode hex="0437"/>
  <anchor x="254.06024096385542" y="0.0" name="bottom"/>
  <anchor x="249.79518072289156" y="487.5542168674699" name="top"/>
  <outline>
    <contour>
      <point x="247.2168674698795" y="-9.421686746987952" type="curve" smooth="yes"/>
      <point x="389.0120481927711" y="-9.421686746987952"/>
      <point x="464.51807228915663" y="41.0"/>
      <point x="464.51807228915663" y="121.90963855421687" type="curve" smooth="yes"/>
      <point x="464.51807228915663" y="186.97590361445782"/>
      <point x="417.7168674698795" y="228.06626506024097"/>
      <point x="340.67469879518075" y="231.62048192771084" type="curve"/>
      <point x="340.67469879518075" y="219.55421686746988" type="line"/>
      <point x="405.09638554216866" y="227.33132530120483"/>
      <point x="447.7409638554217" y="267.9759036144578"/>
      <point x="447.7409638554217" y="322.26506024096386" type="curve" smooth="yes"/>
      <point x="447.7409638554217" y="400.3313253012048"/>
      <point x="379.789156626506" y="446.9759036144578"/>
      <point x="255.06024096385542" y="446.9759036144578" type="curve" smooth="yes"/>
      <point x="168.62048192771084" y="446.9759036144578"/>
      <point x="94.37951807228914" y="428.9759036144578"/>
      <point x="39.024096385542165" y="395.5301204819277" type="curve"/>
      <point x="66.84337349397592" y="332.8072289156626" type="line"/>
      <point x="117.77710843373494" y="361.69879518072287"/>
      <point x="173.13253012048193" y="377.3433734939759"/>
      <point x="242.55421686746988" y="377.3433734939759" type="curve" smooth="yes"/>
      <point x="321.1566265060241" y="377.3433734939759"/>
      <point x="354.2710843373494" y="354.00602409638554"/>
      <point x="354.2710843373494" y="314.80120481927713" type="curve" smooth="yes"/>
      <point x="354.2710843373494" y="277.9518072289157"/>
      <point x="326.5783132530121" y="256.4156626506024"/>
      <point x="275.01807228915663" y="256.4156626506024" type="curve" smooth="yes"/>
      <point x="159.09036144578315" y="256.4156626506024" type="line"/>
      <point x="159.09036144578315" y="187.00602409638554" type="line"/>
      <point x="285.8614457831325" y="187.00602409638554" type="line" smooth="yes"/>
      <point x="343.644578313253" y="187.00602409638554"/>
      <point x="371.40361445783134" y="166.4698795180723"/>
      <point x="371.40361445783134" y="125.04216867469879" type="curve" smooth="yes"/>
      <point x="371.40361445783134" y="81.19277108433735"/>
      <point x="333.6686746987952" y="61.21084337349397"/>
      <point x="246.86144578313252" y="61.21084337349397" type="curve" smooth="yes"/>
      <point x="176.15060240963857" y="61.21084337349397"/>
      <point x="107.6867469879518" y="78.43373493975903"/>
      <point x="59.1987951807229" y="111.1024096385542" type="curve"/>
      <point x="31.734939759036145" y="46.60240963855422" type="line"/>
      <point x="82.84337349397592" y="11.090361445783133"/>
      <point x="160.24096385542168" y="-9.421686746987952"/>
    </contour>
  </outline>
</glyph>
<glyph name="ii-cy" format="2">
  <advance width="593.0120481927711"/>
  <unicode hex="0438"/>
  <anchor x="425.49397590361446" y="0.0" name="bottomright"/>
  <anchor x="296.50602409638554" y="484.0" name="top"/>
  <outline>
    <contour>
      <point x="75.91566265060241" y="0.0" type="line"/>
      <point x="160.1204819277108" y="0.0" type="line"/>
      <point x="451.2048192771084" y="343.5783132530121" type="line"/>
      <point x="425.49397590361446" y="343.5783132530121" type="line"/>
      <point x="425.49397590361446" y="0.0" type="line"/>
      <point x="517.0963855421687" y="0.0" type="line"/>
      <point x="517.0963855421687" y="437.5542168674699" type="line"/>
      <point x="433.53614457831327" y="437.5542168674699" type="line"/>
      <point x="143.16265060240963" y="94.6867469879518" type="line"/>
      <point x="167.51807228915663" y="94.6867469879518" type="line"/>
      <point x="167.51807228915663" y="437.5542168674699" type="line"/>
      <point x="75.91566265060241" y="437.5542168674699" type="line"/>
    </contour>
  </outline>
</glyph>
<glyph name="ka-cy" format="2">
  <advance width="541.0722891566265"/>
  <unicode hex="043A"/>
  <anchor x="441.86746987951807" y="0.0" name="bottomright"/>
  <anchor x="263.4578313253012" y="220.4879518072289" name="center"/>
  <anchor x="297.7469879518072" y="484.0" name="top"/>
  <outline>
    <contour>
      <point x="75.91566265060241" y="0.0" type="line"/>
      <point x="176.9156626506024" y="0.0" type="line"/>
      <point x="176.9156626506024" y="186.03012048192772" type="line"/>
      <point x="247.92168674698794" y="186.03012048192772" type="line" smooth="yes"/>
      <point x="298.6385542168675" y="186.03012048192772"/>
      <point x="320.43975903614455" y="174.22891566265062"/>
      <point x="350.06626506024094" y="129.37951807228916" type="curve" smooth="yes"/>
      <point x="434.82530120481925" y="0.0" type="line"/>
      <point x="543.6686746987953" y="0.0" type="line"/>
      <point x="441.1144578313253" y="159.4156626506024" type="line" smooth="yes"/>
      <point x="400.8433734939759" y="221.3313253012048"/>
      <point x="368.0903614457831" y="245.95180722891567"/>
      <point x="313.22289156626505" y="252.30722891566265" type="curve"/>
      <point x="334.355421686747" y="220.82530120481925" type="line"/>
      <point x="519.9337349397591" y="437.5542168674699" type="line"/>
      <point x="409.86746987951807" y="437.5542168674699" type="line"/>
      <point x="258.32530120481925" y="263.6144578313253" type="line"/>
      <point x="176.9156626506024" y="263.6144578313253" type="line"/>
      <point x="176.9156626506024" y="437.5542168674699" type="line"/>
      <point x="75.91566265060241" y="437.5542168674699" type="line"/>
    </contour>
  </outline>
</glyph>
<glyph name="em-cy" format="2">
  <advance width="670.8313253012049"/>
  <unicode hex="043C"/>
  <anchor x="505.73493975903614" y="0.0" name="bottomright"/>
  <outline>
    <contour>
      <point x="75.91566265060241" y="0.0" type="line"/>
      <point x="165.09638554216866" y="0.0" type="line"/>
      <point x="165.09638554216866" y="333.84337349397595" type="line"/>
      <point x="138.76506024096383" y="333.84337349397595" type="line"/>
      <point x="311.3313253012048" y="70.77710843373494" type="line"/>
      <point x="360.144578313253" y="70.77710843373494" type="line"/>
      <point x="532.066265060241" y="333.84337349397595" type="line"/>
      <point x="505.73493975903614" y="333.84337349397595" type="line"/>
      <point x="505.73493975903614" y="0.0" type="line"/>
      <point x="594.9156626506024" y="0.0" type="line"/>
      <point x="594.9156626506024" y="437.5542168674699" type="line"/>
      <point x="513.6445783132531" y="437.5542168674699" type="line"/>
      <point x="335.7710843373494" y="163.69277108433735" type="line"/>
      <point x="158.5421686746988" y="437.5542168674699" type="line"/>
      <point x="75.91566265060241" y="437.5542168674699" type="line"/>
    </contour>
  </outline>
</glyph>
<glyph name="en-cy" format="2">
  <advance width="596.433734939759"/>
  <unicode hex="043D"/>
  <anchor x="425.9156626506024" y="0.0" name="bottomright"/>
  <outline>
    <contour>
      <point x="75.91566265060241" y="0.0" type="line"/>
      <point x="176.9156626506024" y="0.0" type="line"/>
      <point x="176.9156626506024" y="185.0301204819277" type="line"/>
      <point x="419.51807228915663" y="185.0301204819277" type="line"/>
      <point x="419.51807228915663" y="0.0" type="line"/>
      <point x="520.5180722891566" y="0.0" type="line"/>
      <point x="520.5180722891566" y="437.5542168674699" type="line"/>
      <point x="419.51807228915663" y="437.5542168674699" type="line"/>
      <point x="419.51807228915663" y="265.03614457831327" type="line"/>
      <point x="176.9156626506024" y="265.03614457831327" type="line"/>
      <point x="176.9156626506024" y="437.5542168674699" type="line"/>
      <point x="75.91566265060241" y="437.5542168674699" type="line"/>
    </contour>
  </outline>
</glyph>
<glyph name="ef-cy" format="2">
  <advance width="814.289156626506"/>
  <unicode hex="0444"/>
  <outline>
    <contour>
      <point x="357.0" y="-180.0" type="line"/>
      <point x="458.0" y="-180.0" type="line"/>
      <point x="458.0" y="92.4277108433735" type="line"/>
      <point x="447.22289156626505" y="92.4277108433735" type="line"/>
      <point x="468.355421686747" y="29.02409638554217"/>
      <point x="516.0" y="-9.421686746987952"/>
      <point x="586.867469879518" y="-9.421686746987952" type="curve" smooth="yes"/>
      <point x="695.4216867469879" y="-9.421686746987952"/>
      <point x="766.1084337349398" y="81.42168674698794"/>
      <point x="766.1084337349398" y="219.13253012048193" type="curve" smooth="yes"/>
      <point x="766.1084337349398" y="358.1987951807229"/>
      <point x="694.710843373494" y="446.9759036144578"/>
      <point x="586.867469879518" y="446.9759036144578" type="curve" smooth="yes"/>
      <point x="515.644578313253" y="446.9759036144578"/>
      <point x="467.28915662650604" y="408.17469879518075"/>
      <point x="447.22289156626505" y="345.83734939759034" type="curve"/>
      <point x="458.0" y="345.83734939759034" type="line"/>
      <point x="458.0" y="705.0" type="line"/>
      <point x="357.0" y="705.0" type="line"/>
      <point x="357.0" y="346.54819277108436" type="line"/>
      <point x="366.71084337349396" y="346.54819277108436" type="line"/>
      <point x="346.28915662650604" y="409.2409638554217"/>
      <point x="299.0" y="446.9759036144578"/>
      <point x="227.42168674698794" y="446.9759036144578" type="curve" smooth="yes"/>
      <point x="119.93373493975903" y="446.9759036144578"/>
      <point x="48.53614457831325" y="358.1987951807229"/>
      <point x="48.53614457831325" y="219.13253012048193" type="curve" smooth="yes"/>
      <point x="48.53614457831325" y="81.42168674698794"/>
      <point x="120.22289156626506" y="-9.421686746987952"/>
      <point x="227.42168674698794" y="-9.421686746987952" type="curve" smooth="yes"/>
      <point x="298.644578313253" y="-9.421686746987952"/>
      <point x="345.93373493975906" y="27.957831325301207"/>
      <point x="366.71084337349396" y="91.36144578313254" type="curve"/>
      <point x="357.0" y="91.36144578313254" type="line"/>
    </contour>
    <contour>
      <point x="253.94578313253012" y="67.67469879518073" type="curve" smooth="yes"/>
      <point x="188.22891566265062" y="67.67469879518073"/>
      <point x="148.46987951807228" y="119.8132530120482"/>
      <point x="148.46987951807228" y="219.13253012048193" type="curve" smooth="yes"/>
      <point x="148.46987951807228" y="317.16265060240966"/>
      <point x="189.22891566265062" y="370.23493975903614"/>
      <point x="253.94578313253012" y="370.23493975903614" type="curve" smooth="yes"/>
      <point x="318.2409638554217" y="370.23493975903614"/>
      <point x="358.71084337349396" y="315.8734939759036"/>
      <point x="358.71084337349396" y="219.13253012048193" type="curve" smooth="yes"/>
      <point x="358.71084337349396" y="121.10240963855422"/>
      <point x="318.95180722891564" y="67.67469879518073"/>
    </contour>
    <contour>
      <point x="561.0542168674699" y="67.67469879518073" type="curve" smooth="yes"/>
      <point x="496.04819277108436" y="67.67469879518073"/>
      <point x="456.28915662650604" y="121.10240963855422"/>
      <point x="456.28915662650604" y="219.13253012048193" type="curve" smooth="yes"/>
      <point x="456.28915662650604" y="315.8734939759036"/>
      <point x="495.6927710843374" y="370.23493975903614"/>
      <point x="561.0542168674699" y="370.23493975903614" type="curve" smooth="yes"/>
      <point x="626.0602409638553" y="370.23493975903614"/>
      <point x="666.1746987951808" y="317.16265060240966"/>
      <point x="666.1746987951808" y="219.13253012048193" type="curve" smooth="yes"/>
      <point x="666.1746987951808" y="119.8132530120482"/>
      <point x="626.4156626506025" y="67.67469879518073"/>
    </contour>
  </outline>
</glyph>
<glyph name="tse-cy" format="2">
  <advance width="609.1204819277109"/>
  <unicode hex="0446"/>
  <outline>
    <contour>
      <point x="498.0240963855422" y="-130.0" type="line"/>
      <point x="584.3614457831325" y="-130.0" type="line"/>
      <point x="584.3614457831325" y="79.71686746987952" type="line"/>
      <point x="506.09638554216866" y="79.71686746987952" type="line"/>
      <point x="506.09638554216866" y="437.5542168674699" type="line"/>
      <point x="405.09638554216866" y="437.5542168674699" type="line"/>
      <point x="405.09638554216866" y="79.71686746987952" type="line"/>
      <point x="176.9156626506024" y="79.71686746987952" type="line"/>
      <point x="176.9156626506024" y="437.5542168674699" type="line"/>
      <point x="75.91566265060241" y="437.5542168674699" type="line"/>
      <point x="75.91566265060241" y="0.0" type="line"/>
      <point x="498.0240963855422" y="0.0" type="line"/>
    </contour>
  </outline>
</glyph>
<glyph name="che-cy" format="2">
  <advance width="561.855421686747"/>
  <unicode hex="0447"/>
  <anchor x="391.33734939759034" y="0.0" name="bottomright"/>
  <anchor x="270.9277108433735" y="180.0" name="center"/>
  <anchor x="270.9277108433735" y="484.0" name="top"/>
  <outline>
    <contour>
      <point x="386.3614457831325" y="0.0" type="line"/>
      <point x="485.93975903614455" y="0.0" type="line"/>
      <point x="485.93975903614455" y="437.5542168674699" type="line"/>
      <point x="384.93975903614455" y="437.5542168674699" type="line"/>
      <point x="384.93975903614455" y="248.41566265060243" type="line"/>
      <point x="354.0240963855422" y="229.87951807228916"/>
      <point x="322.26506024096386" y="221.43373493975903"/>
      <point x="279.6144578313253" y="221.43373493975903" type="curve" smooth="yes"/>
      <point x="192.67469879518072" y="221.43373493975903"/>
      <point x="156.6265060240964" y="260.6144578313253"/>
      <point x="156.6265060240964" y="345.9759036144578" type="curve" smooth="yes"/>
      <point x="156.6265060240964" y="437.5542168674699" type="line"/>
      <point x="55.626506024096386" y="437.5542168674699" type="line"/>
      <point x="55.626506024096386" y="338.22289156626505" type="line" smooth="yes"/>
      <point x="55.626506024096386" y="206.4036144578313"/>
      <point x="122.73493975903614" y="138.7168674698795"/>
      <point x="264.26506024096386" y="138.7168674698795" type="curve" smooth="yes"/>
      <point x="308.89156626506025" y="138.7168674698795"/>
      <point x="349.49397590361446" y="148.45180722891564"/>
      <point x="386.3614457831325" y="165.83132530120483" type="curve"/>
    </contour>
  </outline>
</glyph>
<glyph name="hardsign-cy" format="2">
  <advance width="622.8795180722891"/>
  <unicode hex="044A"/>
  <outline>
    <contour>
      <point x="155.18072289156626" y="0.0" type="line"/>
      <point x="406.78915662650604" y="0.0" type="line" smooth="yes"/>
      <point x="520.9216867469879" y="0.0"/>
      <point x="586.2530120481928" y="54.75301204819277"/>
      <point x="586.2530120481928" y="147.01807228915663" type="curve" smooth="yes"/>
      <point x="586.2530120481928" y="240.06024096385542"/>
      <point x="524.8313253012049" y="289.83734939759034"/>
      <point x="406.78915662650604" y="289.83734939759034" type="curve" smooth="yes"/>
      <point x="256.18072289156623" y="289.83734939759034" type="line"/>
      <point x="256.18072289156623" y="437.5542168674699" type="line"/>
      <point x="5.843373493975903" y="437.5542168674699" type="line"/>
      <point x="5.843373493975903" y="358.1927710843373" type="line"/>
      <point x="155.18072289156626" y="358.1927710843373" type="line"/>
    </contour>
    <contour>
      <point x="256.18072289156623" y="66.56626506024097" type="line"/>
      <point x="256.18072289156623" y="224.2710843373494" type="line"/>
      <point x="392.43975903614455" y="224.2710843373494" type="line" smooth="yes"/>
      <point x="455.73493975903614" y="224.2710843373494"/>
      <point x="492.0722891566265" y="198.66867469879517"/>
      <point x="492.0722891566265" y="145.95180722891564" type="curve" smooth="yes"/>
      <point x="492.0722891566265" y="91.87951807228916"/>
      <point x="455.0240963855422" y="66.56626506024097"/>
      <point x="392.43975903614455" y="66.56626506024097" type="curve" smooth="yes"/>
    </contour>
  </outline>
</glyph>
<glyph name="softsign-cy" format="2">
  <advance width="544.3253012048193"/>
  <unicode hex="044C"/>
  <outline>
    <contour>
      <point x="75.91566265060241" y="0.0" type="line"/>
      <point x="328.23493975903614" y="0.0" type="line" smooth="yes"/>
      <point x="442.36746987951807" y="0.0"/>
      <point x="507.69879518072287" y="54.75301204819277"/>
      <point x="507.69879518072287" y="147.01807228915663" type="curve" smooth="yes"/>
      <point x="507.69879518072287" y="240.06024096385542"/>
      <point x="445.56626506024094" y="289.83734939759034"/>
      <point x="328.23493975903614" y="289.83734939759034" type="curve" smooth="yes"/>
      <point x="176.9156626506024" y="289.83734939759034" type="line"/>
      <point x="176.9156626506024" y="437.5542168674699" type="line"/>
      <point x="75.91566265060241" y="437.5542168674699" type="line"/>
    </contour>
    <contour>
      <point x="176.9156626506024" y="66.56626506024097" type="line"/>
      <point x="176.9156626506024" y="224.2710843373494" type="line"/>
      <point x="313.88554216867465" y="224.2710843373494" type="line" smooth="yes"/>
      <point x="376.4698795180723" y="224.2710843373494"/>
      <point x="413.51807228915663" y="198.66867469879517"/>
      <point x="413.51807228915663" y="145.95180722891564" type="curve" smooth="yes"/>
      <point x="413.51807228915663" y="91.87951807228916"/>
      <point x="376.4698795180723" y="66.56626506024097"/>
      <point x="313.88554216867465" y="66.56626506024097" type="curve" smooth="yes"/>
    </contour>
  </outline>
</glyph>
<glyph name="ereversed-cy" format="2">
  <advance width="500.144578313253"/>
  <unicode hex="044D"/>
  <anchor x="221.2168674698795" y="484.0" name="top"/>
  <outline>
    <contour>
      <point x="203.95180722891567" y="-9.421686746987952" type="curve" smooth="yes"/>
      <point x="356.23493975903614" y="-9.421686746987952"/>
      <point x="451.96385542168673" y="80.22289156626506"/>
      <point x="451.96385542168673" y="219.77710843373495" type="curve" smooth="yes"/>
      <point x="451.96385542168673" y="360.26506024096386"/>
      <point x="358.45783132530124" y="446.9759036144578"/>
      <point x="202.81927710843374" y="446.9759036144578" type="curve" smooth="yes"/>
      <point x="137.97590361445782" y="446.9759036144578"/>
      <point x="67.71084337349397" y="426.46385542168673"/>
      <point x="25.156626506024097" y="391.95180722891564" type="curve"/>
      <point x="53.975903614457835" y="328.8734939759036" type="line"/>
      <point x="95.39759036144578" y="362.4759036144579"/>
      <point x="148.90963855421685" y="376.6987951807229"/>
      <point x="197.8433734939759" y="376.6987951807229" type="curve" smooth="yes"/>
      <point x="297.2951807228916" y="376.6987951807229"/>
      <point x="348.09638554216866" y="323.6024096385542"/>
      <point x="357.0722891566265" y="241.2409638554217" type="curve"/>
      <point x="366.84939759036143" y="257.34939759036143" type="line"/>
      <point x="116.97590361445783" y="257.34939759036143" type="line"/>
      <point x="116.97590361445783" y="186.8734939759036" type="line"/>
      <point x="366.84939759036143" y="186.8734939759036" type="line"/>
      <point x="357.0722891566265" y="206.24698795180723" type="line"/>
      <point x="351.51807228915663" y="113.79518072289156"/>
      <point x="292.78313253012044" y="60.855421686746986"/>
      <point x="197.8433734939759" y="60.855421686746986" type="curve" smooth="yes"/>
      <point x="148.97590361445782" y="60.855421686746986"/>
      <point x="95.39759036144578" y="76.43373493975903"/>
      <point x="53.975903614457835" y="109.32530120481928" type="curve"/>
      <point x="25.156626506024097" y="46.95783132530121" type="line"/>
      <point x="64.48795180722892" y="11.44578313253012"/>
      <point x="136.0421686746988" y="-9.421686746987952"/>
    </contour>
  </outline>
</glyph>
<glyph name="iu-cy" format="2">
  <advance width="790.2650602409639"/>
  <unicode hex="044E"/>
  <outline>
    <contour>
      <point x="501.9156626506024" y="-9.421686746987952" type="curve" smooth="yes"/>
      <point x="647.4879518072289" y="-9.421686746987952"/>
      <point x="742.0843373493976" y="79.0"/>
      <point x="742.0843373493976" y="219.13253012048193" type="curve" smooth="yes"/>
      <point x="742.0843373493976" y="358.9096385542169"/>
      <point x="647.4879518072289" y="446.9759036144578"/>
      <point x="501.9156626506024" y="446.9759036144578" type="curve" smooth="yes"/>
      <point x="375.29518072289153" y="446.9759036144578"/>
      <point x="286.8975903614458" y="377.72891566265065"/>
      <point x="267.7228915662651" y="265.03614457831327" type="curve"/>
      <point x="174.49397590361446" y="265.03614457831327" type="line"/>
      <point x="174.49397590361446" y="437.9096385542169" type="line"/>
      <point x="75.91566265060241" y="437.9096385542169" type="line"/>
      <point x="75.91566265060241" y="0.0" type="line"/>
      <point x="174.49397590361446" y="0.0" type="line"/>
      <point x="174.49397590361446" y="185.31927710843374" type="line"/>
      <point x="266.7228915662651" y="185.31927710843374" type="line"/>
      <point x="281.67469879518075" y="65.04819277108433"/>
      <point x="371.3614457831325" y="-9.421686746987952"/>
    </contour>
    <contour>
      <point x="501.9156626506024" y="68.67469879518073" type="curve" smooth="yes"/>
      <point x="417.59638554216866" y="68.67469879518073"/>
      <point x="363.03614457831327" y="123.74698795180723"/>
      <point x="363.03614457831327" y="219.13253012048193" type="curve" smooth="yes"/>
      <point x="363.03614457831327" y="315.1626506024096"/>
      <point x="417.59638554216866" y="369.23493975903614"/>
      <point x="501.9156626506024" y="369.23493975903614" type="curve" smooth="yes"/>
      <point x="587.5903614457831" y="369.23493975903614"/>
      <point x="640.7951807228916" y="315.1626506024096"/>
      <point x="640.7951807228916" y="219.13253012048193" type="curve" smooth="yes"/>
      <point x="640.7951807228916" y="123.74698795180723"/>
      <point x="587.5903614457831" y="68.67469879518073"/>
    </contour>
  </outline>
</glyph>
<glyph name="ia-cy" format="2">
  <advance width="549.144578313253"/>
  <unicode hex="044F"/>
  <outline>
    <contour>
      <point x="35.07228915662651" y="0.0" type="line"/>
      <point x="149.75903614457832" y="0.0" type="line"/>
      <point x="214.9156626506024" y="102.80120481927712" type="line" smooth="yes"/>
      <point x="236.2289156626506" y="134.2710843373494"/>
      <point x="265.4759036144578" y="158.80722891566268"/>
      <point x="311.1927710843373" y="158.80722891566268" type="curve" smooth="yes"/>
      <point x="378.6265060240964" y="158.80722891566268" type="line"/>
      <point x="378.6265060240964" y="0.0" type="line"/>
      <point x="473.2289156626506" y="0.0" type="line"/>
      <point x="473.2289156626506" y="437.5542168674699" type="line"/>
      <point x="230.42168674698794" y="437.5542168674699" type="line" smooth="yes"/>
      <point x="113.66867469879517" y="437.5542168674699"/>
      <point x="57.204819277108435" y="386.19879518072287"/>
      <point x="57.204819277108435" y="304.5120481927711" type="curve" smooth="yes"/>
      <point x="57.204819277108435" y="221.24698795180723"/>
      <point x="114.40361445783132" y="172.89156626506022"/>
      <point x="225.57831325301206" y="172.89156626506022" type="curve"/>
      <point x="225.57831325301206" y="182.09036144578315" type="line"/>
      <point x="209.6265060240964" y="182.09036144578315" type="line" smooth="yes"/>
      <point x="172.71686746987953" y="182.09036144578315"/>
      <point x="134.2289156626506" y="154.8012048192771"/>
      <point x="109.2289156626506" y="115.02409638554217" type="curve" smooth="yes"/>
    </contour>
    <contour>
      <point x="250.99397590361446" y="222.8855421686747" type="line" smooth="yes"/>
      <point x="184.1867469879518" y="222.8855421686747"/>
      <point x="153.51807228915663" y="250.90963855421688"/>
      <point x="153.51807228915663" y="299.1807228915663" type="curve" smooth="yes"/>
      <point x="153.51807228915663" y="346.45180722891564"/>
      <point x="184.1867469879518" y="373.76506024096386"/>
      <point x="250.99397590361446" y="373.76506024096386" type="curve" smooth="yes"/>
      <point x="378.6265060240964" y="373.76506024096386" type="line"/>
      <point x="378.6265060240964" y="222.8855421686747" type="line"/>
    </contour>
  </outline>
</glyph>
<glyph name="dje-cy" format="2">
  <advance width="578.7981927710842"/>
  <unicode hex="0452"/>
  <outline>
    <contour>
      <point x="322.4578313253012" y="-186.42168674698794" type="line"/>
      <point x="472.3855421686747" y="-149.89156626506025"/>
      <point x="514.2289156626506" y="-67.91566265060241"/>
      <point x="514.2289156626506" y="62.62048192771084" type="curve" smooth="yes"/>
      <point x="514.2289156626506" y="260.5783132530121" type="line" smooth="yes"/>
      <point x="514.2289156626506" y="388.26506024096386"/>
      <point x="458.0722891566265" y="450.5301204819277"/>
      <point x="341.3614457831325" y="450.5301204819277" type="curve" smooth="yes"/>
      <point x="260.91566265060237" y="450.5301204819277"/>
      <point x="194.89156626506025" y="411.9277108433735"/>
      <point x="167.69277108433735" y="343.2590361445783" type="curve"/>
      <point x="178.33734939759034" y="343.2590361445783" type="line"/>
      <point x="178.33734939759034" y="519.2048192771084" type="line"/>
      <point x="369.65060240963857" y="519.2048192771084" type="line"/>
      <point x="369.65060240963857" y="592.1686746987951" type="line"/>
      <point x="178.33734939759034" y="592.1686746987951" type="line"/>
      <point x="178.33734939759034" y="705.0" type="line"/>
      <point x="77.33734939759036" y="705.0" type="line"/>
      <point x="77.33734939759036" y="592.1686746987951" type="line"/>
      <point x="-12.686746987951807" y="592.1686746987951" type="line"/>
      <point x="-12.686746987951807" y="519.2048192771084" type="line"/>
      <point x="77.33734939759036" y="519.2048192771084" type="line"/>
      <point x="77.33734939759036" y="0.0" type="line"/>
      <point x="178.33734939759034" y="0.0" type="line"/>
      <point x="178.33734939759034" y="235.06626506024097" type="line" smooth="yes"/>
      <point x="178.33734939759034" y="316.4518072289157"/>
      <point x="231.40963855421685" y="369.94578313253015"/>
      <point x="312.50602409638554" y="369.94578313253015" type="curve" smooth="yes"/>
      <point x="379.6265060240964" y="369.94578313253015"/>
      <point x="413.2289156626506" y="335.5421686746988"/>
      <point x="413.2289156626506" y="254.37951807228913" type="curve" smooth="yes"/>
      <point x="413.2289156626506" y="60.331325301204814" type="line" smooth="yes"/>
      <point x="413.2289156626506" y="-37.963855421686745"/>
      <point x="390.7831325301205" y="-86.03614457831326"/>
      <point x="292.8433734939759" y="-110.32530120481928" type="curve"/>
    </contour>
  </outline>
</glyph>
<glyph name="e-cy" format="2">
  <advance width="500.855421686747"/>
  <unicode hex="0454"/>
  <outline>
    <contour>
      <point x="297.2590361445783" y="-9.421686746987952" type="curve" smooth="yes"/>
      <point x="365.1686746987952" y="-9.421686746987952"/>
      <point x="436.0120481927711" y="11.44578313253012"/>
      <point x="476.0542168674699" y="46.95783132530121" type="curve"/>
      <point x="447.87951807228916" y="108.68072289156626" type="line"/>
      <point x="405.81325301204816" y="76.43373493975903"/>
      <point x="352.8132530120482" y="60.855421686746986"/>
      <point x="303.36746987951807" y="60.855421686746986" type="curve" smooth="yes"/>
      <point x="207.71686746987953" y="60.855421686746986"/>
      <point x="150.33734939759034" y="113.79518072289156"/>
      <point x="143.4277108433735" y="206.24698795180723" type="curve"/>
      <point x="134.2951807228916" y="186.8734939759036" type="line"/>
      <point x="384.23493975903614" y="186.8734939759036" type="line"/>
      <point x="384.23493975903614" y="257.34939759036143" type="line"/>
      <point x="133.65060240963857" y="257.34939759036143" type="line"/>
      <point x="143.4277108433735" y="240.5963855421687" type="line"/>
      <point x="151.75903614457832" y="322.9578313253012"/>
      <point x="203.84939759036143" y="376.6987951807229"/>
      <point x="303.36746987951807" y="376.6987951807229" type="curve" smooth="yes"/>
      <point x="352.87951807228916" y="376.6987951807229"/>
      <point x="405.1024096385542" y="362.4759036144579"/>
      <point x="447.87951807228916" y="328.8734939759036" type="curve"/>
      <point x="476.0542168674699" y="391.3072289156626" type="line"/>
      <point x="437.433734939759" y="426.46385542168673"/>
      <point x="369.1686746987952" y="446.9759036144578"/>
      <point x="301.4578313253012" y="446.9759036144578" type="curve" smooth="yes"/>
      <point x="144.3313253012048" y="446.9759036144578"/>
      <point x="48.53614457831325" y="360.9096385542169"/>
      <point x="48.53614457831325" y="221.06626506024097" type="curve" smooth="yes"/>
      <point x="48.53614457831325" y="80.86746987951807"/>
      <point x="143.6867469879518" y="-9.421686746987952"/>
    </contour>
  </outline>
</glyph>
<glyph name="lje-cy" format="2">
  <advance width="873.9277108433735"/>
  <unicode hex="0459"/>
  <outline>
    <contour>
      <point x="55.10843373493976" y="-12.55421686746988" type="line"/>
      <point x="180.59036144578312" y="19.873493975903614"/>
      <point x="230.51807228915663" y="112.04819277108433"/>
      <point x="230.51807228915663" y="305.9457831325301" type="curve" smooth="yes"/>
      <point x="230.51807228915663" y="357.83734939759034" type="line"/>
      <point x="407.65060240963857" y="357.83734939759034" type="line"/>
      <point x="407.65060240963857" y="0.0" type="line"/>
      <point x="657.8373493975904" y="0.0" type="line" smooth="yes"/>
      <point x="771.9698795180723" y="0.0"/>
      <point x="837.3012048192771" y="54.75301204819277"/>
      <point x="837.3012048192771" y="147.01807228915663" type="curve" smooth="yes"/>
      <point x="837.3012048192771" y="240.06024096385542"/>
      <point x="775.1686746987951" y="289.83734939759034"/>
      <point x="657.8373493975904" y="289.83734939759034" type="curve" smooth="yes"/>
      <point x="506.51807228915663" y="289.83734939759034" type="line"/>
      <point x="506.51807228915663" y="437.5542168674699" type="line"/>
      <point x="136.9156626506024" y="437.5542168674699" type="line"/>
      <point x="136.9156626506024" y="309.078313253012" type="line" smooth="yes"/>
      <point x="136.9156626506024" y="156.1265060240964"/>
      <point x="108.49397590361446" y="96.144578313253"/>
      <point x="21.02409638554217" y="68.00602409638553" type="curve"/>
    </contour>
    <contour>
      <point x="506.51807228915663" y="66.56626506024097" type="line"/>
      <point x="506.51807228915663" y="224.2710843373494" type="line"/>
      <point x="643.4879518072289" y="224.2710843373494" type="line" smooth="yes"/>
      <point x="706.0722891566265" y="224.2710843373494"/>
      <point x="743.1204819277109" y="198.66867469879517"/>
      <point x="743.1204819277109" y="145.95180722891564" type="curve" smooth="yes"/>
      <point x="743.1204819277109" y="91.87951807228916"/>
      <point x="706.0722891566265" y="66.56626506024097"/>
      <point x="643.4879518072289" y="66.56626506024097" type="curve" smooth="yes"/>
    </contour>
  </outline>
</glyph>
<glyph name="nje-cy" format="2">
  <advance width="887.2168674698795"/>
  <unicode hex="045A"/>
  <outline>
    <contour>
      <point x="75.91566265060241" y="0.0" type="line"/>
      <point x="176.9156626506024" y="0.0" type="line"/>
      <point x="176.9156626506024" y="185.0301204819277" type="line"/>
      <point x="419.51807228915663" y="185.0301204819277" type="line"/>
      <point x="419.51807228915663" y="0.0" type="line"/>
      <point x="671.1265060240963" y="0.0" type="line" smooth="yes"/>
      <point x="785.2590361445783" y="0.0"/>
      <point x="850.5903614457832" y="54.75301204819277"/>
      <point x="850.5903614457832" y="147.01807228915663" type="curve" smooth="yes"/>
      <point x="850.5903614457832" y="240.06024096385542"/>
      <point x="789.1686746987951" y="289.83734939759034"/>
      <point x="671.1265060240963" y="289.83734939759034" type="curve" smooth="yes"/>
      <point x="520.5180722891566" y="289.83734939759034" type="line"/>
      <point x="520.5180722891566" y="437.5542168674699" type="line"/>
      <point x="419.51807228915663" y="437.5542168674699" type="line"/>
      <point x="419.51807228915663" y="265.03614457831327" type="line"/>
      <point x="176.9156626506024" y="265.03614457831327" type="line"/>
      <point x="176.9156626506024" y="437.5542168674699" type="line"/>
      <point x="75.91566265060241" y="437.5542168674699" type="line"/>
    </contour>
    <contour>
      <point x="520.5180722891566" y="66.56626506024097" type="line"/>
      <point x="520.5180722891566" y="224.2710843373494" type="line"/>
      <point x="656.777108433735" y="224.2710843373494" type="line" smooth="yes"/>
      <point x="720.0722891566265" y="224.2710843373494"/>
      <point x="756.4096385542168" y="198.66867469879517"/>
      <point x="756.4096385542168" y="145.95180722891564" type="curve" smooth="yes"/>
      <point x="756.4096385542168" y="91.87951807228916"/>
      <point x="719.3614457831325" y="66.56626506024097"/>
      <point x="656.777108433735" y="66.56626506024097" type="curve" smooth="yes"/>
    </contour>
  </outline>
</glyph>
<glyph name="dzhe-cy" format="2">
  <advance width="593.433734939759"/>
  <unicode hex="045F"/>
  <outline>
    <contour>
      <point x="253.04819277108433" y="-130.0" type="line"/>
      <point x="339.3855421686747" y="-130.0" type="line"/>
      <point x="339.3855421686747" y="0.0" type="line"/>
      <point x="517.5180722891566" y="0.0" type="line"/>
      <point x="517.5180722891566" y="437.5542168674699" type="line"/>
      <point x="416.51807228915663" y="437.5542168674699" type="line"/>
      <point x="416.51807228915663" y="79.71686746987952" type="line"/>
      <point x="176.9156626506024" y="79.71686746987952" type="line"/>
      <point x="176.9156626506024" y="437.5542168674699" type="line"/>
      <point x="75.91566265060241" y="437.5542168674699" type="line"/>
      <point x="75.91566265060241" y="0.0" type="line"/>
      <point x="253.04819277108433" y="0.0" type="line"/>
    </contour>
  </outline>
</glyph>
<glyph name="Yat-cy" format="2">
  <advance width="732.5903614457832"/>
  <unicode hex="0462"/>
  <outline>
    <contour>
      <point x="152.57831325301206" y="0.0" type="line"/>
      <point x="454.144578313253" y="0.0" type="line" smooth="yes"/>
      <point x="603.6987951807229" y="0.0"/>
      <point x="690.6746987951807" y="69.6867469879518"/>
      <point x="690.6746987951807" y="201.66265060240963" type="curve" smooth="yes"/>
      <point x="690.6746987951807" y="333.6385542168675"/>
      <point x="603.6987951807229" y="401.7469879518072"/>
      <point x="454.144578313253" y="401.7469879518072" type="curve" smooth="yes"/>
      <point x="252.1566265060241" y="401.7469879518072" type="line"/>
      <point x="252.1566265060241" y="530.2289156626506" type="line"/>
      <point x="490.0240963855422" y="530.2289156626506" type="line"/>
      <point x="490.0240963855422" y="607.6144578313254" type="line"/>
      <point x="252.1566265060241" y="607.6144578313254" type="line"/>
      <point x="252.1566265060241" y="705.0" type="line"/>
      <point x="152.57831325301206" y="705.0" type="line"/>
      <point x="152.57831325301206" y="607.6144578313254" type="line"/>
      <point x="-20.0" y="607.6144578313254" type="line"/>
      <point x="-20.0" y="530.2289156626506" type="line"/>
      <point x="152.57831325301206" y="530.2289156626506" type="line"/>
    </contour>
    <contour>
      <point x="252.1566265060241" y="83.78313253012048" type="line"/>
      <point x="252.1566265060241" y="317.96385542168673" type="line"/>
      <point x="443.1927710843373" y="317.96385542168673" type="line" smooth="yes"/>
      <point x="542.0240963855422" y="317.96385542168673"/>
      <point x="590.5180722891566" y="280.6265060240964"/>
      <point x="590.5180722891566" y="201.3734939759036" type="curve" smooth="yes"/>
      <point x="590.5180722891566" y="121.40963855421687"/>
      <point x="542.0240963855422" y="83.78313253012048"/>
      <point x="443.1927710843373" y="83.78313253012048" type="curve" smooth="yes"/>
    </contour>
  </outline>
</glyph>
<glyph name="yat-cy" format="2">
  <advance width="623.5903614457832"/>
  <unicode hex="0463"/>
  <outline>
    <contour>
      <point x="155.18072289156626" y="0.0" type="line"/>
      <point x="405.72289156626505" y="0.0" type="line" smooth="yes"/>
      <point x="519.8554216867469" y="0.0"/>
      <point x="586.9638554216867" y="58.307228915662655"/>
      <point x="586.9638554216867" y="149.50602409638554" type="curve" smooth="yes"/>
      <point x="586.9638554216867" y="242.9036144578313"/>
      <point x="526.2530120481928" y="293.3915662650602"/>
      <point x="405.72289156626505" y="293.3915662650602" type="curve" smooth="yes"/>
      <point x="256.18072289156623" y="293.3915662650602" type="line"/>
      <point x="256.18072289156623" y="372.4096385542168" type="line"/>
      <point x="419.73493975903614" y="372.4096385542168" type="line"/>
      <point x="419.73493975903614" y="445.3734939759036" type="line"/>
      <point x="256.18072289156623" y="445.3734939759036" type="line"/>
      <point x="256.18072289156623" y="705.0" type="line"/>
      <point x="155.18072289156626" y="705.0" type="line"/>
      <point x="155.18072289156626" y="445.3734939759036" type="line"/>
      <point x="5.843373493975903" y="445.3734939759036" type="line"/>
      <point x="5.843373493975903" y="372.4096385542168" type="line"/>
      <point x="155.18072289156626" y="372.4096385542168" type="line"/>
    </contour>
    <contour>
      <point x="256.18072289156623" y="67.27710843373495" type="line"/>
      <point x="256.18072289156623" y="226.75903614457832" type="line"/>
      <point x="391.3734939759036" y="226.75903614457832" type="line" smooth="yes"/>
      <point x="456.0903614457831" y="226.75903614457832"/>
      <point x="492.7831325301205" y="201.1566265060241"/>
      <point x="492.7831325301205" y="147.7289156626506" type="curve" smooth="yes"/>
      <point x="492.7831325301205" y="92.94578313253011"/>
      <point x="455.37951807228916" y="67.27710843373495"/>
      <point x="391.3734939759036" y="67.27710843373495" type="curve" smooth="yes"/>
    </contour>
  </outline>
</glyph>
